<svg width="1024" height="1024" version="1.1" xmlns="http://www.w3.org/2000/svg" desc="Created with imagetracer.js version 1.2.6" ><path fill="rgb(0,0,0)" stroke="rgb(0,0,0)" stroke-width="1" opacity="0" d="M 0 0 L 1024 0 L 1024 1024 L 0 1024 L 0 0 Z M 592 277 L 591 278 L 583 278 L 568 281 L 547 288 Q 521 298 503 315 Q 475 338 459 374 L 450 401 L 447 418 L 447 428 L 446 429 L 446 446 L 447 447 L 448 464 L 452 482 L 458 499 L 436 492 L 424 491 L 423 490 L 413 490 L 412 489 L 380 491 L 363 495 L 349 500 Q 330 508 316 519 L 275 550 L 209 588 Q 204 590 205 599 L 212 604 L 219 603 L 279 568 Q 305 551 329 531 L 345 521 L 370 511 L 393 507 L 419 507 L 420 508 L 427 508 L 437 510 L 457 517 L 496 537 L 522 545 L 542 547 L 543 548 L 554 548 L 555 549 L 600 549 L 601 550 L 612 551 L 620 555 Q 627 560 630 571 Q 632 585 626 592 L 617 600 L 602 604 L 523 604 L 522 603 L 498 603 L 497 604 L 489 604 L 479 606 Q 462 610 450 618 L 445 626 L 446 630 L 452 634 L 458 634 L 473 626 L 493 621 L 541 621 L 542 622 L 594 622 L 595 621 L 608 621 L 629 615 Q 646 608 661 597 L 696 567 L 711 551 L 743 507 L 762 491 L 772 486 L 781 484 L 793 485 L 799 488 L 802 494 L 802 497 L 798 506 L 774 552 Q 752 590 725 623 L 705 642 L 666 664 L 578 709 L 557 714 L 541 714 L 540 713 L 522 711 L 402 686 L 377 686 L 355 692 L 338 701 L 293 730 L 287 737 L 288 744 L 293 747 Q 300 748 303 745 L 345 717 L 362 708 L 381 703 L 398 703 L 399 704 L 411 705 L 455 715 L 474 718 L 488 722 L 537 731 L 563 731 L 585 725 L 686 673 L 711 659 L 725 648 Q 751 621 772 589 Q 799 548 819 501 Q 821 488 816 482 Q 808 470 793 467 L 776 467 L 768 469 L 766 470 L 767 455 L 768 454 L 768 421 L 762 391 Q 751 356 730 333 Q 706 305 671 289 L 658 284 L 633 278 L 625 278 L 624 277 L 592 277 Z " /><path fill="rgb(0,0,0)" stroke="rgb(0,0,0)" stroke-width="1" opacity="0" d="M 596.5 294 L 627.5 295 L 646.5 299 L 658.5 303 Q 689 315 710 336.5 Q 729.6 355.9 741 383.5 Q 746.9 398.6 750 416.5 L 751 448.5 L 750 449.5 L 748 467.5 L 743 484 L 741.5 484 L 726 499.5 L 695 542.5 L 676.5 561 L 648.5 584 Q 649.2 553.8 631.5 542 L 621.5 536 L 604.5 532 L 546.5 531 L 545.5 530 L 537.5 530 L 521.5 527 Q 498.3 522.2 483 509.5 Q 472.7 491.8 467 469.5 L 465 452.5 L 464 451.5 L 464 422.5 L 469 397.5 L 481 368.5 Q 492.9 346.9 510.5 331 Q 528.7 314.2 553.5 304 L 576.5 297 L 587.5 295 L 595.5 295 L 596.5 294 Z M 554 357 L 546 359 L 536 365 Q 525 373 523 389 Q 522 408 530 419 Q 537 429 553 432 L 566 432 Q 575 431 581 426 Q 592 418 595 402 Q 597 381 588 371 Q 579 356 554 357 Z M 652 360 L 541 505 L 563 505 L 673 362 L 673 360 L 652 360 Z M 650 433 Q 640 434 635 439 Q 624 447 620 462 L 620 479 L 626 494 Q 633 505 650 508 Q 669 510 679 501 Q 689 492 692 476 L 691 460 L 684 446 Q 674 432 650 433 Z " /><path fill="rgb(0,0,0)" stroke="rgb(0,0,0)" stroke-width="1" opacity="0" d="M 555.5 374 L 563.5 374 L 571 379.5 L 575 389.5 L 575 399.5 L 570 411 L 563.5 415 L 555.5 415 L 548 410.5 L 543 398.5 L 543 389.5 Q 544.7 381.7 549.5 377 L 555.5 374 Z " /><path fill="rgb(0,0,0)" stroke="rgb(0,0,0)" stroke-width="1" opacity="0" d="M 652.5 450 L 662.5 451 L 669 457.5 L 671 462.5 L 672 472.5 Q 669.7 473.7 671 478.5 L 668 484.5 L 663.5 489 Q 659.9 491.9 652.5 491 L 644 485.5 Q 638.2 478.8 640 464.5 Q 641.5 456 647.5 452 L 652.5 450 Z " /><path fill="rgb(0,0,0)" stroke="rgb(0,0,0)" stroke-width="1" opacity="0.9725490196078431" d="M 591.5 277 L 623.5 277 L 624.5 278 L 632.5 278 L 657.5 284 L 670.5 289 Q 706.4 304.6 730 332.5 Q 751.2 356.3 762 390.5 L 768 420.5 L 768 453.5 L 767 454.5 L 766 469.5 L 767.5 469 L 775.5 467 L 792.5 467 Q 808.3 470.2 816 481.5 Q 820.8 487.7 819 500.5 Q 798.7 547.7 772 588.5 Q 751.4 621.4 724.5 648 L 710.5 659 L 685.5 673 L 584.5 725 L 562.5 731 L 536.5 731 L 487.5 722 L 473.5 718 L 454.5 715 L 410.5 705 L 398.5 704 L 397.5 703 L 380.5 703 L 361.5 708 L 344.5 717 L 302.5 745 Q 299.5 748 292.5 747 L 288 743.5 L 287 736.5 L 292.5 730 L 337.5 701 L 354.5 692 L 376.5 686 L 401.5 686 L 521.5 711 L 539.5 713 L 540.5 714 L 556.5 714 L 577.5 709 L 665.5 664 L 704.5 642 L 725 622.5 Q 752.3 589.8 774 551.5 L 798 505.5 L 802 496.5 L 802 493.5 L 798.5 488 L 792.5 485 L 780.5 484 L 771.5 486 L 761.5 491 L 743 506.5 L 711 550.5 L 695.5 567 L 660.5 597 Q 646.3 607.8 628.5 615 L 607.5 621 L 594.5 621 L 593.5 622 L 541.5 622 L 540.5 621 L 492.5 621 L 472.5 626 L 457.5 634 L 451.5 634 L 446 629.5 L 445 625.5 L 449.5 618 Q 462.3 610.3 478.5 606 L 488.5 604 L 496.5 604 L 497.5 603 L 521.5 603 L 522.5 604 L 601.5 604 L 616.5 600 L 626 591.5 Q 631.8 584.8 630 570.5 Q 627.3 560.3 619.5 555 L 611.5 551 L 600.5 550 L 599.5 549 L 554.5 549 L 553.5 548 L 542.5 548 L 541.5 547 L 521.5 545 L 495.5 537 L 456.5 517 L 436.5 510 L 426.5 508 L 419.5 508 L 418.5 507 L 392.5 507 L 369.5 511 L 344.5 521 L 328.5 531 Q 305.2 551.2 278.5 568 L 218.5 603 L 211.5 604 L 205 598.5 Q 203.7 590.2 208.5 588 L 274.5 550 L 315.5 519 Q 330.5 508 348.5 500 L 362.5 495 L 379.5 491 L 411.5 489 L 412.5 490 L 422.5 490 L 423.5 491 L 435.5 492 L 458 499 L 452 481.5 L 448 463.5 L 447 446.5 L 446 445.5 L 446 428.5 L 447 427.5 L 447 417.5 L 450 400.5 L 459 373.5 Q 474.7 338.2 502.5 315 Q 521.4 298.4 546.5 288 L 567.5 281 L 582.5 278 L 590.5 278 L 591.5 277 Z M 597 294 L 596 295 L 588 295 L 577 297 L 554 304 Q 529 314 511 331 Q 493 347 481 369 L 469 398 L 464 423 L 464 452 L 465 453 L 467 470 Q 473 492 483 510 Q 498 522 522 527 L 538 530 L 546 530 L 547 531 L 605 532 L 622 536 L 632 542 Q 649 554 649 584 L 677 561 L 695 543 L 726 500 L 742 484 L 743 484 L 748 468 L 750 450 L 751 449 L 750 417 Q 747 399 741 384 Q 730 356 710 337 Q 689 315 659 303 L 647 299 L 628 295 L 597 294 Z " /><path fill="rgb(0,0,0)" stroke="rgb(0,0,0)" stroke-width="1" opacity="0.9725490196078431" d="M 553.5 357 Q 578.8 355.7 588 370.5 Q 596.9 380.6 595 401.5 Q 591.9 417.9 580.5 426 Q 574.5 430.5 565.5 432 L 552.5 432 Q 537.2 429.3 530 418.5 Q 521.7 408.3 523 388.5 Q 525.4 372.9 535.5 365 L 545.5 359 L 553.5 357 Z M 556 374 L 550 377 Q 545 382 543 390 L 543 399 L 548 411 L 556 415 L 564 415 L 570 411 L 575 400 L 575 390 L 571 380 L 564 374 L 556 374 Z " /><path fill="rgb(0,0,0)" stroke="rgb(0,0,0)" stroke-width="1" opacity="0.9725490196078431" d="M 651.5 360 L 672.5 360 L 673 361.5 L 562.5 505 L 541 504.5 L 651.5 360 Z " /><path fill="rgb(0,0,0)" stroke="rgb(0,0,0)" stroke-width="1" opacity="0.9725490196078431" d="M 649.5 433 Q 674.5 431.5 684 445.5 L 691 459.5 L 692 475.5 Q 689.3 492.3 678.5 501 Q 669 509.5 649.5 508 Q 633.4 505.1 626 493.5 L 620 478.5 L 620 461.5 Q 623.5 446.6 634.5 439 Q 640.5 434.5 649.5 433 Z M 653 450 L 648 452 Q 641 456 640 465 Q 638 479 644 486 L 653 491 Q 660 492 664 489 L 668 485 L 671 479 Q 670 474 672 473 L 671 463 L 669 458 L 663 451 L 653 450 Z " /></svg>