<?xml version="1.0" encoding="UTF-8"?>
<svg version="1.1" xmlns="http://www.w3.org/2000/svg" width="740" height="740">
<path d="M0 0 C10.13313749 9.18099809 19.73323867 18.98472948 28.04223633 29.8503418 C28.83629883 30.8506543 29.63036133 31.8509668 30.44848633 32.8815918 C44.40744575 50.53963481 55.86471428 69.85553133 65.66723633 90.1003418 C66.08102539 90.94483887 66.49481445 91.78933594 66.92114258 92.65942383 C69.44622076 98.00608558 70.95629656 103.03530949 72.04223633 108.8503418 C70.41701638 108.55990325 68.79207554 108.26790287 67.16723633 107.9753418 C66.15661133 107.79358398 65.14598633 107.61182617 64.10473633 107.42456055 C61.44541181 106.9259372 58.809984 106.36594285 56.16723633 105.7878418 C50.16579881 104.5799455 44.14884543 104.15641878 38.04223633 103.8503418 C37.1940332 103.80780273 36.34583008 103.76526367 35.47192383 103.72143555 C13.33687049 103.20101893 -8.80806706 107.81102394 -28.95776367 116.8503418 C-30.27774546 117.40711607 -31.59806884 117.96308109 -32.91870117 118.51831055 C-48.11708293 125.09719803 -61.50256637 134.71157515 -74.70776367 144.6003418 C-93.99171151 158.92652785 -115.3461962 168.2908667 -138.95776367 172.8503418 C-139.79952148 173.03467773 -140.6412793 173.21901367 -141.50854492 173.40893555 C-169.97806906 178.53980672 -202.52517944 173.42627642 -226.94165039 157.5612793 C-230.78656398 154.85840923 -234.38236543 151.9014881 -237.95776367 148.8503418 C-238.6512793 148.30635742 -239.34479492 147.76237305 -240.05932617 147.2019043 C-244.83484537 143.39411146 -248.36609843 138.76295382 -251.95776367 133.8503418 C-256.06060381 135.22767179 -258.62618751 137.08677839 -261.77026367 140.0378418 C-264.77180391 142.82245656 -267.77540175 145.57410111 -270.89526367 148.2253418 C-280.43810433 156.57532738 -288.75966988 165.73765358 -296.44995117 175.8034668 C-298.97449091 179.03362324 -300.89303409 180.95808408 -304.95776367 181.8503418 C-310.36131776 181.97042078 -313.23033943 179.408963 -316.98901367 175.8815918 C-324.41467142 168.22019888 -324.41467142 168.22019888 -325.64526367 162.8503418 C-324.02796875 155.79305486 -319.37748156 150.93827823 -314.21557617 146.1003418 C-312.27969999 144.17116415 -310.50927262 142.20399679 -308.72729492 140.13549805 C-304.84490145 135.6592414 -300.72006382 131.46496075 -296.52026367 127.2878418 C-295.80805664 126.57176758 -295.09584961 125.85569336 -294.36206055 125.11791992 C-289.72552535 120.48980713 -284.94347878 116.09890139 -279.95776367 111.8503418 C-278.69319336 110.76366211 -278.69319336 110.76366211 -277.40307617 109.6550293 C-274.62215992 107.34228077 -271.80479513 105.08076145 -268.95776367 102.8503418 C-268.33675781 102.36259277 -267.71575195 101.87484375 -267.07592773 101.37231445 C-250.33790712 88.38312412 -231.60225283 78.69367526 -211.95776367 70.8503418 C-211.2586084 70.56884277 -210.55945313 70.28734375 -209.83911133 69.99731445 C-173.31620812 55.46739259 -134.77541279 48.58585712 -95.58276367 48.7878418 C-93.86401499 48.79287212 -92.14526487 48.79743229 -90.42651367 48.80151367 C-86.27022716 48.8123857 -82.11401197 48.82956375 -77.95776367 48.8503418 C-79.98883822 48.20375496 -82.02176225 47.56297641 -84.05541992 46.92456055 C-85.18729736 46.5670874 -86.3191748 46.20961426 -87.48535156 45.84130859 C-143.75302398 29.78348097 -214.61565828 52.70997112 -264.30151367 79.14331055 C-264.89125977 79.47226318 -265.48100586 79.80121582 -266.08862305 80.14013672 C-268.44927202 81.03709699 -270.45455342 80.96791519 -272.95776367 80.8503418 C-273.03328196 76.83431798 -273.08699265 72.81858252 -273.12255859 68.80200195 C-273.14463534 66.78281067 -273.18280024 64.76381537 -273.22143555 62.74487305 C-273.40457491 37.960012 -263.28262738 14.35818147 -246.95776367 -4.1496582 C-246.27198242 -4.95532227 -245.58620117 -5.76098633 -244.87963867 -6.59106445 C-236.37449717 -16.36585838 -226.94377647 -25.22369361 -215.95776367 -32.1496582 C-215.34803711 -32.53508789 -214.73831055 -32.92051758 -214.11010742 -33.31762695 C-143.14603425 -77.75563038 -58.86334521 -51.79374533 0 0 Z " fill="#6AB747" transform="translate(489.957763671875,121.149658203125)"/>
<path d="M0 0 C0.85529297 -0.03738281 1.71058594 -0.07476562 2.59179688 -0.11328125 C6.99323605 -0.17464911 9.04146632 -0.10423337 12.66796875 2.5859375 C16.00251025 7.19108765 16.99403723 11.41447599 17.72265625 17.01171875 C17.8918457 18.30126465 18.06103516 19.59081055 18.23535156 20.91943359 C18.40790709 22.30033039 18.57943473 23.68135596 18.75 25.0625 C18.88214905 26.11766815 18.88214905 26.11766815 19.01696777 27.19415283 C20.35273785 37.91296018 21.52030752 48.56514124 21.6875 59.375 C21.70796387 60.57914551 21.72842773 61.78329102 21.74951172 63.02392578 C21.99688148 79.21676242 22.16116854 95.32786818 19.6875 111.375 C19.52765625 112.51453125 19.3678125 113.6540625 19.203125 114.828125 C14.60038064 142.07139565 3.79237948 170.05334508 -9.23339844 194.35693359 C-10.41599999 196.56855904 -11.56998761 198.7941938 -12.7265625 201.01953125 C-21.80248759 218.22678956 -32.50580959 234.69791666 -45.3125 249.375 C-46.384043 250.62785488 -47.45425478 251.88184902 -48.5234375 253.13671875 C-51.44234645 256.55885862 -54.37427079 259.96943823 -57.3125 263.375 C-42.85221234 256.64694949 -30.89019085 243.78863831 -21.3125 231.375 C-20.52359375 230.40175781 -19.7346875 229.42851563 -18.921875 228.42578125 C-12.37152197 220.21724137 -6.88310835 211.53087976 -1.56152344 202.48535156 C-0.47048818 200.64193702 0.64913128 198.81550059 1.7734375 196.9921875 C13.61611477 177.318842 21.68803188 155.09787669 28.6875 133.3125 C29.01232864 132.30759018 29.01232864 132.30759018 29.34371948 131.28237915 C32.58428951 121.23286184 35.46190025 111.14460416 37.84765625 100.85546875 C38.6875 97.375 38.6875 97.375 39.6875 95.375 C43.75777436 95.95227449 46.54000851 98.22400069 49.6875 100.6875 C50.53973145 101.35410645 50.53973145 101.35410645 51.40917969 102.03417969 C62.37504271 110.78864429 70.69362358 120.20796705 77.6875 132.375 C78.16703125 133.19226563 78.6465625 134.00953125 79.140625 134.8515625 C96.32983686 166.51017421 95.79346041 205.06775822 86.1328125 238.8359375 C83.9517987 245.96745828 80.97352879 252.69221753 77.6875 259.375 C77.130625 260.51710938 76.57375 261.65921875 76 262.8359375 C71.98834772 270.65494495 67.13195054 277.49579897 61.6875 284.375 C61.06230469 285.20515625 60.43710937 286.0353125 59.79296875 286.890625 C44.76077414 306.51159481 25.07602218 320.40519178 3.6875 332.375 C3.05779297 332.72788086 2.42808594 333.08076172 1.77929688 333.44433594 C-20.54672471 345.74000848 -46.13446712 352.98052742 -71.3125 356.375 C-72.4579126 356.5294458 -72.4579126 356.5294458 -73.62646484 356.68701172 C-108.43344248 361.13898522 -169.23625603 363.09249598 -200.3125 342.375 C-199.13451148 338.84103445 -198.45901295 338.60365981 -195.375 336.75 C-190.54996039 333.68795563 -186.51771094 330.05787611 -182.37890625 326.1328125 C-180.3125 324.375 -180.3125 324.375 -178.3125 324.375 C-178.3125 323.715 -178.3125 323.055 -178.3125 322.375 C-177.6525 322.375 -176.9925 322.375 -176.3125 322.375 C-175.95865234 321.54935547 -175.95865234 321.54935547 -175.59765625 320.70703125 C-173.98985656 317.78953454 -171.95645213 315.55900217 -169.75 313.0625 C-164.00461236 306.35745243 -159.57688739 299.08419281 -155.3125 291.375 C-154.76851563 290.40046875 -154.22453125 289.4259375 -153.6640625 288.421875 C-146.42280804 274.70563639 -141.35378163 259.56908812 -138.3125 244.375 C-138.1475 243.56538818 -137.9825 242.75577637 -137.8125 241.92163086 C-135.8686089 231.45768699 -135.41003464 220.84635095 -134.78613281 210.23901367 C-133.80069115 193.77680265 -131.52124663 177.74697315 -125.625 162.25 C-125.2832373 161.33605469 -124.94147461 160.42210937 -124.58935547 159.48046875 C-112.91598344 129.14133781 -90.9487347 100.7266677 -60.9609375 86.8125 C-47.08251171 80.65882415 -34.74953159 77.28918933 -19.49609375 77.3515625 C-18.70811401 77.35325439 -17.92013428 77.35494629 -17.10827637 77.35668945 C-15.17634626 77.36108187 -13.24442171 77.36780675 -11.3125 77.375 C-11.50049704 58.17661289 -12.02149671 39.51517567 -15.47265625 20.578125 C-17.39835986 9.55915324 -17.39835986 9.55915324 -15.2890625 5.31640625 C-10.12308617 0.04591595 -7.08864816 0.11594815 0 0 Z " fill="#6AB747" transform="translate(606.3125,316.625)"/>
<path d="M0 0 C1.32 0 2.64 0 4 0 C4.14695312 1.13953125 4.29390625 2.2790625 4.4453125 3.453125 C7.68693412 26.96053133 14.86769507 48.7310455 29 68 C30.14082031 69.56814453 30.14082031 69.56814453 31.3046875 71.16796875 C40.21009333 83.18351328 50.04191819 93.95345115 62 103 C63.27230469 103.97839844 63.27230469 103.97839844 64.5703125 104.9765625 C70.48823369 109.41058703 76.66072606 113.33377661 82.94482422 117.21630859 C109.11323482 133.43116676 131.70048791 153.42557476 146 181 C146.31066406 181.59538574 146.62132812 182.19077148 146.94140625 182.80419922 C160.25128199 208.7069438 165.21717498 240.49170109 156.76269531 268.75146484 C153.9129335 277.15297134 149.96540105 285.08338343 146 293 C146.97259766 293.35191406 146.97259766 293.35191406 147.96484375 293.7109375 C151.16177912 295.06870928 154.13431831 296.6600115 157.1784668 298.32543945 C169.14334175 304.84761348 181.52673338 310.57851198 194.640625 314.39453125 C195.36741455 314.6061792 196.0942041 314.81782715 196.84301758 315.03588867 C198.79301159 315.58436 200.75366514 316.09453597 202.71484375 316.6015625 C207.02139365 318.43479064 208.40058823 320.12242444 211 324 C213.02289082 329.33610294 210.59719368 333.16757982 208.40625 338.109375 C204.42857143 346.28571429 204.42857143 346.28571429 201 348 C192.84484896 349.02527156 186.14279336 346.74183371 178.625 343.8125 C177.46250732 343.3697876 176.30001465 342.9270752 175.10229492 342.47094727 C156.11201263 335.09283277 137.43935945 326.55980398 120 316 C119.02804688 315.42121094 118.05609375 314.84242188 117.0546875 314.24609375 C102.00623915 305.00694668 89.21396967 293.27511609 76.75 280.875 C75.59624878 279.72837891 75.59624878 279.72837891 74.41918945 278.55859375 C62 266.10297647 62 266.10297647 62 263 C61.34 263 60.68 263 60 263 C58.04938115 260.73104015 56.23427377 258.4504703 54.4375 256.0625 C53.59433228 254.9494751 53.59433228 254.9494751 52.73413086 253.81396484 C47.66626368 247.04080938 42.8382404 240.10620927 38.0625 233.125 C37.35343506 232.0925415 36.64437012 231.06008301 35.91381836 229.99633789 C21.9867169 209.43070077 8.73275004 184.324164 3 160 C6.12881329 199.08681677 23.59618446 234.03775377 47 265 C47.74507812 266.0003125 48.49015625 267.000625 49.2578125 268.03125 C57.51366806 279.02054275 66.34244533 289.67494716 76.234375 299.234375 C78.13899029 301.13899029 79.87860717 303.13738668 81.625 305.1875 C84.51538091 308.55085234 87.54802824 311.22341402 91 314 C92.68873879 315.64429829 94.35305515 317.31384218 96 319 C96.70125 319.64453125 97.4025 320.2890625 98.125 320.953125 C98.8675 321.64921875 99.61 322.3453125 100.375 323.0625 C101.08398438 323.71347656 101.79296875 324.36445312 102.5234375 325.03515625 C104 327 104 327 104.1484375 329.02734375 C102.34231523 332.12969663 99.42119383 333.12545257 96.25 334.5 C95.57839844 334.80115723 94.90679687 335.10231445 94.21484375 335.41259766 C66.86092112 347.38315843 36.33954508 345.29082471 8.85546875 334.94140625 C-9.79363729 327.62795931 -25.69186332 316.9596577 -40 303 C-41.25683594 301.85337891 -41.25683594 301.85337891 -42.5390625 300.68359375 C-71.74822782 273.28261486 -84.35831633 231.57143538 -86.109375 192.56347656 C-87.76658069 140.34078212 -70.1194141 87.8809736 -39 46 C-38.29101562 45.03707031 -37.58203125 44.07414062 -36.8515625 43.08203125 C-29.33702718 32.96433779 -21.52248839 23.28488351 -13 14 C-12.01801082 12.92467852 -11.03624995 11.84914852 -10.0546875 10.7734375 C-2.44678656 2.44678656 -2.44678656 2.44678656 0 0 Z " fill="#6AB747" transform="translate(127,311)"/>
<path d="M0 0 C8.98063313 -0.33445117 17.55366944 -0.00884533 26.4375 1.375 C27.27192627 1.50108643 28.10635254 1.62717285 28.96606445 1.75708008 C30.99153217 2.09546723 32.9990133 2.53839672 35 3 C35.495 3.99 35.495 3.99 36 5 C38.27299769 6.09666209 38.27299769 6.09666209 40.9375 7.0625 C45.93939394 8.96969697 45.93939394 8.96969697 48 10 C48 10.66 48 11.32 48 12 C41.42319085 12.86852482 35.1208518 13.07443223 28.49609375 12.87890625 C27.5322023 12.85529526 26.56831085 12.83168427 25.57521057 12.80735779 C22.52912949 12.7314442 19.48335055 12.64711366 16.4375 12.5625 C14.35873821 12.50920672 12.27996215 12.45646697 10.20117188 12.40429688 C5.13392719 12.27592829 0.06693568 12.14001621 -5 12 C-5 11.67 -5 11.34 -5 11 C-2.69 11 -0.38 11 2 11 C2 10.34 2 9.68 2 9 C14.21 9 26.42 9 39 9 C25.32083968 4.79102759 13.1208887 2.80448841 -1 2 C-0.67 1.34 -0.34 0.68 0 0 Z " fill="#60AF3B" transform="translate(373,161)"/>
<path d="M0 0 C0.33 0 0.66 0 1 0 C2.98115376 8.41625548 3.2808656 16.62152772 3.20581055 25.21484375 C3.18758726 27.36470536 3.18530156 29.51413162 3.18554688 31.6640625 C3.14067037 50.40201811 3.14067037 50.40201811 2 57 C1.01 57.495 1.01 57.495 0 58 C-1.01941849 52.11328844 -1.14546764 46.39630342 -1.1328125 40.4296875 C-1.13376923 39.43043243 -1.13472595 38.43117737 -1.13571167 37.40164185 C-1.13638948 35.29884783 -1.13456313 33.19605167 -1.13037109 31.09326172 C-1.1250059 27.87853299 -1.13033546 24.66394324 -1.13671875 21.44921875 C-1.13605812 19.40104136 -1.13477727 17.35286405 -1.1328125 15.3046875 C-1.13483673 14.34625946 -1.13686096 13.38783142 -1.13894653 12.40036011 C-1.13579437 11.50237701 -1.13264221 10.60439392 -1.12939453 9.67919922 C-1.12859894 8.89423065 -1.12780334 8.10926208 -1.12698364 7.30050659 C-0.98853019 4.7922066 -0.54578447 2.44930897 0 0 Z " fill="#66B03F" transform="translate(625,365)"/>
<path d="M0 0 C0.33 0 0.66 0 1 0 C1 3.63 1 7.26 1 11 C0.34 11 -0.32 11 -1 11 C-0.99419922 11.85150635 -0.98839844 12.7030127 -0.98242188 13.58032227 C-0.942253 24.37355666 -1.19466014 35.1491664 -1.5 45.9375 C-1.548364 47.69986467 -1.59654216 49.46223445 -1.64453125 51.22460938 C-1.76088594 55.48313466 -1.87972924 59.74158359 -2 64 C-2.33 64 -2.66 64 -3 64 C-3 61.03 -3 58.06 -3 55 C-3.66 55 -4.32 55 -5 55 C-5.38330247 36.367241 -4.19228551 18.19451912 0 0 Z " fill="#6AAA4A" transform="translate(46,450)"/>
<path d="M0 0 C1.5625 1.4375 1.5625 1.4375 3 3 C5.10332891 3.71447643 5.10332891 3.71447643 7 4 C6.67 4.99 6.34 5.98 6 7 C11.28 7.33 16.56 7.66 22 8 C22 8.99 22 9.98 22 11 C25.96 11 29.92 11 34 11 C33.01 11.33 32.02 11.66 31 12 C30.67 12.66 30.34 13.32 30 14 C20.4005764 12.69437891 11.34444511 10.70896617 2.1875 7.5 C0.90794434 7.05515259 0.90794434 7.05515259 -0.39746094 6.60131836 C-4.35677895 5.16600602 -7.8174878 3.85990137 -11 1 C-3.55769231 -0.38461538 -3.55769231 -0.38461538 0 0 Z " fill="#5CB039" transform="translate(138,640)"/>
<path d="M0 0 C1.5 1.25 1.5 1.25 3 3 C3 4.32 3 5.64 3 7 C4.99550146 8.99550146 6.47924835 9.81376393 9 11 C9.60585938 11.33773437 10.21171875 11.67546875 10.8359375 12.0234375 C13.21773835 13.09825738 15.1553142 13.39605713 17.75 13.625 C18.54921875 13.69976563 19.3484375 13.77453125 20.171875 13.8515625 C20.77515625 13.90054688 21.3784375 13.94953125 22 14 C21.67 14.99 21.34 15.98 21 17 C17.6839406 16.26521458 14.37301243 15.50935295 11.0625 14.75 C10.13630859 14.54503906 9.21011719 14.34007812 8.25585938 14.12890625 C2.14030321 12.71267219 -3.36800735 10.77465501 -9 8 C-7.82255415 4.46766245 -7.04394359 4.13691925 -3.9375 2.3125 C-3.20402344 1.87550781 -2.47054688 1.43851563 -1.71484375 0.98828125 C-1.14894531 0.66214844 -0.58304687 0.33601562 0 0 Z " fill="#61B63E" transform="translate(415,651)"/>
<path d="M0 0 C10.49996894 0.14365629 10.49996894 0.14365629 15.390625 1.23046875 C15.060625 1.89046875 14.730625 2.55046875 14.390625 3.23046875 C11.46253843 3.58882244 8.58050712 3.84154305 5.640625 4.04296875 C-3.05958473 4.75154008 -11.27726192 6.34551055 -19.71582031 8.55395508 C-27.42758747 10.55676839 -27.42758747 10.55676839 -31.609375 10.23046875 C-30.289375 9.90046875 -28.969375 9.57046875 -27.609375 9.23046875 C-27.609375 8.57046875 -27.609375 7.91046875 -27.609375 7.23046875 C-21.81415496 3.36698873 -14.75052459 2.17811626 -7.859375 2.29296875 C-3.90079168 2.21684215 -3.7209783 0.32864928 0 0 Z " fill="#56AF2F" transform="translate(502.609375,221.76953125)"/>
<path d="M0 0 C7.75 0.875 7.75 0.875 10 2 C10.639375 2.144375 11.27875 2.28875 11.9375 2.4375 C14 3 14 3 17 5 C16.01 5 15.02 5 14 5 C15.305239 7.61047801 16.35826574 7.68066423 19.0625 8.625 C19.79597656 8.88539063 20.52945312 9.14578125 21.28515625 9.4140625 C22.13400391 9.70410156 22.13400391 9.70410156 23 10 C23 10.66 23 11.32 23 12 C25.31 12.33 27.62 12.66 30 13 C30 12.34 30 11.68 30 11 C32.96175123 11.61277612 34.38058783 12.25372522 37 14 C37.495 15.485 37.495 15.485 38 17 C36.68 17 35.36 17 34 17 C34 16.34 34 15.68 34 15 C32.72938721 15.33922485 32.72938721 15.33922485 31.43310547 15.68530273 C27.25615673 16.06818475 24.68073442 14.89845889 21.0703125 13.03515625 C20.43511688 12.72299667 19.79992126 12.4108371 19.14547729 12.08921814 C17.13096105 11.09499153 15.12821688 10.07926974 13.125 9.0625 C11.75592883 8.38201205 10.38614325 7.7029594 9.015625 7.02539062 C5.66865219 5.36679597 2.33187631 3.68875489 -1 2 C-0.67 1.34 -0.34 0.68 0 0 Z " fill="#62B63B" transform="translate(258,631)"/>
<path d="M0 0 C6.6 0 13.2 0 20 0 C19.67 0.66 19.34 1.32 19 2 C16.92480469 2.34716797 16.92480469 2.34716797 14.171875 2.4921875 C13.15391846 2.5555127 12.13596191 2.61883789 11.0871582 2.68408203 C9.985896 2.74708496 8.88463379 2.81008789 7.75 2.875 C-1.76697181 3.50896273 -10.94683957 4.67984518 -20.27246094 6.67919922 C-24.60656562 7.60095951 -28.53432507 8.21643013 -33 8 C-33.33 7.34 -33.66 6.68 -34 6 C-31.75 4.4375 -31.75 4.4375 -29 3 C-27.66158328 3.31229724 -26.32860925 3.64830932 -25 4 C-22.62958391 3.90996843 -22.62958391 3.90996843 -20.25 3.5625 C-19.45078125 3.46066406 -18.6515625 3.35882813 -17.828125 3.25390625 C-17.22484375 3.17011719 -16.6215625 3.08632812 -16 3 C-16 2.67 -16 2.34 -16 2 C-10.72 2 -5.44 2 0 2 C0 1.34 0 0.68 0 0 Z " fill="#57B02A" transform="translate(340,161)"/>
<path d="M0 0 C3.47443672 0.58185717 5.11348062 1.74639363 7.56640625 4.23828125 C8.21673828 4.89376953 8.86707031 5.54925781 9.53710938 6.22460938 C10.20548828 6.91361328 10.87386719 7.60261719 11.5625 8.3125 C12.23474609 8.98990234 12.90699219 9.66730469 13.59960938 10.36523438 C22 18.89909695 22 18.89909695 22 22 C19.83125748 21.49396008 18.00032373 21.00016187 16 20 C15.67 20.99 15.34 21.98 15 23 C13.20931427 20.3139714 12.33944209 18.3373411 11.375 15.3125 C11.11460937 14.50425781 10.85421875 13.69601562 10.5859375 12.86328125 C10.39257812 12.24839844 10.19921875 11.63351562 10 11 C9.01 11 8.02 11 7 11 C6.7525 10.21625 6.505 9.4325 6.25 8.625 C4.79219136 5.56360186 3.92006527 5.41293481 1 4 C0.25 1.875 0.25 1.875 0 0 Z " fill="#64AB44" transform="translate(236,449)"/>
<path d="M0 0 C1.2065625 0.0309375 1.2065625 0.0309375 2.4375 0.0625 C2.1075 0.7225 1.7775 1.3825 1.4375 2.0625 C-0.9664456 2.82472665 -3.29611294 3.44444461 -5.75 4 C-6.48726318 4.17112305 -7.22452637 4.34224609 -7.98413086 4.51855469 C-17.73673397 6.67887143 -27.6542259 7.86250252 -37.5625 9.0625 C-37.8925 8.4025 -38.2225 7.7425 -38.5625 7.0625 C-39.8825 7.0625 -41.2025 7.0625 -42.5625 7.0625 C-42.5625 6.4025 -42.5625 5.7425 -42.5625 5.0625 C-37.2825 5.0625 -32.0025 5.0625 -26.5625 5.0625 C-26.5625 4.7325 -26.5625 4.4025 -26.5625 4.0625 C-23.9225 3.7325 -21.2825 3.4025 -18.5625 3.0625 C-18.5625 2.4025 -18.5625 1.7425 -18.5625 1.0625 C-17.49128906 1.07410156 -16.42007813 1.08570313 -15.31640625 1.09765625 C-13.91927257 1.10703299 -12.52213701 1.11613331 -11.125 1.125 C-10.41794922 1.13337891 -9.71089844 1.14175781 -8.98242188 1.15039062 C-7.17556441 1.15903588 -5.36862397 1.11470011 -3.5625 1.0625 C-2.5625 0.0625 -2.5625 0.0625 0 0 Z " fill="#5FB03E" transform="translate(562.5625,664.9375)"/>
<path d="M0 0 C2.64 0 5.28 0 8 0 C8.495 0.99 8.495 0.99 9 2 C-7.24600002 5.41497551 -23.53011505 5.63530773 -40 4 C-39.67 3.34 -39.34 2.68 -39 2 C-26.13 2 -13.26 2 0 2 C0 1.34 0 0.68 0 0 Z " fill="#47B820" transform="translate(348,291)"/>
<path d="M0 0 C8.98063313 -0.33445117 17.55366944 -0.00884533 26.4375 1.375 C27.27192627 1.50108643 28.10635254 1.62717285 28.96606445 1.75708008 C30.99153217 2.09546723 32.9990133 2.53839672 35 3 C35.495 3.99 35.495 3.99 36 5 C38.34038186 6.13102526 38.34038186 6.13102526 41.0625 7.125 C41.98160156 7.47820312 42.90070313 7.83140625 43.84765625 8.1953125 C44.55792969 8.46085938 45.26820313 8.72640625 46 9 C46 9.33 46 9.66 46 10 C41.37669991 9.56992557 37.293894 8.50332726 32.875 7.0625 C21.78179521 3.56338626 10.5667676 2.65897626 -1 2 C-0.67 1.34 -0.34 0.68 0 0 Z " fill="#51AE2D" transform="translate(373,161)"/>
<path d="M0 0 C3.22587117 6.45174233 0.85126959 12.15083851 -1.25 18.75 C-1.46744873 19.44158203 -1.68489746 20.13316406 -1.90893555 20.84570312 C-3.82548649 26.77745922 -6.22088585 32.41811966 -9 38 C-11 34.25 -11 34.25 -11 32 C-10.34 32 -9.68 32 -9 32 C-9.0825 31.0925 -9.165 30.185 -9.25 29.25 C-9 26 -9 26 -7 24.25 C-4.18626069 21.08454328 -4.59598581 18.90838315 -4.75 14.75 C-4.80414062 12.85507812 -4.80414062 12.85507812 -4.859375 10.921875 C-4.90578125 9.95765625 -4.9521875 8.9934375 -5 8 C-3.68 8.33 -2.36 8.66 -1 9 C-0.67 6.03 -0.34 3.06 0 0 Z " fill="#62B539" transform="translate(693,538)"/>
<path d="M0 0 C0.33 0 0.66 0 1 0 C1.33 3.3 1.66 6.6 2 10 C2.66 9.67 3.32 9.34 4 9 C4 11.31 4 13.62 4 16 C3.01 16 2.02 16 1 16 C0.19347492 18.88167681 -0.17515006 21.56031547 -0.31640625 24.546875 C-0.35830078 25.39121094 -0.40019531 26.23554687 -0.44335938 27.10546875 C-0.48267578 27.97816406 -0.52199219 28.85085938 -0.5625 29.75 C-0.60568359 30.63816406 -0.64886719 31.52632812 -0.69335938 32.44140625 C-0.79913615 34.62745963 -0.90122546 36.81362089 -1 39 C-1.66 39 -2.32 39 -3 39 C-3 42.3 -3 45.6 -3 49 C-3.33 49 -3.66 49 -4 49 C-4.13972672 40.06059493 -3.72086557 31.22611609 -3.0625 22.3125 C-2.97548828 21.03955078 -2.88847656 19.76660156 -2.79882812 18.45507812 C-2.71181641 17.24916016 -2.62480469 16.04324219 -2.53515625 14.80078125 C-2.456604 13.70934814 -2.37805176 12.61791504 -2.29711914 11.4934082 C-2 9 -2 9 -1 8 C-0.76924918 6.65252916 -0.58846937 5.29622435 -0.4375 3.9375 C-0.2209375 1.9884375 -0.2209375 1.9884375 0 0 Z " fill="#5EB338" transform="translate(474,512)"/>
<path d="M0 0 C1.32 0 2.64 0 4 0 C4 0.66 4 1.32 4 2 C3.16190796 2.36967896 3.16190796 2.36967896 2.30688477 2.74682617 C-0.27653194 3.88935281 -2.85700611 5.03838804 -5.4375 6.1875 C-6.31599609 6.57486328 -7.19449219 6.96222656 -8.09960938 7.36132812 C-13.91214779 9.95659435 -19.49064674 12.81126077 -25 16 C-24.67 13.36 -24.34 10.72 -24 8 C-23.34 8.33 -22.68 8.66 -22 9 C-20.65812182 8.3507041 -19.32520503 7.68268138 -18 7 C-17.01 7 -16.02 7 -15 7 C-15.33 6.34 -15.66 5.68 -16 5 C-12.81071358 3.18945498 -9.92243753 2.51104148 -6.3125 1.9375 C-2.8482004 1.62947593 -2.8482004 1.62947593 0 0 Z " fill="#5EB439" transform="translate(464,233)"/>
<path d="M0 0 C0.99 0.33 1.98 0.66 3 1 C3 1.99 3 2.98 3 4 C3.99 3.67 4.98 3.34 6 3 C7 5 7 5 7.75 7.0625 C8.36875 8.0215625 8.36875 8.0215625 9 9 C9.804375 9.12375 10.60875 9.2475 11.4375 9.375 C12.283125 9.58125 13.12875 9.7875 14 10 C15.05008653 11.97416268 16.04987876 13.97582866 17 16 C19.05093145 17.40466953 19.05093145 17.40466953 21 18 C21 18.66 21 19.32 21 20 C22.98 20.33 24.96 20.66 27 21 C27 21.99 27 22.98 27 24 C27.99 24 28.98 24 30 24 C30 24.66 30 25.32 30 26 C25.21980617 25.52908871 22.24656315 23.24133916 18.625 20.3125 C18.05064209 19.85697754 17.47628418 19.40145508 16.88452148 18.93212891 C15.75288895 18.03073224 14.62474224 17.12493833 13.50048828 16.21435547 C12.2793641 15.22609128 11.04575283 14.25327183 9.80859375 13.28515625 C5.42314497 9.74344035 2.20266109 5.62215557 -1 1 C-0.67 0.67 -0.34 0.34 0 0 Z " fill="#59AE2B" transform="translate(240,255)"/>
<path d="M0 0 C3.24888583 4.87332874 2.38098424 10.26859708 2.375 16 C2.37628906 17.25264648 2.37757813 18.50529297 2.37890625 19.79589844 C2.2608642 30.27213061 0.77919199 39.92542904 -2 50 C-2.66 50 -3.32 50 -4 50 C-4 48.35 -4 46.7 -4 45 C-3.34 45 -2.68 45 -2 45 C-2.09539062 44.22914063 -2.19078125 43.45828125 -2.2890625 42.6640625 C-2.39992188 41.66117188 -2.51078125 40.65828125 -2.625 39.625 C-2.74101562 38.62726562 -2.85703125 37.62953125 -2.9765625 36.6015625 C-2.98429687 35.74304688 -2.99203125 34.88453125 -3 34 C-2.34 33.34 -1.68 32.68 -1 32 C-0.75498505 29.56823603 -0.62675079 27.24135116 -0.5859375 24.8046875 C-0.56657135 24.09724396 -0.5472052 23.38980042 -0.5272522 22.66091919 C-0.46742348 20.39906915 -0.42105899 18.1371683 -0.375 15.875 C-0.33682314 14.3424256 -0.29777158 12.80987272 -0.2578125 11.27734375 C-0.16171961 7.51840376 -0.07770151 3.75936332 0 0 Z " fill="#57B32B" transform="translate(285,532)"/>
<path d="M0 0 C0.33 0.99 0.66 1.98 1 3 C0.00390625 4.90234375 0.00390625 4.90234375 -1.4375 6.9375 C-3.71076357 10.15227872 -4 10.81157547 -4 15 C-3.34 15 -2.68 15 -2 15 C-2 15.66 -2 16.32 -2 17 C-1.34 17.33 -0.68 17.66 0 18 C-3.63 18.66 -7.26 19.32 -11 20 C-11.33 22.31 -11.66 24.62 -12 27 C-12.99 26.67 -13.98 26.34 -15 26 C-13.61695335 21.12215803 -11.41911105 17.1820355 -8.625 13 C-8.04492188 12.11441406 -8.04492188 12.11441406 -7.453125 11.2109375 C-6.30962166 9.46882167 -5.15661242 7.73343453 -4 6 C-3.61038086 5.41476562 -3.22076172 4.82953125 -2.81933594 4.2265625 C-1.88050559 2.81707623 -0.94039378 1.40844365 0 0 Z " fill="#68B643" transform="translate(88,357)"/>
<path d="M0 0 C0.66 0 1.32 0 2 0 C2.8394882 2.10171867 3.67139656 4.20646625 4.5 6.3125 C4.9640625 7.48425781 5.428125 8.65601563 5.90625 9.86328125 C7 13 7 13 7 16 C5.27073126 15.68806536 3.54158956 15.37542638 1.8125 15.0625 C0.84957031 14.88847656 -0.11335937 14.71445313 -1.10546875 14.53515625 C-3.74239972 14.0476265 -6.3719905 13.53328895 -9 13 C-9 12.34 -9 11.68 -9 11 C-6.03 11 -3.06 11 0 11 C-0.020625 10.195625 -0.04125 9.39125 -0.0625 8.5625 C0 6 0 6 1 5 C0.34 4.67 -0.32 4.34 -1 4 C-0.67 2.68 -0.34 1.36 0 0 Z " fill="#5FB436" transform="translate(555,214)"/>
<path d="M0 0 C2.475 1.485 2.475 1.485 5 3 C-6.80939227 17.17127072 -6.80939227 17.17127072 -13 21 C-13.99 20.67 -14.98 20.34 -16 20 C-15.38125 19.4225 -14.7625 18.845 -14.125 18.25 C-11.93920416 16.17767561 -11.93920416 16.17767561 -11 13.8125 C-10 12 -10 12 -7.875 11.25 C-6.946875 11.12625 -6.946875 11.12625 -6 11 C-5.896875 10.236875 -5.79375 9.47375 -5.6875 8.6875 C-4.9472899 5.79395144 -4.29010706 4.83208565 -2 3 C-1.34 2.67 -0.68 2.34 0 2 C0 1.34 0 0.68 0 0 Z " fill="#62B23A" transform="translate(656,606)"/>
<path d="M0 0 C1.32 0 2.64 0 4 0 C4 0.66 4 1.32 4 2 C4.763125 1.95875 5.52625 1.9175 6.3125 1.875 C9 2 9 2 12 4 C12 4.66 12 5.32 12 6 C15.26545761 7.88391785 18.28111761 8.49287967 22 9 C22 9.66 22 10.32 22 11 C24.97 11 27.94 11 31 11 C30.34 11.99 29.68 12.98 29 14 C18.10001226 11.23524441 8.04206424 8.16296943 -2 3 C-1.34 2.01 -0.68 1.02 0 0 Z " fill="#53B42D" transform="translate(273,280)"/>
<path d="M0 0 C1.76462683 3.08809695 2 4.23312136 2 8 C1.34 8 0.68 8 0 8 C-2.29013653 11.4352048 -2.17842973 12.985331 -2 17 C-2.66 16.67 -3.32 16.34 -4 16 C-4.33 17.32 -4.66 18.64 -5 20 C-5.66 20 -6.32 20 -7 20 C-7 21.32 -7 22.64 -7 24 C-7.66 24 -8.32 24 -9 24 C-8.67 26.64 -8.34 29.28 -8 32 C-9.98 32.495 -9.98 32.495 -12 33 C-13.33140076 29.02226186 -12.32249035 26.94725428 -10.49609375 23.21069336 C-10.12613281 22.48116455 -9.75617187 21.75163574 -9.375 21 C-8.63068906 19.48150775 -7.88851221 17.96196764 -7.1484375 16.44140625 C-6.78202148 15.69262207 -6.41560547 14.94383789 -6.03808594 14.17236328 C-3.8221809 9.53522239 -1.91141176 4.76933992 0 0 Z " fill="#5AB332" transform="translate(628,471)"/>
<path d="M0 0 C-1.54403192 4.81482144 -4.29713415 8.20152869 -7.4375 12.0625 C-8.41566357 13.28231239 -9.39353609 14.50235823 -10.37109375 15.72265625 C-10.82983887 16.28871582 -11.28858398 16.85477539 -11.76123047 17.43798828 C-12.79134837 18.7369032 -13.76483714 20.08048422 -14.72265625 21.43359375 C-15.14417969 21.95050781 -15.56570313 22.46742188 -16 23 C-16.66 23 -17.32 23 -18 23 C-17.34 21.35 -16.68 19.7 -16 18 C-15.34 18 -14.68 18 -14 18 C-13.26665571 14.02245872 -13.26665571 14.02245872 -13 10 C-12.68521554 8.66216607 -12.35412344 7.32796291 -12 6 C-11.67 6.33 -11.34 6.66 -11 7 C-9.33382885 7.04063832 -7.66611905 7.042721 -6 7 C-6 6.34 -6 5.68 -6 5 C-5.34 5 -4.68 5 -4 5 C-4.99 3.68 -5.98 2.36 -7 1 C-2.25 0 -2.25 0 0 0 Z " fill="#66B741" transform="translate(575,546)"/>
<path d="M0 0 C0.99 0 1.98 0 3 0 C7.07063514 6.83285184 8.76258253 12.03524914 8 20 C7.34 20 6.68 20 6 20 C6 17.36 6 14.72 6 12 C3.36 11.34 0.72 10.68 -2 10 C-1.67 9.01 -1.34 8.02 -1 7 C-0.34 7 0.32 7 1 7 C0.67 4.69 0.34 2.38 0 0 Z " fill="#61B83E" transform="translate(266,484)"/>
<path d="M0 0 C0.99 0.33 1.98 0.66 3 1 C3 1.99 3 2.98 3 4 C4.32 3.67 5.64 3.34 7 3 C7.33 4.65 7.66 6.3 8 8 C9.4540625 8.433125 9.4540625 8.433125 10.9375 8.875 C14 10 14 10 15 12 C14.01 12.495 14.01 12.495 13 13 C13.99 13.99 14.98 14.98 16 16 C15.34 16.99 14.68 17.98 14 19 C12.49405319 17.38050958 10.99539332 15.75424026 9.5 14.125 C8.6646875 13.22007812 7.829375 12.31515625 6.96875 11.3828125 C5 9 5 9 5 7 C4.34 7 3.68 7 3 7 C1.61061923 5.03852126 0.2739589 3.03833424 -1 1 C-0.67 0.67 -0.34 0.34 0 0 Z " fill="#5EB53A" transform="translate(184,567)"/>
<path d="M0 0 C-2.93969552 2.93969552 -6.43584872 3.77124876 -10.3125 5.125 C-11.07240234 5.40214844 -11.83230469 5.67929687 -12.61523438 5.96484375 C-16.52037185 7.34232925 -19.79513017 8.38607587 -24 8 C-23.67 7.34 -23.34 6.68 -23 6 C-20.9375 5.375 -20.9375 5.375 -19 5 C-19.66 4.34 -20.32 3.68 -21 3 C-17.83899088 1.17462854 -15.25060793 0.64920564 -11.625 0.375 C-10.66207031 0.30152344 -9.69914063 0.22804688 -8.70703125 0.15234375 C-5.79887191 -0.0113189 -2.91210754 -0.07870561 0 0 Z " fill="#5FB13D" transform="translate(591,657)"/>
<path d="M0 0 C0 3 0 3 -1 5 C-0.34 5.33 0.32 5.66 1 6 C-1 8 -1 8 -4 8.375 C-4.99 8.58125 -5.98 8.7875 -7 9 C-8.20003343 10.81601365 -8.20003343 10.81601365 -9 13 C-11 15.25 -11 15.25 -13 17 C-13.66 17 -14.32 17 -15 17 C-15.33 17.66 -15.66 18.32 -16 19 C-16.99 18.67 -17.98 18.34 -19 18 C-16.96150399 15.93428372 -14.9193525 13.87240736 -12.875 11.8125 C-12.02035156 10.9452832 -12.02035156 10.9452832 -11.1484375 10.06054688 C-7.58763899 6.47951655 -3.93039939 3.17179647 0 0 Z " fill="#5EB739" transform="translate(264,96)"/>
<path d="M0 0 C1.89709722 1.42282291 3.79365246 2.8462881 5.6875 4.2734375 C7.2192378 5.41706606 8.76089557 6.54753634 10.3125 7.6640625 C11.034375 8.18742187 11.75625 8.71078125 12.5 9.25 C13.1703125 9.72953125 13.840625 10.2090625 14.53125 10.703125 C15.0159375 11.13109375 15.500625 11.5590625 16 12 C16 12.66 16 13.32 16 14 C12.94152152 14.54372951 10.11227195 15 7 15 C7 14.34 7 13.68 7 13 C6.34 12.67 5.68 12.34 5 12 C5.66 11.01 6.32 10.02 7 9 C6.01 8.34 5.02 7.68 4 7 C4 6.34 4 5.68 4 5 C3.34 5 2.68 5 2 5 C2 4.34 2 3.68 2 3 C1.34 3 0.68 3 0 3 C0 2.01 0 1.02 0 0 Z M3 13 C5 14 5 14 5 14 Z " fill="#65B041" transform="translate(470,105)"/>
<path d="M0 0 C0.66 0.33 1.32 0.66 2 1 C-3.58976118 5.80942415 -9.60161423 9.70298464 -15.9375 13.4375 C-16.69538818 13.88657715 -17.45327637 14.3356543 -18.23413086 14.79833984 C-23.74245009 18 -23.74245009 18 -26 18 C-26 17.34 -26 16.68 -26 16 C-22.32547562 13.1605948 -20.73113419 12 -16 12 C-16 11.34 -16 10.68 -16 10 C-13.55236663 8.02268151 -10.80147163 6.46184705 -8.125 4.8125 C-7.37863281 4.33619141 -6.63226563 3.85988281 -5.86328125 3.36914062 C-5.14785156 2.92376953 -4.43242187 2.47839844 -3.6953125 2.01953125 C-3.03547363 1.60807861 -2.37563477 1.19662598 -1.69580078 0.77270508 C-1.13618652 0.5177124 -0.57657227 0.26271973 0 0 Z " fill="#54B22D" transform="translate(415,263)"/>
<path d="M0 0 C4.19921 1.33022919 5.999133 2.84545282 8.5 6.4375 C11.04371912 9.91076199 13.12362999 12.00308212 17 14 C17 14.66 17 15.32 17 16 C17.804375 16.268125 18.60875 16.53625 19.4375 16.8125 C20.283125 17.204375 21.12875 17.59625 22 18 C22.33 18.99 22.66 19.98 23 21 C15.37735704 21 7.04695861 9.18924085 1.8359375 4.06640625 C0 2 0 2 0 0 Z " fill="#64AC40" transform="translate(78,603)"/>
<path d="M0 0 C0.99 0.33 1.98 0.66 3 1 C3.02718316 3.85423192 3.04692705 6.70820015 3.0625 9.5625 C3.07087891 10.36236328 3.07925781 11.16222656 3.08789062 11.98632812 C3.10742247 16.77163104 2.80437018 21.28145051 2 26 C1.34 25.67 0.68 25.34 0 25 C0 16.75 0 8.5 0 0 Z " fill="#6AAA4C" transform="translate(696,502)"/>
<path d="M0 0 C1.98 0 3.96 0 6 0 C1.85477576 4.16918508 -2.32477039 8.29977919 -6.5625 12.375 C-7.5515332 13.35533203 -7.5515332 13.35533203 -8.56054688 14.35546875 C-9.20185547 14.96777344 -9.84316406 15.58007812 -10.50390625 16.2109375 C-11.07955322 16.77087402 -11.6552002 17.33081055 -12.24829102 17.90771484 C-14 19 -14 19 -16.21850586 18.67431641 C-16.80639893 18.45179199 -17.39429199 18.22926758 -18 18 C-17.67 17.34 -17.34 16.68 -17 16 C-15.68 16 -14.36 16 -13 16 C-13 15.34 -13 14.68 -13 14 C-12.34 14 -11.68 14 -11 14 C-11 13.34 -11 12.68 -11 12 C-10.34 12 -9.68 12 -9 12 C-8.67 11.01 -8.34 10.02 -8 9 C-7.01 8.67 -6.02 8.34 -5 8 C-5 7.34 -5 6.68 -5 6 C-3.625 4.375 -3.625 4.375 -2 3 C-1.34 3 -0.68 3 0 3 C0 2.01 0 1.02 0 0 Z " fill="#5DAE38" transform="translate(226,257)"/>
<path d="M0 0 C6.625 -0.125 6.625 -0.125 10 1 C10 1.66 10 2.32 10 3 C7.58743697 3.72616947 5.17185142 4.4311239 2.75 5.125 C1.72712891 5.43630859 1.72712891 5.43630859 0.68359375 5.75390625 C-4.44396017 7.19758648 -4.44396017 7.19758648 -7.484375 6.1171875 C-7.98453125 5.74851563 -8.4846875 5.37984375 -9 5 C-7.875 3.5 -7.875 3.5 -6 2 C-2.8125 1.8125 -2.8125 1.8125 0 2 C0 1.34 0 0.68 0 0 Z " fill="#61B034" transform="translate(294,168)"/>
<path d="M0 0 C3.51020766 1.17006922 4.10517937 2.14093358 6.25 5.0625 C9.63547353 9.56684005 13.2401311 13.80586053 17 18 C16.01 18.66 15.02 19.32 14 20 C13.01 19.34 12.02 18.68 11 18 C11 17.34 11 16.68 11 16 C10.34 15.67 9.68 15.34 9 15 C8.690625 14.360625 8.38125 13.72125 8.0625 13.0625 C7.04654078 10.68028507 7.04654078 10.68028507 4 9 C3.01 9.495 3.01 9.495 2 10 C2.226875 9.401875 2.45375 8.80375 2.6875 8.1875 C2.790625 7.465625 2.89375 6.74375 3 6 C1.58333333 4.41666667 1.58333333 4.41666667 0 3 C0 2.01 0 1.02 0 0 Z " fill="#61B33B" transform="translate(175,580)"/>
<path d="M0 0 C0.33 0 0.66 0 1 0 C1 3.63 1 7.26 1 11 C0.34 11 -0.32 11 -1 11 C-0.97679687 11.95519531 -0.95359375 12.91039062 -0.9296875 13.89453125 C-0.8185268 21.85840169 -1.18265294 29.19514341 -3 37 C-3.66 36.67 -4.32 36.34 -5 36 C-4.01921797 23.81329911 -2.74812659 11.9268694 0 0 Z " fill="#65AF40" transform="translate(46,450)"/>
<path d="M0 0 C4.49873484 0.53360906 7.15040149 2.24752976 10.75 4.9375 C11.71421875 5.64777344 12.6784375 6.35804688 13.671875 7.08984375 C16 9 16 9 17 11 C13.61811484 10.43635247 11.04530623 9.52265312 8 8 C6.33678518 7.64984951 4.66965451 7.31802943 3 7 C0.99255385 6.35610218 -1.00945124 5.69437747 -3 5 C-0.92446352 4.4465236 0.84365964 4 3 4 C2.01 2.68 1.02 1.36 0 0 Z " fill="#64B33F" transform="translate(188,416)"/>
<path d="M0 0 C0.33 0 0.66 0 1 0 C2.83821805 24.32356389 2.83821805 24.32356389 1 28 C0.34 28 -0.32 28 -1 28 C-1.02898097 23.89584811 -1.0467922 19.79172247 -1.0625 15.6875 C-1.07087891 14.52025391 -1.07925781 13.35300781 -1.08789062 12.15039062 C-1.09111328 11.03212891 -1.09433594 9.91386719 -1.09765625 8.76171875 C-1.10289307 7.73006592 -1.10812988 6.69841309 -1.11352539 5.63549805 C-1 3 -1 3 0 0 Z " fill="#5FB233" transform="translate(218,169)"/>
<path d="M0 0 C0.33 0 0.66 0 1 0 C1 2.31 1 4.62 1 7 C0.34 7 -0.32 7 -1 7 C-1 9.64 -1 12.28 -1 15 C-1.66 15 -2.32 15 -3 15 C-3 16.98 -3 18.96 -3 21 C-3.66 21 -4.32 21 -5 21 C-4.67 22.98 -4.34 24.96 -4 27 C-4.66 27.33 -5.32 27.66 -6 28 C-7.13350534 30.01669827 -7.13350534 30.01669827 -8 32 C-8.66 31.34 -9.32 30.68 -10 30 C-9.61328125 29.00742187 -9.2265625 28.01484375 -8.828125 26.9921875 C-5.40283011 18.09302908 -2.45020734 9.22431 0 0 Z " fill="#5FB131" transform="translate(468,563)"/>
<path d="M0 0 C0.81791016 0.09990234 1.63582031 0.19980469 2.47851562 0.30273438 C4.46599254 0.54681049 6.45193534 0.80332705 8.4375 1.0625 C8.4375 1.7225 8.4375 2.3825 8.4375 3.0625 C4.4775 2.7325 0.5175 2.4025 -3.5625 2.0625 C-3.5625 2.7225 -3.5625 3.3825 -3.5625 4.0625 C-10.9875 3.0725 -10.9875 3.0725 -18.5625 2.0625 C-18.5625 1.4025 -18.5625 0.7425 -18.5625 0.0625 C-12.11234771 -0.86079507 -6.44443643 -0.85395413 0 0 Z " fill="#69B83A" transform="translate(587.5625,394.9375)"/>
<path d="M0 0 C0.99 0 1.98 0 3 0 C3 7.59 3 15.18 3 23 C2.01 22.67 1.02 22.34 0 22 C0 14.74 0 7.48 0 0 Z " fill="#5BB645" transform="translate(595,372)"/>
<path d="M0 0 C0.495 0.639375 0.99 1.27875 1.5 1.9375 C3.64388209 4.56375556 5.79715453 7.17316397 8 9.75 C8.66 10.52859375 9.32 11.3071875 10 12.109375 C12.07178524 14.06785948 13.21698993 14.62727544 16 15 C16 15.99 16 16.98 16 18 C17.32 18.33 18.64 18.66 20 19 C17 20 17 20 14.3125 19.0625 C8.54665417 15.47244505 2.80267135 10.30601053 0 4 C0 2.68 0 1.36 0 0 Z " fill="#5FB238" transform="translate(165,283)"/>
<path d="M0 0 C1.98 0 3.96 0 6 0 C4.30172081 3.39655838 0.35069769 3.90662542 -3.0625 5.125 C-3.82111328 5.40214844 -4.57972656 5.67929688 -5.36132812 5.96484375 C-7.23856568 6.64962223 -9.11899554 7.32563763 -11 8 C-11.99 7.01 -12.98 6.02 -14 5 C-13.01 5 -12.02 5 -11 5 C-10.67 4.34 -10.34 3.68 -10 3 C-11.32 2.67 -12.64 2.34 -14 2 C-12.04235617 1.80543295 -10.08384679 1.61955753 -8.125 1.4375 C-6.48917969 1.28087891 -6.48917969 1.28087891 -4.8203125 1.12109375 C-2 1 -2 1 0 2 C0 1.34 0 0.68 0 0 Z " fill="#65B33C" transform="translate(256,183)"/>
<path d="M0 0 C5.75 -0.125 5.75 -0.125 8 1 C8 1.66 8 2.32 8 3 C10.31 3.33 12.62 3.66 15 4 C15 3.34 15 2.68 15 2 C17.96175123 2.61277612 19.38058783 3.25372522 22 5 C22.33 5.99 22.66 6.98 23 8 C21.68 8 20.36 8 19 8 C19 7.34 19 6.68 19 6 C17.72769531 6.33837891 17.72769531 6.33837891 16.4296875 6.68359375 C12.12767879 7.0804761 9.96129763 5.98064882 6.125 4.0625 C4.97257812 3.49660156 3.82015625 2.93070313 2.6328125 2.34765625 C1.76398438 1.90292969 0.89515625 1.45820312 0 1 C0 0.67 0 0.34 0 0 Z " fill="#60B63C" transform="translate(273,640)"/>
<path d="M0 0 C0.66 0 1.32 0 2 0 C1.835 0.495 1.67 0.99 1.5 1.5 C1.03771557 3.81142214 0.96547509 5.71912142 1 8.0625 C1 12 1 12 0 15 C-1.65 15.33 -3.3 15.66 -5 16 C-5.33 15.34 -5.66 14.68 -6 14 C-5.09176973 11.56442428 -4.13171929 9.23804483 -3.0625 6.875 C-2.77181641 6.21628906 -2.48113281 5.55757813 -2.18164062 4.87890625 C-1.46139802 3.24950495 -0.73158857 1.62433868 0 0 Z " fill="#5FB437" transform="translate(63,400)"/>
<path d="M0 0 C0.66 0 1.32 0 2 0 C2.70149608 2.87222001 3.38645333 5.74678151 4.0625 8.625 C4.36124023 9.83736328 4.36124023 9.83736328 4.66601562 11.07421875 C5.74292002 15.7219114 6.21667865 19.27102259 5 24 C0.32376412 16.98564618 -0.41199432 8.23988631 0 0 Z " fill="#63AF3A" transform="translate(129,483)"/>
<path d="M0 0 C-1 3 -1 3 -2.671875 4.2421875 C-5.8192213 5.26665928 -8.0200261 4.75695142 -11.25 4.125 C-12.86648438 3.81949219 -12.86648438 3.81949219 -14.515625 3.5078125 C-15.74539063 3.25644531 -15.74539063 3.25644531 -17 3 C-12.05861701 -1.94138299 -6.34133545 -1.04279739 0 0 Z " fill="#61B53F" transform="translate(312,184)"/>
<path d="M0 0 C9.17286652 1.33041575 9.17286652 1.33041575 12.625 4.125 C13.07875 4.74375 13.5325 5.3625 14 6 C13.34 7.32 12.68 8.64 12 10 C8.34683329 8.75023244 7.21934164 8.32901247 5 5 C5 4.01 5 3.02 5 2 C3.02 2 1.04 2 -1 2 C-0.67 1.34 -0.34 0.68 0 0 Z " fill="#5BB838" transform="translate(323,627)"/>
<path d="M0 0 C3.98882376 1.53416298 7.64783382 4.4247074 10 8 C9.66796875 10.1953125 9.66796875 10.1953125 9 12 C7.02 12 5.04 12 3 12 C3 11.01 3 10.02 3 9 C3.66 8.67 4.32 8.34 5 8 C4.34 7.67 3.68 7.34 3 7 C3 6.01 3 5.02 3 4 C2.01 4 1.02 4 0 4 C0 2.68 0 1.36 0 0 Z " fill="#66B13E" transform="translate(221,630)"/>
<path d="M0 0 C14.19 0 28.38 0 43 0 C43 0.33 43 0.66 43 1 C33.43 1.33 23.86 1.66 14 2 C14 2.33 14 2.66 14 3 C12.02 3 10.04 3 8 3 C8 2.67 8 2.34 8 2 C5.36 1.67 2.72 1.34 0 1 C0 0.67 0 0.34 0 0 Z " fill="#6EA253" transform="translate(479,672)"/>
<path d="M0 0 C6.93 0 13.86 0 21 0 C21 0.33 21 0.66 21 1 C23.97 1.33 26.94 1.66 30 2 C26.61655291 4.25563139 25.94173899 4.18225228 22.0703125 3.79296875 C21.10996094 3.70080078 20.14960938 3.60863281 19.16015625 3.51367188 C18.15855469 3.40603516 17.15695312 3.29839844 16.125 3.1875 C15.13113281 3.09146484 14.13726562 2.99542969 13.11328125 2.89648438 C8.68199628 2.4545423 4.3594643 1.92620269 0 1 C0 0.67 0 0.34 0 0 Z " fill="#57AF28" transform="translate(459,671)"/>
<path d="M0 0 C0.66 0 1.32 0 2 0 C2 0.66 2 1.32 2 2 C2.66 2 3.32 2 4 2 C4.28875 2.94875 4.5775 3.8975 4.875 4.875 C5.76825109 8.05211578 5.76825109 8.05211578 8 10 C7.67 10.66 7.34 11.32 7 12 C8.65 12 10.3 12 12 12 C11.67 13.65 11.34 15.3 11 17 C10.34 17 9.68 17 9 17 C7.17220002 14.76470988 5.48118887 12.5366251 3.8125 10.1875 C3.33619141 9.54490234 2.85988281 8.90230469 2.36914062 8.24023438 C1.16014439 6.55183876 0.07084809 4.77922343 -1 3 C-0.67 2.01 -0.34 1.02 0 0 Z " fill="#5EB530" transform="translate(168,544)"/>
<path d="M0 0 C0.12375 0.598125 0.2475 1.19625 0.375 1.8125 C0.95475985 4.26231348 0.95475985 4.26231348 3 7 C2.34 7.66 1.68 8.32 1 9 C0.01 9 -0.98 9 -2 9 C-2 10.32 -2 11.64 -2 13 C-3.32 13.33 -4.64 13.66 -6 14 C-6.36539443 9.71422781 -5.48423598 7.65507938 -3 4.1875 C-2.1646875 3.00220703 -2.1646875 3.00220703 -1.3125 1.79296875 C-0.879375 1.20128906 -0.44625 0.60960937 0 0 Z " fill="#5DBA3D" transform="translate(604,521)"/>
<path d="M0 0 C2.64 0 5.28 0 8 0 C8 0.99 8 1.98 8 3 C11.96 3 15.92 3 20 3 C19.01 3.33 18.02 3.66 17 4 C16.67 4.66 16.34 5.32 16 6 C7.585 4.515 7.585 4.515 -1 3 C-0.67 2.01 -0.34 1.02 0 0 Z " fill="#52B531" transform="translate(152,648)"/>
<path d="M0 0 C1.32 0.66 2.64 1.32 4 2 C2.68 2.33 1.36 2.66 0 3 C0 3.66 0 4.32 0 5 C0.99 5.33 1.98 5.66 3 6 C1.35 6.33 -0.3 6.66 -2 7 C-1.67 10.96 -1.34 14.92 -1 19 C-1.66 19 -2.32 19 -3 19 C-3.96149254 14.1925373 -4.38713141 9.87785576 -4 5 C-2 2 -2 2 0 0 Z " fill="#60AC3D" transform="translate(594,319)"/>
<path d="M0 0 C0.33 1.65 0.66 3.3 1 5 C1.33 5 1.66 5 2 5 C1.67 9.29 1.34 13.58 1 18 C0.34 18 -0.32 18 -1 18 C-1 16.02 -1 14.04 -1 12 C-1.66 12 -2.32 12 -3 12 C-3.33 8.37 -3.66 4.74 -4 1 C-1 0 -1 0 0 0 Z " fill="#62B539" transform="translate(45,504)"/>
<path d="M0 0 C0.99 0.33 1.98 0.66 3 1 C1.90452297 3.60813572 0.79912395 6.21125522 -0.3125 8.8125 C-0.7755957 9.91948242 -0.7755957 9.91948242 -1.24804688 11.04882812 C-1.55419922 11.76103516 -1.86035156 12.47324219 -2.17578125 13.20703125 C-2.45333252 13.8616333 -2.73088379 14.51623535 -3.0168457 15.19067383 C-4.09309472 17.1713248 -5.34093332 18.48822407 -7 20 C-7 15.80434426 -6.2710189 13.96913969 -4.5 10.25 C-4.0359375 9.26515625 -3.571875 8.2803125 -3.09375 7.265625 C-2.7328125 6.51796875 -2.371875 5.7703125 -2 5 C-1.34 5 -0.68 5 0 5 C0 3.35 0 1.7 0 0 Z " fill="#5AAF37" transform="translate(279,583)"/>
<path d="M0 0 C0.33 0 0.66 0 1 0 C1.33266291 6.20970773 0.45029331 10.28264895 -2 16 C-2.66 16 -3.32 16 -4 16 C-5.1233244 12.71643636 -5.24383906 10.61141735 -3.953125 7.375 C-2.69157319 4.88024586 -1.38639349 2.42738791 0 0 Z " fill="#65B139" transform="translate(613,464)"/>
<path d="M0 0 C0.33 0 0.66 0 1 0 C1.38999191 7.59762024 0.60758587 13.84466021 -2 21 C-2.99 20.67 -3.98 20.34 -5 20 C-5 18.02 -5 16.04 -5 14 C-4.34 13.67 -3.68 13.34 -3 13 C-1.27293636 8.7331369 -0.54676783 4.55639859 0 0 Z " fill="#61B13E" transform="translate(621,435)"/>
<path d="M0 0 C0.33 0.99 0.66 1.98 1 3 C-0.546875 5.4453125 -0.546875 5.4453125 -2.75 8.125 C-3.46671875 9.01445312 -4.1834375 9.90390625 -4.921875 10.8203125 C-7 13 -7 13 -10 14 C-10.33 13.01 -10.66 12.02 -11 11 C-11.66 10.67 -12.32 10.34 -13 10 C-13 10.66 -13 11.32 -13 12 C-13.66 12 -14.32 12 -15 12 C-15 10.68 -15 9.36 -15 8 C-12.69 8.66 -10.38 9.32 -8 10 C-5.02324541 6.90672105 -5.02324541 6.90672105 -4 3 C-2 1.375 -2 1.375 0 0 Z " fill="#5CAE33" transform="translate(197,288)"/>
<path d="M0 0 C0.66 0 1.32 0 2 0 C2.86883706 1.57533086 3.71959068 3.16064509 4.5625 4.75 C5.03816406 5.63171875 5.51382813 6.5134375 6.00390625 7.421875 C7.07998186 10.20701188 7.06528748 11.26980214 6 14 C5.67 13.34 5.34 12.68 5 12 C4.34 12 3.68 12 3 12 C2.67 12.66 2.34 13.32 2 14 C0.66416101 9.15758367 -0.25328119 5.06562383 0 0 Z " fill="#5CBA3D" transform="translate(545,194)"/>
<path d="M0 0 C0.66 0 1.32 0 2 0 C3.0448029 3.13440869 3.15317663 4.02096037 2 7 C1.01 7.66 0.02 8.32 -1 9 C-1.25030977 11.58380177 -1.25030977 11.58380177 -1 14 C-2.98 14 -4.96 14 -7 14 C-4.69 9.38 -2.38 4.76 0 0 Z " fill="#61B22E" transform="translate(613,504)"/>
<path d="M0 0 C5.32405622 2.6734043 9.63843559 4.8845759 13 10 C12.01 10.33 11.02 10.66 10 11 C9.4225 10.175 8.845 9.35 8.25 8.5 C7.5075 7.675 6.765 6.85 6 6 C4.68 6 3.36 6 2 6 C2 6.66 2 7.32 2 8 C1.34 7.67 0.68 7.34 0 7 C0 6.01 0 5.02 0 4 C-0.66 3.67 -1.32 3.34 -2 3 C-1.34 3 -0.68 3 0 3 C0 2.01 0 1.02 0 0 Z " fill="#67AD35" transform="translate(215,432)"/>
<path d="M0 0 C2.52090778 -0.0272367 5.04151457 -0.04695207 7.5625 -0.0625 C8.61920898 -0.07506836 8.61920898 -0.07506836 9.69726562 -0.08789062 C14.24024798 -0.10882603 18.51784892 0.25199318 23 1 C23 1.33 23 1.66 23 2 C14.88611956 3.21521251 7.14648632 2.76299944 -1 2 C-0.67 1.34 -0.34 0.68 0 0 Z " fill="#57B031" transform="translate(373,161)"/>
<path d="M0 0 C0.66 0 1.32 0 2 0 C2.33 0.99 2.66 1.98 3 3 C1.56640625 5.26171875 1.56640625 5.26171875 -0.4375 7.6875 C-1.09621094 8.49574219 -1.75492188 9.30398438 -2.43359375 10.13671875 C-3.20896484 11.05904297 -3.20896484 11.05904297 -4 12 C-4.33 11.01 -4.66 10.02 -5 9 C-5.66 9 -6.32 9 -7 9 C-6.875 7.1875 -6.875 7.1875 -6 5 C-2.9375 3.25 -2.9375 3.25 0 2 C0 1.34 0 0.68 0 0 Z " fill="#62B037" transform="translate(666,597)"/>
<path d="M0 0 C1.71039758 3.30889999 3.18242836 6.69151077 4.625 10.125 C5.07101563 11.17945313 5.51703125 12.23390625 5.9765625 13.3203125 C7 16 7 16 7 18 C6.01 18 5.02 18 4 18 C3.13237686 15.75438718 2.2807897 13.50473745 1.4375 11.25 C1.19064453 10.61578125 0.94378906 9.9815625 0.68945312 9.328125 C-0.58197079 5.88990821 -1.46686355 3.47831118 0 0 Z " fill="#64A644" transform="translate(132,470)"/>
<path d="M0 0 C3 3.20689655 3 3.20689655 3 6 C0.83125748 5.49396008 -0.99967627 5.00016187 -3 4 C-3.33 4.99 -3.66 5.98 -4 7 C-5.74627478 4.38058783 -6.38722388 2.96175123 -7 0 C-4.24438552 -1.37780724 -2.90228766 -0.92023755 0 0 Z " fill="#62B53D" transform="translate(255,465)"/>
<path d="M0 0 C0.66 1.32 1.32 2.64 2 4 C1.01 4.33 0.02 4.66 -1 5 C-1.39044206 6.31774196 -1.70955086 7.65667272 -2 9 C-2.96887581 11.01526169 -3.9641321 13.01833966 -5 15 C-5.66 14.67 -6.32 14.34 -7 14 C-6.54738642 12.56068883 -6.08767021 11.12361001 -5.625 9.6875 C-5.36976563 8.88699219 -5.11453125 8.08648437 -4.8515625 7.26171875 C-4 5 -4 5 -2 2 C-1.34 2 -0.68 2 0 2 C0 1.34 0 0.68 0 0 Z " fill="#5FAF39" transform="translate(230,138)"/>
<path d="M0 0 C6.93 0.33 13.86 0.66 21 1 C21 1.33 21 1.66 21 2 C15.39 2.66 9.78 3.32 4 4 C4 3.34 4 2.68 4 2 C2.68 2 1.36 2 0 2 C0 1.34 0 0.68 0 0 Z " fill="#57B52B" transform="translate(520,670)"/>
<path d="M0 0 C3.85296671 0.39858276 5.35428983 2.35428983 8 5 C10.1381966 5.7872678 10.1381966 5.7872678 12 6 C11.67 7.32 11.34 8.64 11 10 C6.18966896 7.45335415 2.67557852 5.00972202 -1 1 C-0.67 0.67 -0.34 0.34 0 0 Z " fill="#5EB43B" transform="translate(220,605)"/>
<path d="M0 0 C0.99 0.495 0.99 0.495 2 1 C3.06632314 5.46648561 3.10565959 9.80008379 3.0625 14.375 C3.05347656 15.62023437 3.04445313 16.86546875 3.03515625 18.1484375 C3.02355469 19.08945312 3.01195312 20.03046875 3 21 C2.67 21 2.34 21 2 21 C2 18.69 2 16.38 2 14 C1.34 14 0.68 14 0 14 C0 9.38 0 4.76 0 0 Z " fill="#6CAF47" transform="translate(624,351)"/>
<path d="M0 0 C2.64 0 5.28 0 8 0 C8.33 0.66 8.66 1.32 9 2 C-0.87982716 4.30338938 -10.00335328 3.87648324 -20 3 C-20 2.67 -20 2.34 -20 2 C-13.4 2 -6.8 2 0 2 C0 1.34 0 0.68 0 0 Z " fill="#54AF26" transform="translate(348,291)"/>
<path d="M0 0 C-0.33 1.98 -0.66 3.96 -1 6 C-1.515625 5.79375 -2.03125 5.5875 -2.5625 5.375 C-6.03265671 4.84112974 -8.70635791 5.92323239 -12 7 C-12 6.34 -12 5.68 -12 5 C-10.390625 3.7109375 -10.390625 3.7109375 -8.25 2.375 C-7.55390625 1.92898437 -6.8578125 1.48296875 -6.140625 1.0234375 C-4 0 -4 0 0 0 Z " fill="#68B540" transform="translate(280,88)"/>
<path d="M0 0 C3.3 0 6.6 0 10 0 C10 0.33 10 0.66 10 1 C13.63 1.33 17.26 1.66 21 2 C20.01 3.485 20.01 3.485 19 5 C16.20645432 4.55135776 13.41555328 4.09158769 10.625 3.625 C9.8309375 3.49867188 9.036875 3.37234375 8.21875 3.2421875 C7.45820313 3.11328125 6.69765625 2.984375 5.9140625 2.8515625 C5.2123291 2.73635254 4.5105957 2.62114258 3.78759766 2.50244141 C2 2 2 2 0 0 Z " fill="#54B12F" transform="translate(438,667)"/>
<path d="M0 0 C4.571279 0.54855348 8.67435795 1.41744803 13 3 C12 6 12 6 10 7 C8.00039988 7.039992 5.99952758 7.04346799 4 7 C4.99 6.34 5.98 5.68 7 5 C6.01 5 5.02 5 4 5 C4 4.34 4 3.68 4 3 C2.68 2.34 1.36 1.68 0 1 C0 0.67 0 0.34 0 0 Z " fill="#5BB737" transform="translate(308,622)"/>
<path d="M0 0 C0.99 0.33 1.98 0.66 3 1 C3 2.65 3 4.3 3 6 C-0.08809695 7.76462683 -1.23312136 8 -5 8 C-5 4 -5 4 -2.6875 1.6875 C-1.800625 1.130625 -0.91375 0.57375 0 0 Z " fill="#65B33F" transform="translate(221,224)"/>
<path d="M0 0 C2.47186455 2.96346786 3.66248361 5.54041689 4.6875 9.25 C4.93886719 10.14203125 5.19023437 11.0340625 5.44921875 11.953125 C5.72185547 12.96632813 5.72185547 12.96632813 6 14 C5.01 14.495 5.01 14.495 4 15 C3.67 14.01 3.34 13.02 3 12 C2.34 12 1.68 12 1 12 C0.36605303 7.95858806 -0.12404452 4.0934693 0 0 Z " fill="#5AB837" transform="translate(275,498)"/>
<path d="M0 0 C10.59628378 6.92567568 10.59628378 6.92567568 14 10 C14 10.66 14 11.32 14 12 C9.97855708 10.62121957 7.26938665 8.68257366 4 6 C3.2575 5.649375 2.515 5.29875 1.75 4.9375 C0 4 0 4 -1 1 C-0.67 0.67 -0.34 0.34 0 0 Z " fill="#5DAB43" transform="translate(648,412)"/>
<path d="M0 0 C2.73905337 3.15178744 3.55269393 5.64817614 4.1875 9.75 C4.34605469 10.73484375 4.50460937 11.7196875 4.66796875 12.734375 C4.77753906 13.48203125 4.88710938 14.2296875 5 15 C3.68 15.33 2.36 15.66 1 16 C1.02320313 15.32453125 1.04640625 14.6490625 1.0703125 13.953125 C1.09738281 12.61507813 1.09738281 12.61507813 1.125 11.25 C1.15980469 9.92742187 1.15980469 9.92742187 1.1953125 8.578125 C0.9902402 5.87117062 0.228275 4.37397689 -1 2 C-0.67 1.34 -0.34 0.68 0 0 Z " fill="#59B835" transform="translate(619,320)"/>
<path d="M0 0 C0.99 0.99 1.98 1.98 3 3 C2.67 3.99 2.34 4.98 2 6 C1.01 6.33 0.02 6.66 -1 7 C-1.33 7.66 -1.66 8.32 -2 9 C-1.34 9.33 -0.68 9.66 0 10 C0 10.66 0 11.32 0 12 C-0.66 12 -1.32 12 -2 12 C-2.33 12.66 -2.66 13.32 -3 14 C-4.3125 10.9375 -4.3125 10.9375 -5 7 C-3.70522987 4.3279246 -1.98704538 2.19375144 0 0 Z " fill="#5EB83C" transform="translate(240,120)"/>
<path d="M0 0 C0.99 0 1.98 0 3 0 C3.31898502 2.95061143 3.4433581 4.44098326 1.5625 6.8125 C-2.24369483 8.57634638 -5.87178296 8.23816637 -10 8 C-10 7.34 -10 6.68 -10 6 C-7.03 6 -4.06 6 -1 6 C-0.67 4.02 -0.34 2.04 0 0 Z " fill="#57B12A" transform="translate(329,651)"/>
<path d="M0 0 C0.99 0.33 1.98 0.66 3 1 C1.68 2.32 0.36 3.64 -1 5 C-0.67 5.66 -0.34 6.32 0 7 C-0.61875 7.103125 -1.2375 7.20625 -1.875 7.3125 C-4.36526484 7.87525373 -4.36526484 7.87525373 -6 11 C-7.32 10.67 -8.64 10.34 -10 10 C-9.01 9.67 -8.02 9.34 -7 9 C-7 8.34 -7 7.68 -7 7 C-6.34 7 -5.68 7 -5 7 C-4.731875 6.401875 -4.46375 5.80375 -4.1875 5.1875 C-3.01506533 3.02775192 -1.80630718 1.64209744 0 0 Z " fill="#5AB532" transform="translate(435,632)"/>
<path d="M0 0 C7.92 3.96 7.92 3.96 16 8 C16 8.33 16 8.66 16 9 C9.18479548 8.70368676 4.61649218 5.69535803 -1 2 C-0.67 1.34 -0.34 0.68 0 0 Z " fill="#5FB034" transform="translate(277,606)"/>
<path d="M0 0 C-1.34929464 3.83663072 -3.07751025 6.65172569 -5.625 9.8125 C-6.25664063 10.60269531 -6.88828125 11.39289062 -7.5390625 12.20703125 C-8.02117188 12.79871094 -8.50328125 13.39039063 -9 14 C-9.61328125 12.171875 -9.61328125 12.171875 -10 10 C-8.1875 7.25 -8.1875 7.25 -6 5 C-5.34 5 -4.68 5 -4 5 C-4.99 3.68 -5.98 2.36 -7 1 C-2.25 0 -2.25 0 0 0 Z " fill="#56B134" transform="translate(575,546)"/>
<path d="M0 0 C1.4370809 -0.05422947 2.87475462 -0.09289723 4.3125 -0.125 C5.11300781 -0.14820313 5.91351563 -0.17140625 6.73828125 -0.1953125 C9 0 9 0 12 2 C7.22426677 4.61895048 3.15565119 3.83119431 -2 3 C-1.34 2.67 -0.68 2.34 0 2 C0 1.34 0 0.68 0 0 Z " fill="#61B13B" transform="translate(354,288)"/>
<path d="M0 0 C0.99 0.33 1.98 0.66 3 1 C3 1.99 3 2.98 3 4 C3.99 3.67 4.98 3.34 6 3 C6.67094978 4.34189957 7.31667586 5.69668689 7.9375 7.0625 C8.84979181 9.16206673 8.84979181 9.16206673 11 10 C11 10.99 11 11.98 11 13 C7.33213607 11.49650623 5.31089607 9.36271208 2.75 6.375 C2.04359375 5.55773437 1.3371875 4.74046875 0.609375 3.8984375 C0.07828125 3.27195312 -0.4528125 2.64546875 -1 2 C-0.67 1.34 -0.34 0.68 0 0 Z " fill="#4DBF2F" transform="translate(240,255)"/>
<path d="M0 0 C0 0.66 0 1.32 0 2 C0.99 2.33 1.98 2.66 3 3 C3 3.66 3 4.32 3 5 C-0.28696233 5.79953138 -1.71023192 6.09658936 -5 5 C-5.33 5.66 -5.66 6.32 -6 7 C-6.33 6.01 -6.66 5.02 -7 4 C-4.83989616 0.75984424 -3.8842653 0 0 0 Z " fill="#64B53A" transform="translate(100,346)"/>
<path d="M0 0 C1.32 0.99 2.64 1.98 4 3 C2.26041859 4.20271059 0.50790255 5.3867301 -1.25 6.5625 C-2.71179688 7.55443359 -2.71179688 7.55443359 -4.203125 8.56640625 C-7 10 -7 10 -9.359375 9.71484375 C-9.90078125 9.47894531 -10.4421875 9.24304688 -11 9 C-3.5 4 -3.5 4 -1 4 C-0.67 2.68 -0.34 1.36 0 0 Z " fill="#5EB13C" transform="translate(614,641)"/>
<path d="M0 0 C5.45479185 0.56820748 9.91059256 1.94637945 15 4 C14.34 4.66 13.68 5.32 13 6 C10.9765625 5.828125 10.9765625 5.828125 8.625 5.25 C7.46871094 4.97929688 7.46871094 4.97929688 6.2890625 4.703125 C4.03346881 4.01028052 2.07371618 3.11734479 0 2 C0 1.34 0 0.68 0 0 Z " fill="#59B13B" transform="translate(297,649)"/>
<path d="M0 0 C1.33333333 0 2.66666667 0 4 0 C4.042721 1.66611905 4.04063832 3.33382885 4 5 C3.67 5.33 3.34 5.66 3 6 C3.061875 7.4540625 3.061875 7.4540625 3.125 8.9375 C3.08375 9.948125 3.0425 10.95875 3 12 C2.01 12.66 1.02 13.32 0 14 C0 9.38 0 4.76 0 0 Z " fill="#52B029" transform="translate(127,464)"/>
<path d="M0 0 C1.32 0.66 2.64 1.32 4 2 C3.67 4.31 3.34 6.62 3 9 C1.68 8.67 0.36 8.34 -1 8 C-1.625 5.6875 -1.625 5.6875 -2 3 C-1.34 2.01 -0.68 1.02 0 0 Z " fill="#63B83C" transform="translate(179,263)"/>
<path d="M0 0 C0.99 0 1.98 0 3 0 C3 0.66 3 1.32 3 2 C3.78375 1.79375 4.5675 1.5875 5.375 1.375 C6.674375 1.189375 6.674375 1.189375 8 1 C10 3 10 3 10 6 C10.66 6.33 11.32 6.66 12 7 C7.24518354 6.42365861 4.02951788 4.44931479 0 2 C0 1.34 0 0.68 0 0 Z " fill="#5FB235" transform="translate(244,623)"/>
<path d="M0 0 C0.12375 0.639375 0.2475 1.27875 0.375 1.9375 C0.684375 2.9584375 0.684375 2.9584375 1 4 C1.66 4.33 2.32 4.66 3 5 C1.68 5 0.36 5 -1 5 C-0.896875 5.721875 -0.79375 6.44375 -0.6875 7.1875 C-1.12449065 11.12041589 -3.10082197 12.46321923 -6 15 C-5.54979057 9.14727744 -2.96160773 4.91779881 0 0 Z " fill="#60B235" transform="translate(452,606)"/>
<path d="M0 0 C0.33 0.99 0.66 1.98 1 3 C1.66 3 2.32 3 3 3 C4.125 5.8125 4.125 5.8125 5 9 C4.01 10.485 4.01 10.485 3 12 C2.16151196 10.54462432 1.32936066 9.08559627 0.5 7.625 C-0.19609375 6.40683594 -0.19609375 6.40683594 -0.90625 5.1640625 C-2 3 -2 3 -2 1 C-1.34 0.67 -0.68 0.34 0 0 Z " fill="#64B63C" transform="translate(61,573)"/>
<path d="M0 0 C2.50777727 3.76166591 2.2934072 5.52554027 2 10 C1.44938665 12.71509341 0.74975688 15.32899112 0 18 C-0.66 18 -1.32 18 -2 18 C-2 16.35 -2 14.7 -2 13 C-1.34 13 -0.68 13 0 13 C-0.12568359 11.84371094 -0.12568359 11.84371094 -0.25390625 10.6640625 C-0.35574219 9.66117188 -0.45757812 8.65828125 -0.5625 7.625 C-0.66691406 6.62726562 -0.77132813 5.62953125 -0.87890625 4.6015625 C-1 2 -1 2 0 0 Z " fill="#5DB834" transform="translate(283,564)"/>
<path d="M0 0 C0.66 0.33 1.32 0.66 2 1 C2 1.66 2 2.32 2 3 C-3.47619048 8 -3.47619048 8 -6 8 C-6 8.66 -6 9.32 -6 10 C-7.32 9.67 -8.64 9.34 -10 9 C-6.7 6.03 -3.4 3.06 0 0 Z " fill="#5EAC34" transform="translate(524,417)"/>
<path d="M0 0 C0 0.66 0 1.32 0 2 C-6.93 4.97 -6.93 4.97 -14 8 C-14.66 7.34 -15.32 6.68 -16 6 C-5.8 0 -5.8 0 0 0 Z " fill="#53B32D" transform="translate(468,233)"/>
<path d="M0 0 C5.28 0 10.56 0 16 0 C15.67 0.66 15.34 1.32 15 2 C12.28553021 2.31241455 9.66090639 2.51336592 6.9375 2.625 C6.17888672 2.66367188 5.42027344 2.70234375 4.63867188 2.7421875 C2.75952805 2.83673562 0.87979664 2.91946756 -1 3 C-0.67 2.01 -0.34 1.02 0 0 Z " fill="#4BB425" transform="translate(502,223)"/>
<path d="M0 0 C0 0.66 0 1.32 0 2 C-1.26691507 2.67408308 -2.53870749 3.33900497 -3.8125 4 C-4.52019531 4.37125 -5.22789062 4.7425 -5.95703125 5.125 C-8 6 -8 6 -11 6 C-11 4 -11 4 -9.4375 1.875 C-6.19346756 -0.62040957 -3.9901641 -0.3069357 0 0 Z " fill="#61B03B" transform="translate(236,193)"/>
<path d="M0 0 C0.33 0.66 0.66 1.32 1 2 C3.31 2 5.62 2 8 2 C7.67 2.66 7.34 3.32 7 4 C5.41676312 4.027193 3.83338938 4.04648306 2.25 4.0625 C0.92742187 4.07990234 0.92742187 4.07990234 -0.421875 4.09765625 C-2.7818838 4.00826198 -4.74498524 3.66912821 -7 3 C-7 2.34 -7 1.68 -7 1 C-3.535 0.505 -3.535 0.505 0 0 Z " fill="#59BC32" transform="translate(335,66)"/>
<path d="M0 0 C0.33 0.99 0.66 1.98 1 3 C1.66 3 2.32 3 3 3 C3.33 2.34 3.66 1.68 4 1 C6.125 5.625 6.125 5.625 5 9 C5.66 9 6.32 9 7 9 C6.67 10.32 6.34 11.64 6 13 C4.98868775 11.59138651 3.99133233 10.17274547 3 8.75 C2.1646875 7.56664062 2.1646875 7.56664062 1.3125 6.359375 C0 4 0 4 0 0 Z " fill="#5EB036" transform="translate(160,532)"/>
<path d="M0 0 C0.66 0.66 1.32 1.32 2 2 C1.63369992 7.67765131 1.13642256 11.86357744 -3 16 C-2.40984815 10.49191603 -1.43336231 5.35121931 0 0 Z " fill="#5EAE35" transform="translate(645,414)"/>
<path d="M0 0 C0.33 3.3 0.66 6.6 1 10 C0.01 9.67 -0.98 9.34 -2 9 C-2 6.69 -2 4.38 -2 2 C-2.33 2.99 -2.66 3.98 -3 5 C-4.32 4.34 -5.64 3.68 -7 3 C-4.49955934 -0.00052879 -4.2621484 0 0 0 Z " fill="#4BBC2A" transform="translate(131,311)"/>
<path d="M0 0 C0.58265625 0.22300781 1.1653125 0.44601562 1.765625 0.67578125 C1.105625 0.67578125 0.445625 0.67578125 -0.234375 0.67578125 C-0.234375 1.33578125 -0.234375 1.99578125 -0.234375 2.67578125 C-1.224375 3.33578125 -2.214375 3.99578125 -3.234375 4.67578125 C-4.42670113 6.7258208 -4.42670113 6.7258208 -5.234375 8.67578125 C-6.554375 8.34578125 -7.874375 8.01578125 -9.234375 7.67578125 C-9.234375 5.67578125 -9.234375 5.67578125 -7.84375 4.1328125 C-6.92335938 3.31876953 -6.92335938 3.31876953 -5.984375 2.48828125 C-5.38109375 1.93785156 -4.7778125 1.38742187 -4.15625 0.8203125 C-2.234375 -0.32421875 -2.234375 -0.32421875 0 0 Z " fill="#68B23D" transform="translate(426.234375,643.32421875)"/>
<path d="M0 0 C0.66 0 1.32 0 2 0 C2.66 4.95 3.32 9.9 4 15 C3.01 15.495 3.01 15.495 2 16 C0.40837921 10.42932723 -0.20674944 5.78898419 0 0 Z " fill="#5DB339" transform="translate(695,488)"/>
<path d="M0 0 C0.99 0.33 1.98 0.66 3 1 C2.34 1 1.68 1 1 1 C0.73445312 1.58265625 0.46890625 2.1653125 0.1953125 2.765625 C-1.03302996 5.06174228 -2.40314939 6.80356018 -4.125 8.75 C-4.93324219 9.67039062 -4.93324219 9.67039062 -5.7578125 10.609375 C-6.16773438 11.06828125 -6.57765625 11.5271875 -7 12 C-7.33 11.01 -7.66 10.02 -8 9 C-5.36 6.03 -2.72 3.06 0 0 Z " fill="#5BB036" transform="translate(512,428)"/>
<path d="M0 0 C0 0.66 0 1.32 0 2 C0.66 2.33 1.32 2.66 2 3 C-1.3 3.66 -4.6 4.32 -8 5 C-8 4.01 -8 3.02 -8 2 C-3.71900826 -1.23966942 -3.71900826 -1.23966942 0 0 Z " fill="#64B043" transform="translate(540,409)"/>
<path d="M0 0 C-3 2 -3 2 -5 2 C-5 2.66 -5 3.32 -5 4 C-7.64 3.67 -10.28 3.34 -13 3 C-9.19777044 -0.80222956 -5.07002404 -1.49118354 0 0 Z " fill="#57B832" transform="translate(311,74)"/>
<path d="M0 0 C0.70125 0.721875 1.4025 1.44375 2.125 2.1875 C4.92770745 4.99823813 7.92262792 7.49516226 11 10 C10.01 10.66 9.02 11.32 8 12 C5.5 10.1875 5.5 10.1875 3 8 C3 7.01 3 6.02 3 5 C2.34 5 1.68 5 1 5 C0.67 3.35 0.34 1.7 0 0 Z " fill="#59B53B" transform="translate(169,396)"/>
<path d="M0 0 C3.82017001 1.50078107 5.75370799 3.59183281 8 7 C8.75 10.3125 8.75 10.3125 9 13 C8.67 12.34 8.34 11.68 8 11 C7.34 11 6.68 11 6 11 C3 6.61538462 3 6.61538462 3 4 C2.34 4 1.68 4 1 4 C0.67 2.68 0.34 1.36 0 0 Z " fill="#5EAE3F" transform="translate(159,386)"/>
<path d="M0 0 C1.32 0 2.64 0 4 0 C4 0.66 4 1.32 4 2 C5.65 2 7.3 2 9 2 C7.68 3.32 6.36 4.64 5 6 C2.69 5.01 0.38 4.02 -2 3 C-1.34 2.01 -0.68 1.02 0 0 Z " fill="#5EB135" transform="translate(273,280)"/>
<path d="M0 0 C0.66 0.33 1.32 0.66 2 1 C2 3.64 2 6.28 2 9 C0.68 9.33 -0.64 9.66 -2 10 C-2.6875 8.375 -2.6875 8.375 -3 6 C-1.5625 2.75 -1.5625 2.75 0 0 Z " fill="#64AF35" transform="translate(618,494)"/>
<path d="M0 0 C2.46528135 0.39064415 3.73307988 0.73239371 5.51953125 2.5234375 C6.15955078 3.43996094 6.15955078 3.43996094 6.8125 4.375 C7.25207031 4.98085938 7.69164062 5.58671875 8.14453125 6.2109375 C9 8 9 8 8 11 C6.5 9.75 6.5 9.75 5 8 C5 6.68 5 5.36 5 4 C3.35 4.33 1.7 4.66 0 5 C0 3.35 0 1.7 0 0 Z " fill="#5BB538" transform="translate(672,436)"/>
<path d="M0 0 C1.04449911 3.13349732 0.93423645 3.98968256 0 7 C-0.66 7 -1.32 7 -2 7 C-2.33 9.31 -2.66 11.62 -3 14 C-3.99 13.67 -4.98 13.34 -6 13 C-4.58707905 8.1725201 -2.57025846 4.2837641 0 0 Z " fill="#60AB39" transform="translate(79,370)"/>
<path d="M0 0 C1.07765625 0.01804687 2.1553125 0.03609375 3.265625 0.0546875 C4.49539063 0.08949219 4.49539063 0.08949219 5.75 0.125 C5.75 1.115 5.75 2.105 5.75 3.125 C0.47 2.795 -4.81 2.465 -10.25 2.125 C-6.14441282 0.07220641 -4.44793315 -0.0966942 0 0 Z " fill="#56AF36" transform="translate(610.25,316.875)"/>
<path d="M0 0 C0.66 0 1.32 0 2 0 C2.6708712 1.6232687 3.33657029 3.24867578 4 4.875 C4.556875 6.23238281 4.556875 6.23238281 5.125 7.6171875 C6 10 6 10 6 12 C5.01 12 4.02 12 3 12 C2.566875 10.2984375 2.566875 10.2984375 2.125 8.5625 C1.75375 7.386875 1.3825 6.21125 1 5 C0.34 4.67 -0.32 4.34 -1 4 C-0.67 2.68 -0.34 1.36 0 0 Z " fill="#59B73A" transform="translate(555,214)"/>
<path d="M0 0 C-0.66 0.66 -1.32 1.32 -2 2 C-2.99 1.67 -3.98 1.34 -5 1 C-4.67 1.99 -4.34 2.98 -4 4 C-7.07322544 4.91058531 -9.80097361 5.08886184 -13 5 C-9.11199743 0.70273401 -5.82693013 -1.8313209 0 0 Z " fill="#62B332" transform="translate(296,80)"/>
<path d="M0 0 C0.66 1.32 1.32 2.64 2 4 C-2.82142857 9.22321429 -2.82142857 9.22321429 -7 10 C-6.02223933 8.51990357 -5.0427506 7.04094856 -4.0625 5.5625 C-3.51722656 4.73878906 -2.97195313 3.91507813 -2.41015625 3.06640625 C-1 1 -1 1 0 0 Z " fill="#5DB43A" transform="translate(444,620)"/>
<path d="M0 0 C0.99 0 1.98 0 3 0 C2.67 2.31 2.34 4.62 2 7 C1.34 7 0.68 7 0 7 C0 9.64 0 12.28 0 15 C-0.33 15 -0.66 15 -1 15 C-1.02715383 13.25008666 -1.04646551 11.50005055 -1.0625 9.75 C-1.07410156 8.77546875 -1.08570313 7.8009375 -1.09765625 6.796875 C-1.01195577 4.34241322 -0.70706066 2.33831086 0 0 Z " fill="#65AC41" transform="translate(474,505)"/>
<path d="M0 0 C5.53846154 -0.36923077 5.53846154 -0.36923077 7.875 1.5 C8.24625 1.995 8.6175 2.49 9 3 C8.67 3.66 8.34 4.32 8 5 C7.67 5 7.34 5 7 5 C6.67 5.66 6.34 6.32 6 7 C5.34 7 4.68 7 4 7 C2.50475822 4.7272325 1.21600285 2.4320057 0 0 Z " fill="#64B041" transform="translate(175,407)"/>
<path d="M0 0 C0.66 0.33 1.32 0.66 2 1 C0.80100302 4.0831351 -0.47700477 7.06279492 -2 10 C-2.66 10 -3.32 10 -4 10 C-3.67 7.69 -3.34 5.38 -3 3 C-2.01 2.67 -1.02 2.34 0 2 C0 1.34 0 0.68 0 0 Z " fill="#5DB132" transform="translate(587,523)"/>
<path d="M0 0 C0.33 0 0.66 0 1 0 C1.27560214 6.20104812 0.22899346 11.93184478 -1 18 C-1.66 17.67 -2.32 17.34 -3 17 C-2.67 13.04 -2.34 9.08 -2 5 C-1.34 5 -0.68 5 0 5 C0 3.35 0 1.7 0 0 Z " fill="#59AC30" transform="translate(44,469)"/>
<path d="M0 0 C2.3125 0.8125 2.3125 0.8125 4 2 C4 2.66 4 3.32 4 4 C1.29120665 5.35439668 -1.00933268 5.06501451 -4 5 C-4.33 4.34 -4.66 3.68 -5 3 C-2.75 1.375 -2.75 1.375 0 0 Z " fill="#5BB639" transform="translate(311,164)"/>
<path d="M0 0 C5.75 -0.125 5.75 -0.125 8 1 C8 1.66 8 2.32 8 3 C10.31 3.33 12.62 3.66 15 4 C13.359375 5.1484375 13.359375 5.1484375 11 6 C8.203125 5.1015625 8.203125 5.1015625 5.25 3.625 C4.26515625 3.14289062 3.2803125 2.66078125 2.265625 2.1640625 C1.51796875 1.77992188 0.7703125 1.39578125 0 1 C0 0.67 0 0.34 0 0 Z " fill="#62A743" transform="translate(273,640)"/>
<path d="M0 0 C3 1 3 1 4.6875 3.25 C6.06511203 6.1364252 6.26985151 7.85173236 6 11 C0 3.6 0 3.6 0 0 Z " fill="#65AD42" transform="translate(532,173)"/>
<path d="M0 0 C0.66 1.32 1.32 2.64 2 4 C1.01 5.485 1.01 5.485 0 7 C-1.32 6.67 -2.64 6.34 -4 6 C-3.6875 4.125 -3.6875 4.125 -3 2 C-2.01 1.34 -1.02 0.68 0 0 Z " fill="#5FB53B" transform="translate(591,515)"/>
<path d="M0 0 C2 4 2 4 2 8 C1.34 8 0.68 8 0 8 C-0.99 9.485 -0.99 9.485 -2 11 C-2.66 10.34 -3.32 9.68 -4 9 C-2.68 6.03 -1.36 3.06 0 0 Z " fill="#54BF33" transform="translate(628,471)"/>
<path d="M0 0 C1 3 1 3 0.22265625 4.82421875 C-0.8515625 6.54947917 -1.92578125 8.27473958 -3 10 C-3.66 10 -4.32 10 -5 10 C-5 10.66 -5 11.32 -5 12 C-5.66 12 -6.32 12 -7 12 C-5.44298069 7.32894208 -2.91552627 3.91294315 0 0 Z " fill="#58B335" transform="translate(88,357)"/>
<path d="M0 0 C1.32 0.33 2.64 0.66 4 1 C4.66 4.3 5.32 7.6 6 11 C5.34 11 4.68 11 4 11 C3.67 11.66 3.34 12.32 3 13 C2.67 9.7 2.34 6.4 2 3 C1.34 3 0.68 3 0 3 C0 2.01 0 1.02 0 0 Z " fill="#5EB53D" transform="translate(128,320)"/>
<path d="M0 0 C2.6875 0.3125 2.6875 0.3125 5 1 C4.67 1.99 4.34 2.98 4 4 C1.625 4.625 1.625 4.625 -1 5 C-1.66 4.34 -2.32 3.68 -3 3 C-1.8125 1.4375 -1.8125 1.4375 0 0 Z " fill="#68B03F" transform="translate(123,315)"/>
<path d="M0 0 C-0.33 1.65 -0.66 3.3 -1 5 C-2.65 5.33 -4.3 5.66 -6 6 C-6 4.68 -6 3.36 -6 2 C-3 0 -3 0 0 0 Z " fill="#5EB635" transform="translate(208,238)"/>
<path d="M0 0 C0.99 0.33 1.98 0.66 3 1 C1.9375 2.9375 1.9375 2.9375 0 5 C-3.6875 5.75 -3.6875 5.75 -7 6 C-4.74259377 3.66475218 -2.7194239 1.81294927 0 0 Z " fill="#5EAC39" transform="translate(242,209)"/>
<path d="M0 0 C-2.14357015 2.14357015 -3.07927111 2.47959601 -5.9375 3.1875 C-6.62714844 3.36667969 -7.31679688 3.54585937 -8.02734375 3.73046875 C-10 4 -10 4 -13 3 C-13 2.34 -13 1.68 -13 1 C-8.59085217 -0.10228696 -4.51617599 -0.07654536 0 0 Z " fill="#5FBB3B" transform="translate(330,178)"/>
<path d="M0 0 C0.99 0 1.98 0 3 0 C3 0.66 3 1.32 3 2 C6.3 2 9.6 2 13 2 C13 2.33 13 2.66 13 3 C6.4 3 -0.2 3 -7 3 C-7 2.67 -7 2.34 -7 2 C-4.69 2 -2.38 2 0 2 C0 1.34 0 0.68 0 0 Z " fill="#57B024" transform="translate(375,170)"/>
<path d="M0 0 C2 4 2 4 2 6 C1.01 6.495 1.01 6.495 0 7 C-1.13350534 9.01669827 -1.13350534 9.01669827 -2 11 C-2.66 10.34 -3.32 9.68 -4 9 C-2.68 6.03 -1.36 3.06 0 0 Z " fill="#54B62E" transform="translate(462,584)"/>
<path d="M0 0 C2 1 2 1 2.875 3.25 C3 6 3 6 1.0625 8.8125 C0.381875 9.534375 -0.29875 10.25625 -1 11 C-1.0270043 9.54176788 -1.04639787 8.08339325 -1.0625 6.625 C-1.07410156 5.81289063 -1.08570313 5.00078125 -1.09765625 4.1640625 C-1 2 -1 2 0 0 Z " fill="#59B936" transform="translate(580,530)"/>
<path d="M0 0 C2.32590854 3.63423209 2.16265833 6.77088331 2 11 C1.01 11.33 0.02 11.66 -1 12 C-1.02698189 10.37509046 -1.04638757 8.75005367 -1.0625 7.125 C-1.07410156 6.22007812 -1.08570313 5.31515625 -1.09765625 4.3828125 C-1 2 -1 2 0 0 Z " fill="#66AC44" transform="translate(482,476)"/>
<path d="M0 0 C1.10844919 3.32534757 0.84454356 5.62182575 0 9 C-0.99 9.33 -1.98 9.66 -3 10 C-4 7 -4 7 -3.22265625 5.17578125 C-2.1484375 3.45052083 -1.07421875 1.72526042 0 0 Z " fill="#63AC45" transform="translate(68,391)"/>
<path d="M0 0 C0.33 0.66 0.66 1.32 1 2 C2.65 2 4.3 2 6 2 C2.64672361 4.23551759 2.09256343 4.17283528 -1.6875 3.625 C-2.49574219 3.51414063 -3.30398438 3.40328125 -4.13671875 3.2890625 C-4.75160156 3.19367188 -5.36648438 3.09828125 -6 3 C-6 2.34 -6 1.68 -6 1 C-4.02 0.67 -2.04 0.34 0 0 Z " fill="#5CB938" transform="translate(354,172)"/>
<path d="M0 0 C1.65 0 3.3 0 5 0 C5 0.33 5 0.66 5 1 C7.97 1.33 10.94 1.66 14 2 C10.4513865 4.36574234 9.4235475 4.10865265 5.3125 3.625 C3.82169922 3.45871094 3.82169922 3.45871094 2.30078125 3.2890625 C1.54152344 3.19367187 0.78226562 3.09828125 0 3 C0 2.01 0 1.02 0 0 Z " fill="#5BAD35" transform="translate(475,671)"/>
<path d="M0 0 C0.33 1.32 0.66 2.64 1 4 C-5.15234375 3.4140625 -5.15234375 3.4140625 -7 3 C-7.33 2.34 -7.66 1.68 -8 1 C-5.23735711 0.40267181 -2.83967231 0 0 0 Z " fill="#5CB334" transform="translate(127,636)"/>
<path d="M0 0 C0 2.64 0 5.28 0 8 C-0.99 7.67 -1.98 7.34 -3 7 C-3.33 5.02 -3.66 3.04 -4 1 C-1 0 -1 0 0 0 Z " fill="#62B43C" transform="translate(55,554)"/>
<path d="M0 0 C2.2477975 2.05233685 3.0022242 3.00667261 4 6 C3.0625 8.6875 3.0625 8.6875 2 11 C1 8 1 8 1 6 C0.34 5.67 -0.32 5.34 -1 5 C-0.67 3.35 -0.34 1.7 0 0 Z " fill="#63AF3E" transform="translate(141,523)"/>
<path d="M0 0 C5.26053037 -0.31563182 8.44573816 0.33409063 13 3 C13 3.33 13 3.66 13 4 C8.428721 3.45144652 4.32564205 2.58255197 0 1 C0 0.67 0 0.34 0 0 Z " fill="#41B820" transform="translate(406,167)"/>
<path d="M0 0 C1.98 0 3.96 0 6 0 C5 2 5 2 2.25 3.125 C-0.70186896 3.91973395 -2.97219837 4.17810598 -6 4 C-5.67 3.34 -5.34 2.68 -5 2 C-3.35 2 -1.7 2 0 2 C0 1.34 0 0.68 0 0 Z " fill="#53B22F" transform="translate(573,661)"/>
<path d="M0 0 C1.32 0.33 2.64 0.66 4 1 C3.34 1 2.68 1 2 1 C2 1.99 2 2.98 2 4 C1.2575 3.979375 0.515 3.95875 -0.25 3.9375 C-2.70462279 3.99328688 -4.66109261 4.3069904 -7 5 C-6.34 4.01 -5.68 3.02 -5 2 C-2.375 1.8125 -2.375 1.8125 0 2 C0 1.34 0 0.68 0 0 Z " fill="#61B83C" transform="translate(564,572)"/>
<path d="M0 0 C0.33 0 0.66 0 1 0 C1.125 7.75 1.125 7.75 0 10 C-0.66 10 -1.32 10 -2 10 C-2.33 8.02 -2.66 6.04 -3 4 C-2.34 4 -1.68 4 -1 4 C-0.67 2.68 -0.34 1.36 0 0 Z " fill="#5CB934" transform="translate(47,526)"/>
<path d="M0 0 C0.66 0 1.32 0 2 0 C2.17942163 3.94727588 2.09350689 6.5980513 0 10 C-0.99 9.67 -1.98 9.34 -3 9 C-2.01 6.03 -1.02 3.06 0 0 Z " fill="#5DB030" transform="translate(637,444)"/>
<path d="M0 0 C3.67230705 3.07999946 4.56802365 5.2482602 5 10 C4.67 9.01 4.34 8.02 4 7 C3.01 7.33 2.02 7.66 1 8 C0.26919734 6.02253397 -0.39421747 4.01927511 -1 2 C-0.67 1.34 -0.34 0.68 0 0 Z " fill="#56B736" transform="translate(153,376)"/>
<path d="M0 0 C1.65 0 3.3 0 5 0 C5 1.32 5 2.64 5 4 C6.32 4.33 7.64 4.66 9 5 C6 6 6 6 2.8125 4.5625 C1.884375 4.046875 0.95625 3.53125 0 3 C0 2.01 0 1.02 0 0 Z " fill="#59B22A" transform="translate(176,297)"/>
<path d="M0 0 C2.64 0.66 5.28 1.32 8 2 C8 2.99 8 3.98 8 5 C7.01 5.33 6.02 5.66 5 6 C4.67 5.01 4.34 4.02 4 3 C3.34 2.67 2.68 2.34 2 2 C2 2.66 2 3.32 2 4 C1.34 4 0.68 4 0 4 C0 2.68 0 1.36 0 0 Z " fill="#55BE2E" transform="translate(182,296)"/>
<path d="M0 0 C1.875 0.1875 1.875 0.1875 4 1 C5.25 3.5625 5.25 3.5625 6 6 C4.68 6 3.36 6 2 6 C1.34 4.02 0.68 2.04 0 0 Z " fill="#5BB438" transform="translate(250,264)"/>
<path d="M0 0 C1.07765625 0.03609375 2.1553125 0.0721875 3.265625 0.109375 C4.49539063 0.17898437 4.49539063 0.17898437 5.75 0.25 C5.75 0.58 5.75 0.91 5.75 1.25 C5.03972656 1.29898438 4.32945312 1.34796875 3.59765625 1.3984375 C2.21900391 1.51058594 2.21900391 1.51058594 0.8125 1.625 C-0.10402344 1.69460937 -1.02054687 1.76421875 -1.96484375 1.8359375 C-2.71894531 1.97257813 -3.47304688 2.10921875 -4.25 2.25 C-4.58 2.91 -4.91 3.57 -5.25 4.25 C-6.9 4.25 -8.55 4.25 -10.25 4.25 C-7.0246569 0.27312065 -5.05259733 -0.21967814 0 0 Z " fill="#61AD3D" transform="translate(506.25,221.75)"/>
<path d="M0 0 C2.125 0.9375 2.125 0.9375 4 2 C2.68 2.33 1.36 2.66 0 3 C0 3.66 0 4.32 0 5 C-2.97 4.505 -2.97 4.505 -6 4 C-4.03617993 2.49440461 -2.21736634 1.10868317 0 0 Z " fill="#62B539" transform="translate(258,201)"/>
<path d="M0 0 C0.33 0.66 0.66 1.32 1 2 C1.99 2 2.98 2 4 2 C4 2.66 4 3.32 4 4 C0.37 3.67 -3.26 3.34 -7 3 C-4.38058783 1.25372522 -2.96175123 0.61277612 0 0 Z " fill="#62B136" transform="translate(324,68)"/>
<path d="M0 0 C1.2065625 0.0309375 1.2065625 0.0309375 2.4375 0.0625 C2.1075 0.7225 1.7775 1.3825 1.4375 2.0625 C-0.77734375 2.765625 -0.77734375 2.765625 -3.5 3.3125 C-4.39589844 3.50328125 -5.29179688 3.6940625 -6.21484375 3.890625 C-6.98957031 3.94734375 -7.76429688 4.0040625 -8.5625 4.0625 C-9.2225 3.4025 -9.8825 2.7425 -10.5625 2.0625 C-9.428125 1.918125 -8.29375 1.77375 -7.125 1.625 C-3.80350664 1.10055368 -3.09809271 0.07556324 0 0 Z " fill="#54B22F" transform="translate(562.5625,664.9375)"/>
<path d="M0 0 C4.29 0.33 8.58 0.66 13 1 C12.67 1.99 12.34 2.98 12 4 C6.06 2.515 6.06 2.515 0 1 C0 0.67 0 0.34 0 0 Z " fill="#57B332" transform="translate(424,664)"/>
<path d="M0 0 C7.75 0.75 7.75 0.75 10 3 C5.99799622 4.60080151 2.95443764 3.29279692 -1 2 C-0.67 1.34 -0.34 0.68 0 0 Z " fill="#67A73F" transform="translate(416,661)"/>
<path d="M0 0 C0.33 0 0.66 0 1 0 C1.36630156 3.93774177 1.30233203 5.56539771 -1 8.875 C-1.66 9.57625 -2.32 10.2775 -3 11 C-3 6.32674845 -1.92757363 4.17640953 0 0 Z " fill="#4DBC28" transform="translate(275,592)"/>
<path d="M0 0 C1.98 0.495 1.98 0.495 4 1 C4 2.65 4 4.3 4 6 C3.01 6 2.02 6 1 6 C-0.0625 4.125 -0.0625 4.125 -1 2 C-0.67 1.34 -0.34 0.68 0 0 Z " fill="#56B836" transform="translate(180,560)"/>
<path d="M0 0 C0.66 0.66 1.32 1.32 2 2 C1.04956626 3.33897583 0.08940853 4.67105427 -0.875 6 C-1.40867187 6.7425 -1.94234375 7.485 -2.4921875 8.25 C-2.98976563 8.8275 -3.48734375 9.405 -4 10 C-4.66 10 -5.32 10 -6 10 C-5.34 8.35 -4.68 6.7 -4 5 C-3.34 5 -2.68 5 -2 5 C-1.67 4.01 -1.34 3.02 -1 2 C-0.67 1.34 -0.34 0.68 0 0 Z " fill="#53B532" transform="translate(563,559)"/>
<path d="M0 0 C0.33 0 0.66 0 1 0 C1.33 1.98 1.66 3.96 2 6 C1.34 6 0.68 6 0 6 C-0.33 6.66 -0.66 7.32 -1 8 C-1 7.34 -1 6.68 -1 6 C-1.99 6.33 -2.98 6.66 -4 7 C-4 6.01 -4 5.02 -4 4 C-3.34 4 -2.68 4 -2 4 C-2 3.34 -2 2.68 -2 2 C-1.34 2 -0.68 2 0 2 C0 1.34 0 0.68 0 0 Z " fill="#5ABB31" transform="translate(284,524)"/>
<path d="M0 0 C0.66 0 1.32 0 2 0 C1.34 3.3 0.68 6.6 0 10 C-0.66 10 -1.32 10 -2 10 C-2.17942163 6.05272412 -2.09350689 3.4019487 0 0 Z " fill="#5BB53C" transform="translate(492,454)"/>
<path d="M0 0 C0.33 0 0.66 0 1 0 C1.66 4.29 2.32 8.58 3 13 C2.01 13.33 1.02 13.66 0 14 C0 9.38 0 4.76 0 0 Z " fill="#5AB52F" transform="translate(625,365)"/>
<path d="M0 0 C5.94 1.485 5.94 1.485 12 3 C12 3.33 12 3.66 12 4 C9.03 4 6.06 4 3 4 C3 3.34 3 2.68 3 2 C2.01 2 1.02 2 0 2 C0 1.34 0 0.68 0 0 Z " fill="#4EBF30" transform="translate(399,71)"/>
<path d="M0 0 C0.66 0 1.32 0 2 0 C3.26264601 4.29299643 2.62950412 6.87831311 1 11 C0.67 11 0.34 11 0 11 C0 7.37 0 3.74 0 0 Z " fill="#68A34D" transform="translate(336,635)"/>
<path d="M0 0 C0.70125 0.144375 1.4025 0.28875 2.125 0.4375 C5.07556141 1.01478375 8.03270151 1.51695141 11 2 C11 2.66 11 3.32 11 4 C4.6 4.49230769 4.6 4.49230769 1.5625 2 C1.046875 1.34 0.53125 0.68 0 0 Z " fill="#59B037" transform="translate(111,632)"/>
<path d="M0 0 C0.33 0.99 0.66 1.98 1 3 C1.66 3 2.32 3 3 3 C2.67 4.65 2.34 6.3 2 8 C1.34 8 0.68 8 0 8 C-1.125 5.6875 -1.125 5.6875 -2 3 C-1.34 2.01 -0.68 1.02 0 0 Z " fill="#5CB739" transform="translate(149,509)"/>
<path d="M0 0 C1.32 0.33 2.64 0.66 4 1 C4 1.66 4 2.32 4 3 C4.66 3 5.32 3 6 3 C6 3.66 6 4.32 6 5 C5.34 5 4.68 5 4 5 C3.67 5.99 3.34 6.98 3 8 C0 2.25 0 2.25 0 0 Z " fill="#62B043" transform="translate(143,503)"/>
<path d="M0 0 C0.66 0 1.32 0 2 0 C2.66 1.98 3.32 3.96 4 6 C3.34 6.66 2.68 7.32 2 8 C1.34 8 0.68 8 0 8 C-0.79953138 4.71303767 -1.09658936 3.28976808 0 0 Z " fill="#6BAF39" transform="translate(633,456)"/>
<path d="M0 0 C0.66 1.32 1.32 2.64 2 4 C-0.97 3.67 -3.94 3.34 -7 3 C-4.64046906 0.64046906 -3.22104383 0.50858587 0 0 Z " fill="#5ABC2D" transform="translate(566,396)"/>
<path d="M0 0 C2.31 0 4.62 0 7 0 C4.94766315 2.2477975 3.99332739 3.0022242 1 4 C0.01 3.34 -0.98 2.68 -2 2 C-1.34 2 -0.68 2 0 2 C0 1.34 0 0.68 0 0 Z " fill="#57B732" transform="translate(218,643)"/>
<path d="M0 0 C2.97 0.33 5.94 0.66 9 1 C8.67 1.99 8.34 2.98 8 4 C6.35 4 4.7 4 3 4 C3 3.01 3 2.02 3 1 C2.01 0.67 1.02 0.34 0 0 Z " fill="#59B534" transform="translate(296,618)"/>
<path d="M0 0 C0.33 0.66 0.66 1.32 1 2 C1.66 2.33 2.32 2.66 3 3 C1.68 4.65 0.36 6.3 -1 8 C-1.66 7.67 -2.32 7.34 -3 7 C-3 6.34 -3 5.68 -3 5 C-2.34 5 -1.68 5 -1 5 C-0.67 3.35 -0.34 1.7 0 0 Z " fill="#51C031" transform="translate(677,581)"/>
<path d="M0 0 C0.33 0 0.66 0 1 0 C1 2.64 1 5.28 1 8 C1.99 8.33 2.98 8.66 4 9 C3.34 10.32 2.68 11.64 2 13 C-0.05596957 9.29925478 -1.36675691 5.93857226 -0.5625 1.6875 C-0.376875 1.130625 -0.19125 0.57375 0 0 Z " fill="#5BB936" transform="translate(48,540)"/>
<path d="M0 0 C0.66 0 1.32 0 2 0 C2 0.99 2 1.98 2 3 C2.66 3 3.32 3 4 3 C3.67 4.65 3.34 6.3 3 8 C1 7 1 7 -0.125 3.9375 C-0.41375 2.968125 -0.7025 1.99875 -1 1 C-0.67 0.67 -0.34 0.34 0 0 Z " fill="#62B338" transform="translate(156,525)"/>
<path d="M0 0 C0.66 0 1.32 0 2 0 C2 0.99 2 1.98 2 3 C1.34 3 0.68 3 0 3 C0.33 5.64 0.66 8.28 1 11 C-0.5625 9.3125 -0.5625 9.3125 -2 7 C-1.74303831 4.30190224 -1.20824654 2.41649307 0 0 Z " fill="#61B23B" transform="translate(487,464)"/>
<path d="M0 0 C-3.6441774 2.4294516 -5.71241272 2.16179575 -10 2 C-7.85732894 -2.28534211 -3.95706306 -0.79141261 0 0 Z " fill="#61A432" transform="translate(584,395)"/>
<path d="M0 0 C0.33 0.99 0.66 1.98 1 3 C1.66 3 2.32 3 3 3 C3 3.66 3 4.32 3 5 C0.69 5.33 -1.62 5.66 -4 6 C-3.67 5.34 -3.34 4.68 -3 4 C-2.34 4 -1.68 4 -1 4 C-0.67 2.68 -0.34 1.36 0 0 Z " fill="#55B833" transform="translate(221,196)"/>
<path d="M0 0 C3.3 0 6.6 0 10 0 C10 0.66 10 1.32 10 2 C6.6875 2.6875 6.6875 2.6875 3 3 C2.01 2.01 1.02 1.02 0 0 Z " fill="#61BB3B" transform="translate(290,188)"/>
<path d="M0 0 C1.98 0 3.96 0 6 0 C5.67 0.66 5.34 1.32 5 2 C2.93359375 2.6328125 2.93359375 2.6328125 0.4375 3.125 C-0.80193359 3.37636719 -0.80193359 3.37636719 -2.06640625 3.6328125 C-2.70449219 3.75398437 -3.34257812 3.87515625 -4 4 C-4 3.34 -4 2.68 -4 2 C-2.68 2 -1.36 2 0 2 C0 1.34 0 0.68 0 0 Z " fill="#54B332" transform="translate(256,183)"/>
<path d="M0 0 C0 0.33 0 0.66 0 1 C-1.98 1 -3.96 1 -6 1 C-6 1.66 -6 2.32 -6 3 C-8.64 3 -11.28 3 -14 3 C-8.75250397 0.37625198 -5.91152367 -0.09534716 0 0 Z " fill="#63AF3A" transform="translate(346,160)"/>
<path d="M0 0 C2.31 0.33 4.62 0.66 7 1 C6.67 1.99 6.34 2.98 6 4 C4.68 4 3.36 4 2 4 C2 3.34 2 2.68 2 2 C1.34 2 0.68 2 0 2 C0 1.34 0 0.68 0 0 Z " fill="#65B637" transform="translate(446,92)"/>
<path d="M0 0 C1.98 0.66 3.96 1.32 6 2 C6 2.66 6 3.32 6 4 C7.32 4.33 8.64 4.66 10 5 C5.44262737 4.56179109 2.42346555 4.14958831 -1 1 C-0.67 0.67 -0.34 0.34 0 0 Z " fill="#4FB92E" transform="translate(258,631)"/>
<path d="M0 0 C1.5 1.3125 1.5 1.3125 3 3 C3 3.99 3 4.98 3 6 C3.66 6 4.32 6 5 6 C4.67 6.99 4.34 7.98 4 9 C-0.00390625 4.60546875 -0.00390625 4.60546875 -1 3 C-0.67 2.01 -0.34 1.02 0 0 Z " fill="#55B932" transform="translate(72,593)"/>
<path d="M0 0 C0.66 0 1.32 0 2 0 C2 0.99 2 1.98 2 3 C2.66 3.33 3.32 3.66 4 4 C3.34 5.32 2.68 6.64 2 8 C0.93224776 6.03533587 -0.06553465 4.03144641 -1 2 C-0.67 1.34 -0.34 0.68 0 0 Z " fill="#56BB31" transform="translate(66,584)"/>
<path d="M0 0 C0 0.66 0 1.32 0 2 C-2.66666667 2.66666667 -5.33333333 3.33333333 -8 4 C-8 3.34 -8 2.68 -8 2 C-8.66 1.67 -9.32 1.34 -10 1 C-6.59437148 0.22157062 -3.49234244 -0.09978121 0 0 Z " fill="#5BB136" transform="translate(552,582)"/>
<path d="M0 0 C0.66 0.66 1.32 1.32 2 2 C1.96712417 4.72869407 1.43602229 7.2966618 1 10 C0.34 9.67 -0.32 9.34 -1 9 C-1.09765625 2.84765625 -1.09765625 2.84765625 -1 1 C-0.67 0.67 -0.34 0.34 0 0 Z " fill="#54B82D" transform="translate(696,527)"/>
<path d="M0 0 C0.33 0 0.66 0 1 0 C1.66 3.63 2.32 7.26 3 11 C2.01 11 1.02 11 0 11 C0 7.37 0 3.74 0 0 Z " fill="#68A845" transform="translate(694,477)"/>
<path d="M0 0 C0.66 0.33 1.32 0.66 2 1 C1.01 4.3 0.02 7.6 -1 11 C-1.33 11 -1.66 11 -2 11 C-2.19622241 6.78121808 -1.80230168 3.82989106 0 0 Z " fill="#60AE42" transform="translate(612,469)"/>
<path d="M0 0 C0.66 0 1.32 0 2 0 C3.7578125 5.95703125 3.7578125 5.95703125 4 8 C3.01 9.485 3.01 9.485 2 11 C2 9.02 2 7.04 2 5 C1.34 5 0.68 5 0 5 C0 3.35 0 1.7 0 0 Z " fill="#6BA44E" transform="translate(132,331)"/>
<path d="M0 0 C1.32 0 2.64 0 4 0 C4 0.99 4 1.98 4 3 C5.32 3.33 6.64 3.66 8 4 C4.52176885 5.15941038 2.54104422 4.70820884 -1 4 C-0.34 3.34 0.32 2.68 1 2 C0.67 1.34 0.34 0.68 0 0 Z " fill="#5FBB3C" transform="translate(260,178)"/>
<path d="M0 0 C0.33 0.66 0.66 1.32 1 2 C3.02463255 2.65213292 3.02463255 2.65213292 5 3 C4 4 4 4 2.15234375 4.09765625 C0.1015625 4.06510417 -1.94921875 4.03255208 -4 4 C-4 3.34 -4 2.68 -4 2 C-2.68 2 -1.36 2 0 2 C0 1.34 0 0.68 0 0 Z " fill="#5DB731" transform="translate(375,66)"/>
<path d="M0 0 C2.64 0 5.28 0 8 0 C8 0.66 8 1.32 8 2 C5.36 2.33 2.72 2.66 0 3 C0 2.01 0 1.02 0 0 Z " fill="#53B32B" transform="translate(194,651)"/>
<path d="M0 0 C0.99 0.33 1.98 0.66 3 1 C2.01 2.32 1.02 3.64 0 5 C-1.32 4.67 -2.64 4.34 -4 4 C-2.68 2.68 -1.36 1.36 0 0 Z " fill="#61B342" transform="translate(587,546)"/>
<path d="M0 0 C2.50037734 2.17424117 3.43628586 3.73045798 4 7 C2.68 6.67 1.36 6.34 0 6 C0 4.02 0 2.04 0 0 Z " fill="#62AE46" transform="translate(145,531)"/>
<path d="M0 0 C0.99 0.66 1.98 1.32 3 2 C2.67 3.32 2.34 4.64 2 6 C0.35 6 -1.3 6 -3 6 C-2.01 4.02 -1.02 2.04 0 0 Z " fill="#5DBB36" transform="translate(609,512)"/>
<path d="M0 0 C2.35448165 2.55068845 2.98327924 3.71017358 3.1875 7.25 C3.125625 8.1575 3.06375 9.065 3 10 C0.64551835 7.44931155 0.01672076 6.28982642 -0.1875 2.75 C-0.125625 1.8425 -0.06375 0.935 0 0 Z " fill="#67A846" transform="translate(139,490)"/>
<path d="M0 0 C3.57104439 1.87949705 5.54744301 3.17053157 7 7 C6.01 7 5.02 7 4 7 C0 2.65714286 0 2.65714286 0 0 Z " fill="#5BB333" transform="translate(221,436)"/>
<path d="M0 0 C0.99 0.495 0.99 0.495 2 1 C2.40729228 3.32156597 2.74438677 5.6568787 3 8 C2.01 8.33 1.02 8.66 0 9 C0 6.03 0 3.06 0 0 Z " fill="#70A357" transform="translate(624,351)"/>
<path d="M0 0 C0.99 0.33 1.98 0.66 3 1 C2.34 1 1.68 1 1 1 C0.67 2.32 0.34 3.64 0 5 C-0.99 5 -1.98 5 -3 5 C-3.33 5.66 -3.66 6.32 -4 7 C-4 4 -4 4 -2 1.8125 C-1.34 1.214375 -0.68 0.61625 0 0 Z " fill="#62AE4A" transform="translate(107,333)"/>
<path d="M0 0 C0.99 0 1.98 0 3 0 C1.52307692 4.67692308 1.52307692 4.67692308 -1.125 6.3125 C-2.053125 6.6528125 -2.053125 6.6528125 -3 7 C-1.125 2.25 -1.125 2.25 0 0 Z " fill="#5EB133" transform="translate(202,281)"/>
<path d="M0 0 C3.26460973 1.80412643 4.88929795 2.83394693 7 6 C3 6 3 6 1.25 4.6875 C0 3 0 3 0 0 Z " fill="#6CA74A" transform="translate(512,147)"/>
<path d="M0 0 C0.99 0.99 1.98 1.98 3 3 C2.67 3.99 2.34 4.98 2 6 C-0.0625 6.6875 -0.0625 6.6875 -2 7 C-1.125 2.25 -1.125 2.25 0 0 Z " fill="#63B134" transform="translate(240,120)"/>
<path d="M0 0 C-0.99 0.495 -0.99 0.495 -2 1 C-2 1.66 -2 2.32 -2 3 C-4.31 3.66 -6.62 4.32 -9 5 C-9 4.34 -9 3.68 -9 3 C-6.04341306 0.15291628 -4.05047276 -0.3375394 0 0 Z " fill="#5BB937" transform="translate(277,90)"/>
<path d="M0 0 C2.86724686 0.57344937 3.8614515 0.8614515 6 3 C5.67 3.99 5.34 4.98 5 6 C1.125 3.375 1.125 3.375 0 0 Z " fill="#5AB936" transform="translate(192,602)"/>
<path d="M0 0 C1.73662334 3.22515763 2.8905928 6.51329166 4 10 C3.34 10 2.68 10 2 10 C-0.17364926 7.18230651 -1.08677021 5.7809319 -0.6875 2.1875 C-0.460625 1.465625 -0.23375 0.74375 0 0 Z " fill="#58B232" transform="translate(132,470)"/>
<path d="M0 0 C0 0.99 0 1.98 0 3 C-2.4375 2.625 -2.4375 2.625 -5 2 C-5.33 1.34 -5.66 0.68 -6 0 C-3.50907189 -1.24546405 -2.58919267 -0.7767578 0 0 Z " fill="#4EB119" transform="translate(562,227)"/>
</svg>
