<svg width="1600" height="1600" version="1.1" xmlns="http://www.w3.org/2000/svg" desc="Created with imagetracer.js version 1.2.6" ><path fill="rgb(0,0,0)" stroke="rgb(0,0,0)" stroke-width="1" opacity="0" d="M 1.5 0 L 1597.5 0 L 1600 1 L 1600 1598.5 L 1598.5 1600 L 1.5 1600 L 0 1598.5 L 0 1.5 L 1.5 0 Z M 502 539 Q 477 549 457 563 Q 454 562 455 565 L 449 568 L 439 577 L 431 588 L 429 597 L 429 603 L 432 612 Q 443 625 462 632 L 486 638 L 488 638 L 515 643 L 553 643 L 554 642 L 562 642 L 563 641 L 594 637 L 609 634 L 612 632 L 616 632 L 618 632 L 620 630 L 630 628 Q 641 622 655 619 L 657 611 L 656 601 L 654 598 L 654 593 Q 647 584 638 579 L 626 575 L 621 575 L 618 573 L 610 573 L 609 572 L 606 573 L 597 572 L 595 572 L 593 573 L 591 572 Q 587 571 588 574 L 587 573 L 570 577 L 562 577 L 544 581 L 524 583 L 523 584 L 514 584 L 513 585 L 492 585 Q 490 583 486 584 L 478 579 L 476 577 L 476 575 L 476 569 L 481 560 Q 490 548 503 541 Q 504 538 502 539 Z M 1102 552 L 1100 554 Q 1101 556 1098 555 Q 1099 561 1094 564 L 1090 579 L 1090 581 L 1089 586 L 1089 588 L 1088 590 L 1088 614 L 1089 615 L 1088 617 L 1090 628 L 1093 633 L 1092 636 L 1097 645 L 1098 650 L 1102 655 L 1102 658 L 1112 674 Q 1111 676 1114 675 L 1114 678 L 1116 678 L 1120 685 L 1123 686 L 1128 693 L 1134 697 L 1136 696 L 1139 688 L 1139 680 L 1140 679 Q 1141 674 1139 673 L 1139 661 L 1140 660 L 1139 649 L 1139 647 L 1135 634 L 1134 626 L 1133 623 Q 1134 619 1131 620 L 1129 614 L 1130 612 L 1133 617 L 1133 620 L 1137 627 L 1137 631 L 1142 643 L 1142 646 L 1142 648 L 1146 665 Q 1147 669 1145 671 L 1146 681 L 1146 683 Q 1148 688 1145 690 L 1146 694 L 1155 689 L 1162 679 Q 1161 676 1164 677 Q 1166 676 1164 675 L 1166 674 L 1166 671 L 1170 662 L 1172 647 L 1172 645 L 1173 643 L 1172 640 L 1173 638 L 1170 630 L 1170 624 L 1166 614 L 1166 612 L 1161 604 Q 1162 601 1159 602 L 1157 597 L 1154 595 L 1153 593 Q 1154 590 1152 591 L 1141 579 Q 1138 580 1139 577 L 1133 573 L 1131 570 L 1105 552 L 1102 552 Z M 900 617 L 893 619 L 882 619 L 875 621 L 857 623 L 792 640 L 721 666 L 701 676 L 677 685 L 642 701 L 616 709 L 614 709 L 613 711 L 611 710 L 582 716 L 533 717 L 530 716 L 526 717 L 514 714 L 509 715 Q 506 716 507 713 L 502 712 L 500 713 L 496 711 L 494 712 L 493 710 L 491 711 L 486 708 L 466 701 L 459 702 L 458 706 L 458 725 L 461 731 L 462 738 L 467 746 L 470 747 L 475 753 Q 477 752 476 755 L 485 761 L 501 768 L 512 771 L 517 771 L 520 773 L 529 773 L 530 774 L 573 773 L 590 769 L 601 768 L 605 766 L 610 766 L 654 753 L 704 732 L 774 692 L 810 674 L 823 669 Q 824 665 826 668 L 862 655 Q 868 657 867 653 L 879 651 L 881 651 L 885 649 L 897 647 L 899 647 L 904 645 L 922 644 L 930 642 L 951 642 L 953 642 L 962 642 L 963 643 L 967 642 L 969 642 L 982 642 L 995 645 L 1007 646 L 1009 646 L 1026 650 L 1034 654 L 1036 653 L 1032 650 L 1030 648 L 1018 640 L 1016 640 L 1010 636 L 1008 636 L 1007 634 L 988 626 L 967 621 L 962 621 L 957 619 Q 947 620 942 617 L 900 617 Z M 652 633 L 626 641 L 624 643 L 624 652 L 622 666 L 620 664 L 620 658 L 618 654 L 617 644 L 615 643 L 605 646 L 601 645 Q 598 648 591 647 L 589 651 L 590 654 L 589 657 L 590 662 L 589 669 Q 586 665 587 657 L 585 650 L 583 649 L 570 650 L 569 651 L 556 651 L 555 656 L 555 670 L 554 671 L 554 679 L 551 670 L 551 660 L 552 659 L 550 653 L 549 651 L 524 651 Q 522 655 523 665 L 523 669 L 523 677 L 521 675 L 520 660 L 518 652 L 507 650 L 494 650 L 493 653 L 493 665 L 489 656 L 489 651 Q 486 651 487 648 Q 483 649 481 646 L 478 647 L 460 642 Q 458 640 457 643 L 457 651 L 461 660 L 461 667 L 465 678 L 465 682 L 466 685 L 465 687 L 467 694 L 471 696 L 491 703 L 506 706 L 508 706 L 521 710 L 532 710 L 541 712 Q 545 713 547 711 L 555 711 L 556 712 L 570 711 L 571 710 L 581 710 L 591 707 L 602 706 L 635 696 L 650 690 L 652 686 Q 650 679 653 678 L 652 674 L 653 672 L 652 670 L 654 662 L 653 660 Q 653 652 656 648 L 656 643 L 657 640 L 657 633 L 652 633 Z M 947 652 L 946 653 L 936 653 L 935 654 L 920 654 L 898 658 L 892 658 L 855 667 L 824 680 L 797 695 L 793 701 L 840 737 L 876 759 L 892 767 L 936 785 L 955 790 L 972 792 L 973 793 L 984 793 L 985 794 L 1006 794 L 1007 793 L 1024 792 L 1043 788 L 1057 783 L 1088 766 L 1109 748 L 1122 733 L 1125 727 Q 1129 725 1126 723 L 1121 724 L 1119 724 L 1104 729 L 1089 732 L 1071 734 L 1070 735 L 1063 735 L 1061 735 Q 1057 738 1050 736 L 1048 736 L 1047 737 L 1036 737 L 1035 738 L 1012 738 L 1011 737 L 1009 738 L 1008 737 L 979 736 L 972 734 L 953 732 L 917 722 L 916 720 L 930 722 L 935 724 L 941 724 L 952 727 Q 960 725 964 728 L 966 728 L 968 727 L 973 729 L 982 729 L 983 730 L 1006 729 L 1008 729 L 1010 728 L 1012 729 L 1019 727 L 1022 728 L 1031 726 L 1033 727 L 1036 726 L 1038 726 L 1039 725 L 1064 722 L 1069 720 L 1075 720 L 1098 714 L 1102 714 L 1127 706 L 1131 703 Q 1118 693 1102 686 L 1085 679 L 1082 679 L 1065 671 L 1046 665 L 1015 658 L 1008 658 L 995 655 L 947 652 Z M 1188 838 L 1186 839 L 1184 839 L 1181 841 Q 1175 845 1173 852 Q 1171 860 1175 864 Q 1174 866 1177 865 L 1179 869 L 1191 874 Q 1203 875 1209 868 Q 1213 865 1214 860 Q 1215 850 1211 846 L 1206 841 Q 1204 837 1203 840 L 1200 838 L 1188 838 Z M 872 843 L 871 844 L 848 844 L 845 848 L 845 908 L 843 908 L 828 898 L 817 894 Q 811 896 810 893 L 793 893 L 780 896 Q 767 900 758 908 Q 746 918 739 933 L 735 945 L 735 955 L 734 956 Q 732 967 736 974 L 735 978 L 738 987 Q 737 989 740 988 L 741 996 L 744 997 L 746 1003 Q 745 1005 748 1004 L 751 1010 Q 759 1019 772 1024 L 786 1029 L 800 1030 L 802 1030 L 805 1031 Q 806 1028 813 1030 L 832 1024 L 846 1014 L 846 1016 L 846 1018 L 846 1027 Q 849 1026 848 1029 L 862 1029 L 863 1028 L 876 1029 L 877 1027 L 877 848 L 876 846 Q 875 842 872 843 Z M 469 850 L 468 851 L 453 852 L 432 859 Q 414 867 403 881 Q 404 883 402 882 Q 391 893 386 910 L 386 912 Q 387 914 384 913 L 382 921 L 382 931 L 381 932 L 381 951 L 382 952 L 382 961 L 384 967 Q 383 969 386 968 L 387 972 L 386 974 L 392 987 L 405 1003 Q 404 1005 407 1004 L 408 1007 L 419 1015 L 442 1026 L 465 1031 L 487 1031 L 494 1029 L 500 1029 L 502 1027 L 506 1027 L 522 1022 L 541 1012 L 545 1005 Q 547 999 544 998 L 545 995 L 544 993 L 544 942 Q 540 940 543 939 L 514 938 L 514 940 L 512 940 L 512 990 L 511 993 L 498 1000 L 481 1003 L 464 1002 L 456 1000 L 438 990 Q 425 981 419 966 L 419 964 L 414 951 L 414 932 Q 418 925 418 916 L 426 902 L 429 900 L 430 898 L 444 886 L 469 878 L 470 879 L 491 879 L 493 881 L 500 882 Q 515 887 525 898 L 531 895 L 546 880 L 546 878 Q 533 863 514 856 L 494 851 L 469 850 Z M 634 893 L 618 897 L 597 908 L 581 926 L 577 934 L 572 950 L 572 976 L 577 991 L 583 1001 Q 582 1003 585 1002 Q 587 1003 585 1005 L 596 1015 L 605 1021 L 625 1029 L 631 1029 L 638 1031 L 655 1030 L 657 1030 L 672 1026 L 681 1022 L 693 1014 L 704 1002 L 710 992 L 710 989 L 710 987 L 712 986 L 714 980 L 714 971 L 716 964 Q 717 957 714 954 L 715 951 L 712 939 Q 708 937 711 936 Q 706 923 698 915 Q 684 901 664 895 Q 657 896 655 893 L 634 893 Z M 983 893 Q 960 897 948 911 Q 949 913 946 912 L 946 899 L 945 896 L 943 895 L 919 895 L 916 898 L 916 911 L 915 914 L 915 1001 L 916 1002 L 915 1004 L 916 1007 L 915 1026 L 918 1028 L 930 1028 L 931 1029 Q 935 1030 937 1028 L 940 1029 L 946 1028 L 947 1027 L 948 954 L 952 945 L 952 942 L 959 933 Q 961 934 960 932 L 963 929 L 974 924 Q 981 922 993 923 L 994 922 L 995 922 L 995 897 Q 993 891 985 893 L 983 893 Z M 1071 893 L 1060 895 L 1047 900 L 1029 912 L 1019 924 L 1014 933 L 1014 937 L 1011 941 L 1009 949 L 1009 974 L 1009 976 L 1014 988 L 1014 990 L 1015 994 L 1026 1008 Q 1028 1007 1027 1010 L 1032 1014 L 1049 1024 L 1061 1027 L 1064 1029 L 1071 1029 L 1078 1031 L 1089 1031 L 1100 1029 L 1102 1029 L 1117 1024 L 1132 1015 L 1137 1010 L 1136 1009 L 1137 1007 L 1130 999 Q 1127 993 1121 991 L 1119 991 L 1118 993 L 1116 993 L 1104 1001 L 1095 1004 L 1076 1004 L 1068 1002 L 1052 993 L 1046 987 L 1042 979 L 1042 977 L 1041 972 L 1045 971 L 1135 971 L 1140 972 Q 1145 973 1147 970 Q 1149 950 1143 940 L 1144 938 L 1138 925 L 1133 918 L 1117 903 L 1107 898 L 1088 893 L 1071 893 Z M 1181 894 L 1178 897 L 1177 902 L 1177 1037 L 1173 1045 L 1165 1051 L 1153 1051 L 1147 1048 L 1143 1048 L 1139 1053 L 1134 1068 L 1134 1070 L 1148 1076 L 1159 1077 L 1160 1078 L 1167 1078 L 1181 1075 L 1196 1066 Q 1195 1063 1198 1064 L 1204 1057 L 1209 1043 L 1209 967 L 1210 966 L 1210 953 L 1209 952 L 1209 898 L 1207 895 L 1182 895 L 1181 894 Z " /><path fill="rgb(0,0,0)" stroke="rgb(0,0,0)" stroke-width="1" opacity="0" d="M 1125.5 606 L 1128 607.5 L 1129 609.5 L 1127.5 610 L 1125.5 606 Z " /><path fill="rgb(0,0,0)" stroke="rgb(0,0,0)" stroke-width="1" opacity="0" d="M 493.5 666 L 494 668.5 L 493 668.5 L 493.5 666 Z " /><path fill="rgb(0,0,0)" stroke="rgb(0,0,0)" stroke-width="1" opacity="0" d="M 641.5 919 L 657.5 921 L 674 932.5 L 679 939.5 L 679 942.5 L 683 950.5 L 683 954.5 L 682 976.5 L 678 984.5 L 667.5 996 L 653.5 1003 L 639.5 1004 Q 636.6 1001.4 630.5 1002 L 619 996 Q 620.1 993.3 617.5 994 L 610 985.5 L 604 972.5 L 604 951.5 L 606 949.5 L 608 940.5 L 619.5 927 L 629.5 921 L 640.5 920 L 641.5 919 Z " /><path fill="rgb(0,0,0)" stroke="rgb(0,0,0)" stroke-width="1" opacity="0" d="M 802.5 919 L 804.5 920 L 806.5 919 L 807.5 920 L 818.5 921 L 825.5 924 L 837 934.5 L 841 940.5 L 846 959.5 L 846 961.5 L 841 982.5 L 830.5 995 Q 820.7 1004.7 800.5 1004 L 786.5 999 L 777 992 L 772 985.5 L 768 976.5 L 767 971.5 L 767 948.5 L 771 939.5 L 777.5 931 L 780 929.5 Q 779.3 927.3 781.5 928 L 792.5 921 L 802.5 919 Z " /><path fill="rgb(0,0,0)" stroke="rgb(0,0,0)" stroke-width="1" opacity="0" d="M 1068.5 919 Q 1096.8 915.7 1107 930.5 L 1116 945.5 L 1116 947.5 L 1115.5 951 L 1041 951 L 1041 943.5 L 1046 934.5 L 1055.5 925 Q 1060.3 920.3 1068.5 919 Z " /><path fill="rgb(21,134,143)" stroke="rgb(21,134,143)" stroke-width="1" opacity="0.9529411764705882" d="M 488.5 547 L 489 548.5 L 486.5 552 L 488.5 551 L 481 559.5 L 476 568.5 L 476 574.5 L 476 576.5 L 477.5 579 L 482 582.5 L 479.5 581 L 476.5 579 L 476 580.5 L 487.5 587 L 521.5 587 L 526.5 585 L 532.5 585 L 549.5 581 L 574 577.5 L 570 576.5 L 586.5 573 L 588 573.5 Q 587.2 570.9 590.5 572 L 592.5 573 L 594.5 572 L 596.5 572 L 605.5 573 L 608.5 572 L 609.5 573 L 617.5 573 L 620 574.5 L 617 575.5 L 621.5 576 L 625.5 575 L 635 578.5 L 633 579.5 L 646 587 L 646.5 585 L 654 592.5 L 654 597.5 L 656 600.5 L 657 610.5 L 655 619 L 627.5 628 L 627.5 627 L 629 626.5 L 625.5 626 L 608 631.5 L 611 632.5 L 608.5 634 L 590.5 637 L 590.5 636 L 594 635.5 L 588.5 635 L 583 636.5 L 588 637.5 L 583.5 638 Q 581.8 635.2 575.5 637 L 568.5 639 L 544.5 640 L 542.5 641 L 540.5 641 L 529.5 641 L 528.5 640 L 525.5 641 L 524.5 640 L 500.5 639 L 494.5 637 L 478.5 635 L 474.5 636 L 461.5 632 L 447.5 625 L 432 611.5 L 431 608.5 L 432 608.5 L 439.5 618 L 441 617.5 L 432 606.5 L 431 596.5 L 432 591.5 L 431 591.5 L 430.5 593 L 430 590.5 L 433.5 585 L 433 586.5 L 432 590.5 L 433 590.5 L 437 582.5 L 434 583.5 L 438.5 577 L 448.5 568 L 455 565 Q 453.9 562.3 456.5 563 L 462.5 559 L 461.5 561 L 459 562.5 L 460.5 563 L 488.5 547 Z M 486 552 L 484 554 L 486 554 L 486 552 Z M 479 560 L 477 563 L 479 562 L 479 560 Z M 458 563 L 456 566 L 459 564 L 458 563 Z M 447 571 L 443 576 L 448 572 L 447 571 Z M 590 574 L 590 575 L 593 575 L 590 574 Z M 595 574 L 595 575 L 597 575 L 595 574 Z M 601 574 L 601 575 L 616 575 L 601 574 Z M 581 575 L 581 576 L 587 576 L 581 575 Z M 624 576 L 624 577 L 626 577 L 624 576 Z M 628 577 L 628 578 L 630 578 L 628 577 Z M 631 578 L 631 579 L 633 579 L 631 578 Z M 654 598 L 653 604 L 654 604 L 654 598 Z M 654 611 L 653 617 L 650 618 L 650 619 Q 653 620 654 618 L 654 611 Z M 442 618 L 444 621 L 445 621 L 442 618 Z M 646 619 L 646 620 L 648 620 L 646 619 Z M 446 621 L 447 623 L 448 623 L 446 621 Z M 641 621 L 641 622 L 643 622 L 641 621 Z M 461 629 L 461 630 L 463 630 L 461 629 Z M 466 631 L 466 632 L 468 632 L 466 631 Z M 469 632 L 469 633 L 471 633 L 469 632 Z M 473 633 L 473 634 L 475 634 L 473 633 Z M 599 633 L 599 634 L 602 634 L 599 633 Z M 476 634 L 476 635 L 478 635 L 476 634 Z M 595 634 L 595 635 L 598 635 L 595 634 Z " /><path fill="rgb(21,134,143)" stroke="rgb(21,134,143)" stroke-width="1" opacity="0.9529411764705882" d="M 1104.5 552 L 1105.5 554 L 1104.5 552 Z " /><path fill="rgb(21,134,143)" stroke="rgb(21,134,143)" stroke-width="1" opacity="0.9529411764705882" d="M 1102.5 554 L 1117.5 563 L 1115.5 560 L 1113 558.5 L 1114.5 559 L 1131 570 L 1132.5 573 L 1139 577 Q 1137.9 579.7 1140.5 579 L 1151.5 591 Q 1153.8 590.3 1153 592.5 L 1154 595 L 1157 596.5 L 1159 602 Q 1161.7 600.9 1161 603.5 L 1166 611.5 L 1166 613.5 L 1170 623.5 L 1170 627.5 L 1169 627.5 L 1169 624.5 L 1164.5 614 L 1164 616.5 L 1168 625.5 L 1169 633 L 1172 634.5 L 1173 637.5 L 1172 639.5 L 1173 642.5 L 1172 644.5 L 1172 646.5 L 1170.5 655 L 1169.5 652 L 1169 655.5 Q 1171.3 656.8 1170 661.5 L 1166 670.5 L 1166 674 L 1164 674.5 Q 1166.3 675.8 1163.5 677 Q 1161.3 676.3 1162 678.5 L 1155 689 L 1150.5 692 L 1147 691 L 1147 683.5 L 1145 681.5 Q 1147.5 680 1146 674.5 L 1145 670.5 Q 1147.3 669.2 1146 664.5 L 1142 647.5 L 1142 645.5 L 1142 642.5 L 1137 630.5 L 1137 626.5 L 1133.5 620 L 1133 622.5 L 1134 625.5 L 1135 633.5 L 1139 646.5 L 1139 648.5 L 1140 659.5 L 1139 660.5 L 1139 672.5 Q 1141.3 673.8 1140 678.5 L 1139 679.5 L 1139 687.5 L 1136.5 694 L 1135.5 691 L 1135 694 L 1127.5 688 L 1127 689.5 L 1132.5 696 L 1128 693 L 1122.5 686 L 1120 684.5 L 1116 678 L 1114 678 L 1114 675 Q 1111.3 676.1 1112 673.5 L 1102 657.5 L 1102 654.5 L 1098 649.5 L 1097 644.5 L 1092 635.5 L 1093 632.5 L 1090 627.5 L 1088 616.5 L 1089 614.5 L 1088 613.5 L 1088 589.5 L 1089 587.5 L 1089 585.5 L 1090 580.5 L 1090 578.5 L 1093 566.5 L 1095.5 562 L 1096.5 565 L 1100 556.5 L 1102.5 554 Z M 1120 564 L 1121 566 L 1122 566 L 1120 564 Z M 1096 565 L 1095 568 L 1096 568 L 1096 565 Z M 1095 568 L 1094 571 L 1095 571 L 1095 568 Z M 1128 570 L 1131 574 L 1132 574 L 1128 570 Z M 1094 571 L 1093 574 L 1094 574 L 1094 571 Z M 1093 574 L 1092 577 L 1093 577 L 1093 574 Z M 1139 580 L 1140 582 L 1141 582 L 1139 580 Z M 1142 582 L 1141 584 L 1146 588 L 1142 582 Z M 1091 588 L 1090 594 L 1091 594 L 1091 588 Z M 1090 595 L 1089 608 L 1090 608 L 1090 595 Z M 1124 606 L 1124 608 L 1126 607 L 1125 609 L 1128 610 L 1129 610 L 1128 608 L 1124 606 Z M 1091 609 L 1090 615 L 1091 615 L 1091 609 Z M 1131 614 L 1131 618 Q 1130 621 1133 620 Q 1134 615 1131 614 Z M 1131 620 L 1130 623 L 1131 623 L 1131 620 Z M 1171 634 L 1170 639 L 1171 639 L 1171 634 Z M 1135 635 L 1134 639 L 1135 639 L 1135 635 Z M 1143 638 L 1142 641 L 1143 641 L 1143 638 Z M 1136 640 L 1135 643 L 1136 643 L 1136 640 Z M 1098 641 L 1098 646 L 1099 646 L 1098 641 Z M 1146 650 L 1145 654 L 1146 654 L 1146 650 Z M 1147 655 L 1146 663 L 1147 663 L 1147 655 Z M 1169 656 L 1167 661 L 1168 664 L 1169 661 L 1169 656 Z M 1107 660 L 1106 662 L 1108 663 L 1107 660 Z M 1167 664 L 1164 669 L 1165 671 L 1167 667 L 1167 664 Z M 1111 667 L 1110 669 L 1112 670 L 1111 667 Z M 1148 667 L 1147 682 L 1148 682 L 1148 667 Z M 1161 677 L 1159 680 L 1161 679 L 1161 677 Z M 1151 688 L 1151 690 L 1153 689 L 1151 688 Z " /><path fill="rgb(21,134,143)" stroke="rgb(21,134,143)" stroke-width="1" opacity="0.9529411764705882" d="M 1107.5 554 L 1108.5 556 L 1107.5 554 Z " /><path fill="rgb(21,134,143)" stroke="rgb(21,134,143)" stroke-width="1" opacity="0.9529411764705882" d="M 1110.5 556 L 1111.5 558 L 1110.5 556 Z " /><path fill="rgb(21,134,143)" stroke="rgb(21,134,143)" stroke-width="1" opacity="0.9529411764705882" d="M 561.5 577 L 567 577.5 L 561.5 578 L 561.5 577 Z " /><path fill="rgb(21,134,143)" stroke="rgb(21,134,143)" stroke-width="1" opacity="0.9529411764705882" d="M 556.5 578 L 560 578.5 L 556.5 579 L 556.5 578 Z " /><path fill="rgb(21,134,143)" stroke="rgb(21,134,143)" stroke-width="1" opacity="0.9529411764705882" d="M 550.5 579 L 554 579.5 L 550.5 580 L 550.5 579 Z " /><path fill="rgb(21,134,143)" stroke="rgb(21,134,143)" stroke-width="1" opacity="0.9529411764705882" d="M 636.5 579 L 644 583.5 L 641.5 582 L 636.5 580 L 636.5 579 Z " /><path fill="rgb(21,134,143)" stroke="rgb(21,134,143)" stroke-width="1" opacity="0.9529411764705882" d="M 487.5 584 L 491 584.5 L 487.5 585 L 487.5 584 Z " /><path fill="rgb(21,134,143)" stroke="rgb(21,134,143)" stroke-width="1" opacity="0.9529411764705882" d="M 513.5 584 L 517 584.5 L 513.5 585 L 513.5 584 Z " /><path fill="rgb(21,134,143)" stroke="rgb(21,134,143)" stroke-width="1" opacity="0.9529411764705882" d="M 616.5 630 L 619 630.5 L 615.5 632 L 612 631.5 L 616.5 630 Z " /><path fill="rgb(21,134,143)" stroke="rgb(21,134,143)" stroke-width="1" opacity="0.9529411764705882" d="M 651.5 633 L 657 633 L 657 639.5 L 656 642.5 L 656 647.5 Q 652.8 651.8 653 659.5 L 654 661.5 L 652 669.5 L 653 671.5 L 652 673.5 L 653 677.5 Q 650.3 679.3 652 685.5 L 650.5 688 L 649.5 684 L 649 688 L 623 697.5 L 625 698.5 L 617.5 701 L 613.5 700 L 605.5 703 L 586 706.5 L 590 707.5 L 580.5 710 L 570.5 710 L 569.5 711 L 555.5 712 L 554.5 711 L 546.5 711 Q 545.3 713.3 540.5 712 L 531.5 710 L 520.5 710 L 508 706.5 L 511 705.5 L 507 705 L 506.5 707 L 502 705.5 L 507 704.5 L 490.5 701 L 490.5 702 L 492 702.5 L 490.5 703 L 487 701.5 L 490 700.5 L 486.5 700 L 484.5 701 L 484.5 700 L 486 699.5 L 475.5 696 L 475.5 697 L 477 697.5 L 475.5 698 L 467 693.5 L 465 686.5 L 466 684.5 L 465 681.5 L 465 677.5 L 461 666.5 L 461 661.5 L 462 661.5 L 462.5 663 L 463 659.5 L 460.5 653 L 459.5 657 L 457 648.5 L 458 648.5 L 459.5 653 L 460 648.5 L 459 645.5 L 461.5 644 L 474.5 648 L 484.5 649 L 486 650.5 L 486.5 652 L 487 650 Q 491 648.6 489 655.5 L 490 657.5 L 489 657.5 L 488.5 656 L 488 658.5 L 489.5 662 L 490.5 659 L 492.5 665 L 493.5 652 L 495.5 668 L 496 659.5 L 495 658.5 L 495 652 L 507.5 652 L 508.5 651 L 508.5 653 Q 514.5 651.5 516 654.5 L 518.5 667 L 519 659.5 L 518 655.5 L 519 655.5 L 520 667.5 L 519 672.5 L 520 672.5 L 520.5 669 L 521 672.5 L 520 676.5 L 521 676.5 L 521.5 675 L 522.5 677 L 523 668.5 L 523 664.5 L 523.5 653 L 524.5 664 L 525 654.5 L 526.5 653 L 546.5 653 L 548 654.5 L 548 660.5 L 550.5 672 L 551.5 670 Q 550.8 676.2 553.5 679 L 554.5 670 L 555.5 676 L 556 668.5 L 555 667.5 L 555 655.5 L 556 655.5 L 556.5 667 L 558 658.5 L 557 656.5 L 558 653 L 567 652.5 L 556 651.5 L 567.5 651 L 568.5 652 L 576.5 652 L 583 651 L 586.5 671 L 587.5 666 L 588.5 669 L 590 661.5 L 589 656.5 L 590 653.5 L 589 650.5 Q 590.3 647.7 591.5 650 L 613.5 645 L 616 649.5 L 618.5 665 L 619.5 657 Q 618.8 663.2 621.5 666 L 623.5 652 L 625 652.5 L 625 644.5 L 626.5 643 L 632 641.5 L 628 640.5 L 651.5 633 Z M 654 634 L 650 636 L 656 636 Q 657 633 654 634 Z M 647 636 L 647 637 L 649 637 L 647 636 Z M 644 637 L 644 638 L 646 638 L 644 637 Z M 639 638 L 633 640 L 633 641 L 643 639 L 639 638 Z M 654 643 L 653 648 L 654 648 L 654 643 Z M 653 650 L 652 653 L 653 653 L 653 650 Z M 488 653 L 487 656 L 488 656 L 488 653 Z M 464 663 L 463 667 L 464 667 L 464 663 Z M 494 666 L 493 669 L 494 669 L 494 666 Z M 465 668 L 464 672 L 465 672 L 465 668 Z M 466 672 L 465 676 L 466 676 L 466 672 Z M 494 672 L 493 675 L 494 675 L 494 672 Z M 469 688 Q 467 693 470 694 L 471 694 Q 468 692 469 688 Z M 621 698 L 621 699 L 623 699 L 621 698 Z M 618 699 L 618 700 L 620 700 L 618 699 Z M 514 706 L 514 707 L 517 707 L 514 706 Z M 569 708 L 569 709 L 575 709 L 569 708 Z M 542 709 L 542 710 L 558 710 L 542 709 Z " /><path fill="rgb(21,134,143)" stroke="rgb(21,134,143)" stroke-width="1" opacity="0.9529411764705882" d="M 479.5 636 L 487 637 L 486.5 639 L 479.5 637 L 479.5 636 Z " /><path fill="rgb(21,134,143)" stroke="rgb(21,134,143)" stroke-width="1" opacity="0.9529411764705882" d="M 488.5 638 L 491 638.5 L 488.5 639 L 488.5 638 Z " /><path fill="rgb(21,134,143)" stroke="rgb(21,134,143)" stroke-width="1" opacity="0.9529411764705882" d="M 579.5 638 L 582 638.5 L 579.5 639 L 579.5 638 Z " /><path fill="rgb(21,134,143)" stroke="rgb(21,134,143)" stroke-width="1" opacity="0.9529411764705882" d="M 494.5 639 L 497 639.5 L 494.5 640 L 494.5 639 Z " /><path fill="rgb(21,134,143)" stroke="rgb(21,134,143)" stroke-width="1" opacity="0.9529411764705882" d="M 572.5 639 L 575 639.5 L 572.5 640 L 572.5 639 Z " /><path fill="rgb(21,134,143)" stroke="rgb(21,134,143)" stroke-width="1" opacity="0.9529411764705882" d="M 566.5 640 L 569 640.5 L 566.5 641 L 566.5 640 Z " /><path fill="rgb(21,134,143)" stroke="rgb(21,134,143)" stroke-width="1" opacity="0.9529411764705882" d="M 509.5 641 L 512 641.5 L 509.5 642 L 509.5 641 Z " /><path fill="rgb(21,134,143)" stroke="rgb(21,134,143)" stroke-width="1" opacity="0.9529411764705882" d="M 552.5 641 L 553 643 L 540 642.5 L 551.5 642 L 552.5 641 Z " /><path fill="rgb(21,134,143)" stroke="rgb(21,134,143)" stroke-width="1" opacity="0.9529411764705882" d="M 554.5 641 L 562 641.5 L 554.5 642 L 554.5 641 Z " /><path fill="rgb(21,134,143)" stroke="rgb(21,134,143)" stroke-width="1" opacity="0.9529411764705882" d="M 514.5 642 L 526 642.5 L 514.5 643 L 514.5 642 Z " /><path fill="rgb(21,134,143)" stroke="rgb(21,134,143)" stroke-width="1" opacity="0.9529411764705882" d="M 612.5 643 L 615 643.5 L 610.5 645 L 610.5 644 L 612.5 643 Z " /><path fill="rgb(21,134,143)" stroke="rgb(21,134,143)" stroke-width="1" opacity="0.9529411764705882" d="M 467.5 644 L 470 644.5 L 467.5 645 L 467.5 644 Z " /><path fill="rgb(21,134,143)" stroke="rgb(21,134,143)" stroke-width="1" opacity="0.9529411764705882" d="M 600.5 645 L 601 647 L 598 646.5 L 600.5 645 Z " /><path fill="rgb(21,134,143)" stroke="rgb(21,134,143)" stroke-width="1" opacity="0.9529411764705882" d="M 478.5 646 L 481 646.5 L 478.5 647 L 478.5 646 Z " /><path fill="rgb(21,134,143)" stroke="rgb(21,134,143)" stroke-width="1" opacity="0.9529411764705882" d="M 591.5 647 L 595 647.5 L 591.5 648 L 591.5 647 Z " /><path fill="rgb(21,134,143)" stroke="rgb(21,134,143)" stroke-width="1" opacity="0.9529411764705882" d="M 500.5 650 L 507 650.5 L 500.5 651 L 500.5 650 Z " /><path fill="rgb(21,134,143)" stroke="rgb(21,134,143)" stroke-width="1" opacity="0.9529411764705882" d="M 569.5 650 L 575 650.5 L 569.5 651 L 569.5 650 Z " /><path fill="rgb(21,134,143)" stroke="rgb(21,134,143)" stroke-width="1" opacity="0.9529411764705882" d="M 584.5 650 Q 587.8 654.2 587 662.5 L 586 662.5 L 584.5 650 Z " /><path fill="rgb(21,134,143)" stroke="rgb(21,134,143)" stroke-width="1" opacity="0.9529411764705882" d="M 510.5 651 L 513 651.5 L 510.5 652 L 510.5 651 Z " /><path fill="rgb(21,134,143)" stroke="rgb(21,134,143)" stroke-width="1" opacity="0.9529411764705882" d="M 524.5 651 L 548.5 651 L 550 652.5 L 548.5 652 L 524.5 652 L 524.5 651 Z " /><path fill="rgb(21,134,143)" stroke="rgb(21,134,143)" stroke-width="1" opacity="0.9529411764705882" d="M 946.5 652 L 972 653.5 L 963 654.5 L 986.5 656 L 1004.5 660 L 1023.5 662 L 1044.5 667 L 1044.5 666 L 1035 663.5 L 1037.5 663 L 1049 666.5 L 1045 667.5 L 1063.5 673 L 1063.5 672 L 1050 667.5 L 1052.5 667 L 1079 677.5 L 1077 678.5 L 1081.5 680 L 1084.5 679 L 1087 680.5 L 1085.5 681 L 1082.5 680 L 1082.5 681 L 1097.5 687 L 1097.5 686 L 1090 682.5 L 1091.5 682 L 1121.5 696 L 1131 702.5 L 1126.5 706 L 1115.5 710 L 1094.5 715 L 1094.5 714 L 1100 712.5 L 1096.5 712 L 1065 719.5 L 1068 720.5 L 1065.5 721 L 1060.5 720 L 1055 721.5 L 1058 722.5 L 1055.5 723 L 1050.5 722 L 1050.5 723 L 1053 723.5 L 1046.5 724 Q 1045 721.5 1039.5 723 L 1032 724.5 L 1036 725.5 L 1032.5 727 L 1030.5 726 L 1021.5 728 L 1021.5 726 L 1005 726.5 L 1018 727.5 L 1011.5 729 L 1009.5 728 L 1007.5 729 L 1005.5 729 L 982.5 730 L 968 727.5 L 976 726.5 L 964 726 Q 965.1 728.7 962.5 728 L 961.5 727 Q 951.9 728.1 946 725.5 L 952 724.5 L 945.5 724 L 941.5 725 L 930 722.5 L 933 721.5 L 928.5 721 L 924.5 722 L 924.5 721 L 927 720.5 L 923.5 720 L 919.5 721 L 915.5 720 L 916.5 722 L 935 727.5 L 933 728.5 L 935.5 729 L 938.5 728 L 938.5 729 L 936 729.5 L 939.5 730 L 942.5 729 L 942.5 730 L 940 730.5 L 943.5 731 L 947.5 730 L 947.5 731 L 944 731.5 L 951.5 734 L 970.5 736 L 977.5 738 L 984.5 738 L 985.5 739 L 1039.5 740 L 1040.5 739 L 1052.5 739 L 1053.5 738 L 1080.5 736 L 1088.5 734 L 1091.5 735 L 1098 731.5 L 1094 730.5 L 1097.5 730 L 1101.5 731 L 1101.5 730 L 1099 729.5 L 1101.5 729 L 1106.5 730 L 1106.5 729 L 1104 728.5 L 1109.5 727 L 1109.5 728 L 1107 728.5 L 1110.5 729 L 1122.5 726 L 1122 727.5 L 1120 731.5 L 1123 729.5 L 1123.5 728 L 1124 729.5 L 1109 748 L 1087.5 766 L 1067.5 778 L 1042.5 788 L 1026.5 791 L 1026.5 790 L 1038 787.5 L 1033.5 787 L 1025.5 789 L 1014.5 789 L 1008.5 791 Q 1007 788.5 1005.5 792 L 990 791.5 L 992 790.5 L 984.5 790 Q 982.8 792.7 976.5 791 L 975.5 790 L 952.5 787 L 952.5 788 L 959 789.5 L 954.5 790 L 935.5 785 L 925 780.5 L 928 779.5 L 920.5 777 L 921.5 779 L 924 779.5 L 921.5 780 L 891.5 767 L 860.5 750 L 839.5 737 L 793 700.5 L 796.5 695 L 815.5 684 L 814.5 686 L 812 687.5 L 813.5 688 L 828 680.5 L 826 679.5 L 840.5 672 L 847.5 670 L 847.5 671 L 842 673.5 L 844.5 674 L 856 669.5 L 852.5 669 L 849.5 670 L 849.5 669 L 872.5 662 L 884.5 660 L 884.5 661 L 872.5 663 L 866 665.5 L 869.5 666 L 882.5 662 L 903.5 660 L 912.5 657 L 944 654.5 L 935 653.5 L 945.5 653 L 946.5 652 Z M 860 667 L 860 668 L 862 668 L 860 667 Z M 857 668 L 857 669 L 859 669 L 857 668 Z M 1070 675 L 1070 676 L 1072 676 L 1070 675 Z M 1099 687 L 1101 689 L 1102 689 L 1099 687 Z M 1116 695 L 1117 697 L 1126 701 L 1127 704 L 1130 703 L 1116 695 Z M 798 696 Q 791 699 797 702 L 797 701 L 796 700 L 799 697 L 798 696 Z M 1124 704 L 1124 705 L 1126 705 L 1124 704 Z M 1118 706 L 1118 707 L 1120 707 L 1118 706 Z M 1105 710 L 1105 711 L 1107 711 L 1105 710 Z M 1102 711 L 1102 712 L 1104 712 L 1102 711 Z M 812 713 L 814 716 L 815 716 L 812 713 Z M 816 716 L 818 719 L 819 719 L 816 716 Z M 911 717 L 911 718 L 913 718 L 911 717 Z M 915 718 L 915 719 L 917 719 L 915 718 Z M 920 719 L 920 720 L 923 720 L 920 719 Z M 935 722 L 935 723 L 938 723 L 935 722 Z M 943 723 L 943 724 L 945 724 L 943 723 Z M 826 724 L 827 726 L 828 726 L 826 724 Z M 953 725 L 953 726 L 963 726 L 953 725 Z M 1023 725 L 1023 726 L 1030 726 L 1023 725 Z M 829 726 L 830 728 L 831 728 L 829 726 Z M 926 726 L 926 727 L 928 727 L 926 726 Z M 930 727 L 930 728 L 932 728 L 930 727 Z M 980 727 L 980 728 L 1002 728 L 980 727 Z M 1119 733 L 1115 738 L 1119 735 L 1119 733 Z M 1113 740 L 1110 744 L 1113 742 L 1113 740 Z M 851 741 L 852 743 L 853 743 L 851 741 Z M 1109 744 L 1106 748 L 1109 746 L 1109 744 Z M 1092 759 L 1090 762 L 1093 760 L 1092 759 Z M 1088 762 L 1083 765 L 1080 769 L 1089 763 L 1088 762 Z M 889 763 L 889 764 L 895 767 L 896 767 L 889 763 Z M 897 767 L 899 769 L 901 769 L 897 767 Z M 1076 770 L 1075 772 L 1077 771 L 1076 770 Z M 1063 777 L 1061 778 L 1061 779 L 1065 778 L 1063 777 Z M 929 780 L 929 781 L 931 781 L 929 780 Z M 941 784 L 941 785 L 943 785 L 941 784 Z M 945 785 L 945 786 L 947 786 L 945 785 Z M 948 786 L 948 787 L 951 787 L 948 786 Z " /><path fill="rgb(21,134,143)" stroke="rgb(21,134,143)" stroke-width="1" opacity="0.9529411764705882" d="M 919.5 654 L 925 654.5 L 919.5 655 L 919.5 654 Z " /><path fill="rgb(21,134,143)" stroke="rgb(21,134,143)" stroke-width="1" opacity="0.9529411764705882" d="M 981.5 654 L 985 654.5 L 981.5 655 L 981.5 654 Z " /><path fill="rgb(21,134,143)" stroke="rgb(21,134,143)" stroke-width="1" opacity="0.9529411764705882" d="M 550.5 655 L 552 658.5 L 550.5 665 L 550.5 655 Z " /><path fill="rgb(21,134,143)" stroke="rgb(21,134,143)" stroke-width="1" opacity="0.9529411764705882" d="M 989.5 655 L 995 655.5 L 989.5 656 L 989.5 655 Z " /><path fill="rgb(21,134,143)" stroke="rgb(21,134,143)" stroke-width="1" opacity="0.9529411764705882" d="M 886.5 659 L 889 659.5 L 886.5 660 L 886.5 659 Z " /><path fill="rgb(21,134,143)" stroke="rgb(21,134,143)" stroke-width="1" opacity="0.9529411764705882" d="M 1017.5 659 L 1020 659.5 L 1017.5 660 L 1017.5 659 Z " /><path fill="rgb(21,134,143)" stroke="rgb(21,134,143)" stroke-width="1" opacity="0.9529411764705882" d="M 1022.5 660 L 1025 660.5 L 1022.5 661 L 1022.5 660 Z " /><path fill="rgb(21,134,143)" stroke="rgb(21,134,143)" stroke-width="1" opacity="0.9529411764705882" d="M 1026.5 661 L 1030 661.5 L 1026.5 662 L 1026.5 661 Z " /><path fill="rgb(21,134,143)" stroke="rgb(21,134,143)" stroke-width="1" opacity="0.9529411764705882" d="M 1031.5 662 L 1034 662.5 L 1031.5 663 L 1031.5 662 Z " /><path fill="rgb(21,134,143)" stroke="rgb(21,134,143)" stroke-width="1" opacity="0.9529411764705882" d="M 599.5 705 L 602 705.5 L 599.5 706 L 599.5 705 Z " /><path fill="rgb(21,134,143)" stroke="rgb(21,134,143)" stroke-width="1" opacity="0.9529411764705882" d="M 592.5 706 L 597 706.5 L 592.5 707 L 592.5 706 Z " /><path fill="rgb(21,134,143)" stroke="rgb(21,134,143)" stroke-width="1" opacity="0.9529411764705882" d="M 1071.5 719 L 1075 719.5 L 1071.5 720 L 1071.5 719 Z " /><path fill="rgb(21,134,143)" stroke="rgb(21,134,143)" stroke-width="1" opacity="0.9529411764705882" d="M 1061.5 721 L 1064 721.5 L 1061.5 722 L 1061.5 721 Z " /><path fill="rgb(21,134,143)" stroke="rgb(21,134,143)" stroke-width="1" opacity="0.9529411764705882" d="M 1040.5 724 L 1045 724.5 L 1040.5 725 L 1040.5 724 Z " /><path fill="rgb(21,134,143)" stroke="rgb(21,134,143)" stroke-width="1" opacity="0.9529411764705882" d="M 1118.5 724 L 1117.5 726 L 1111.5 727 L 1111.5 726 L 1118.5 724 Z " /><path fill="rgb(21,134,143)" stroke="rgb(21,134,143)" stroke-width="1" opacity="0.9529411764705882" d="M 1083.5 732 L 1086 732.5 L 1083.5 733 L 1083.5 732 Z " /><path fill="rgb(21,134,143)" stroke="rgb(21,134,143)" stroke-width="1" opacity="0.9529411764705882" d="M 962.5 733 L 965 733.5 L 962.5 734 L 962.5 733 Z " /><path fill="rgb(21,134,143)" stroke="rgb(21,134,143)" stroke-width="1" opacity="0.9529411764705882" d="M 967.5 734 L 978 735.5 L 972.5 736 L 967.5 735 L 967.5 734 Z " /><path fill="rgb(21,134,143)" stroke="rgb(21,134,143)" stroke-width="1" opacity="0.9529411764705882" d="M 1070.5 734 L 1075 734.5 L 1070.5 735 L 1070.5 734 Z " /><path fill="rgb(21,134,143)" stroke="rgb(21,134,143)" stroke-width="1" opacity="0.9529411764705882" d="M 1059.5 735 L 1061 735.5 L 1059.5 737 L 1050.5 737 L 1049.5 738 L 1035.5 738 L 1035.5 737 L 1046.5 737 L 1047.5 736 L 1049.5 736 L 1058.5 736 L 1059.5 735 Z " /><path fill="rgb(21,134,143)" stroke="rgb(21,134,143)" stroke-width="1" opacity="0.9529411764705882" d="M 1062.5 735 L 1067 735.5 L 1062.5 736 L 1062.5 735 Z " /><path fill="rgb(21,134,143)" stroke="rgb(21,134,143)" stroke-width="1" opacity="0.9529411764705882" d="M 979.5 736 L 1008 737.5 L 987.5 738 Q 985.8 735.3 979.5 737 L 979.5 736 Z " /><path fill="rgb(21,134,143)" stroke="rgb(21,134,143)" stroke-width="1" opacity="0.9529411764705882" d="M 960.5 790 L 964 790.5 L 960.5 791 L 960.5 790 Z " /><path fill="rgb(21,134,143)" stroke="rgb(21,134,143)" stroke-width="1" opacity="0.9529411764705882" d="M 972.5 792 L 978 792.5 L 972.5 793 L 972.5 792 Z " /><path fill="rgb(21,134,143)" stroke="rgb(21,134,143)" stroke-width="1" opacity="0.9529411764705882" d="M 1013.5 792 L 1017 792.5 L 1013.5 793 L 1013.5 792 Z " /><path fill="rgb(26,63,102)" stroke="rgb(26,63,102)" stroke-width="1" opacity="0.9450980392156862" d="M 501.5 539 Q 503.8 538.3 503 540.5 L 489.5 551 L 486 552 Q 487.1 554.7 484.5 554 L 477.5 563 L 477 561.5 L 489 547.5 L 487.5 548 Q 461.2 558.7 442.5 577 L 443 575.5 L 446.5 571 L 470.5 554 L 501.5 539 Z " /><path fill="rgb(26,63,102)" stroke="rgb(26,63,102)" stroke-width="1" opacity="0.9450980392156862" d="M 1101 552 L 1103.5 552 L 1115.5 560 L 1133 574.5 L 1131.5 574 Q 1118.6 562.4 1102.5 554 L 1098 560.5 L 1092.5 577 L 1092 574.5 L 1096 561.5 L 1101 552 Z " /><path fill="rgb(26,63,102)" stroke="rgb(26,63,102)" stroke-width="1" opacity="0.9450980392156862" d="M 589.5 574 L 593 574.5 L 589.5 575 L 589.5 574 Z " /><path fill="rgb(26,63,102)" stroke="rgb(26,63,102)" stroke-width="1" opacity="0.9450980392156862" d="M 594.5 574 L 597 574.5 L 594.5 575 L 594.5 574 Z " /><path fill="rgb(26,63,102)" stroke="rgb(26,63,102)" stroke-width="1" opacity="0.9450980392156862" d="M 600.5 574 L 616 574.5 L 600.5 575 L 600.5 574 Z " /><path fill="rgb(26,63,102)" stroke="rgb(26,63,102)" stroke-width="1" opacity="0.9450980392156862" d="M 580.5 575 L 587 575.5 L 580.5 576 L 580.5 575 Z " /><path fill="rgb(26,63,102)" stroke="rgb(26,63,102)" stroke-width="1" opacity="0.9450980392156862" d="M 617.5 575 L 622 575.5 L 617.5 576 L 617.5 575 Z " /><path fill="rgb(26,63,102)" stroke="rgb(26,63,102)" stroke-width="1" opacity="0.9450980392156862" d="M 474.5 576 L 478.5 581 L 487.5 585 L 516.5 585 L 537.5 581 L 545.5 581 L 546.5 580 L 573.5 577 L 573.5 578 L 549.5 581 Q 539.9 584.9 526.5 585 L 521.5 587 L 487.5 587 L 476 580.5 L 474.5 576 Z " /><path fill="rgb(26,63,102)" stroke="rgb(26,63,102)" stroke-width="1" opacity="0.9450980392156862" d="M 623.5 576 L 626 576.5 L 623.5 577 L 623.5 576 Z " /><path fill="rgb(26,63,102)" stroke="rgb(26,63,102)" stroke-width="1" opacity="0.9450980392156862" d="M 627.5 577 Q 639.2 578.8 646 585.5 L 647 587.5 L 645.5 587 Q 638.5 580.5 627.5 578 L 627.5 577 Z " /><path fill="rgb(26,63,102)" stroke="rgb(26,63,102)" stroke-width="1" opacity="0.9450980392156862" d="M 440.5 578 L 437 582.5 L 432 591.5 L 431 603.5 Q 433.9 613.1 441.5 618 L 449 623.5 L 447.5 623 L 434 612.5 L 429 602.5 L 429 596.5 L 434 584.5 L 440.5 578 Z " /><path fill="rgb(26,63,102)" stroke="rgb(26,63,102)" stroke-width="1" opacity="0.9450980392156862" d="M 1138.5 580 L 1146 586.5 L 1145.5 588 L 1141 582 L 1138.5 580 Z " /><path fill="rgb(26,63,102)" stroke="rgb(26,63,102)" stroke-width="1" opacity="0.9450980392156862" d="M 1090.5 588 L 1091 593.5 L 1090 593.5 L 1090.5 588 Z " /><path fill="rgb(26,63,102)" stroke="rgb(26,63,102)" stroke-width="1" opacity="0.9450980392156862" d="M 648.5 589 L 649.5 591 L 648.5 589 Z " /><path fill="rgb(26,63,102)" stroke="rgb(26,63,102)" stroke-width="1" opacity="0.9450980392156862" d="M 1151.5 593 L 1155 597.5 L 1152 595.5 L 1151.5 593 Z " /><path fill="rgb(26,63,102)" stroke="rgb(26,63,102)" stroke-width="1" opacity="0.9450980392156862" d="M 1089.5 595 L 1090 607.5 L 1089 607.5 L 1089.5 595 Z " /><path fill="rgb(26,63,102)" stroke="rgb(26,63,102)" stroke-width="1" opacity="0.9450980392156862" d="M 652.5 596 Q 654.9 598.1 654 603.5 L 653 603.5 L 652.5 596 Z " /><path fill="rgb(26,63,102)" stroke="rgb(26,63,102)" stroke-width="1" opacity="0.9450980392156862" d="M 1123.5 604 L 1126 608.5 L 1124 607.5 L 1123.5 604 Z " /><path fill="rgb(26,63,102)" stroke="rgb(26,63,102)" stroke-width="1" opacity="0.9450980392156862" d="M 1128.5 605 L 1130 607.5 L 1128 606.5 L 1128.5 605 Z " /><path fill="rgb(26,63,102)" stroke="rgb(26,63,102)" stroke-width="1" opacity="0.9450980392156862" d="M 1090.5 609 L 1091 614.5 L 1090 614.5 L 1090.5 609 Z " /><path fill="rgb(26,63,102)" stroke="rgb(26,63,102)" stroke-width="1" opacity="0.9450980392156862" d="M 653.5 611 L 654 617.5 Q 653.3 619.8 649.5 619 L 649.5 618 L 653 617 L 653.5 611 Z " /><path fill="rgb(26,63,102)" stroke="rgb(26,63,102)" stroke-width="1" opacity="0.9450980392156862" d="M 1162.5 611 L 1167 618.5 L 1171 632.5 L 1169 633 L 1168 625.5 L 1162.5 611 Z " /><path fill="rgb(26,63,102)" stroke="rgb(26,63,102)" stroke-width="1" opacity="0.9450980392156862" d="M 1127.5 614 L 1129 616.5 L 1128 616.5 L 1127.5 614 Z " /><path fill="rgb(26,63,102)" stroke="rgb(26,63,102)" stroke-width="1" opacity="0.9450980392156862" d="M 899.5 617 L 941.5 617 Q 946.9 620.1 956.5 619 L 961.5 621 L 966.5 621 L 987.5 626 L 1007 634 L 1007.5 636 L 1009.5 636 L 1015.5 640 L 1017.5 640 L 1030 647.5 L 1031.5 650 L 1036 652.5 L 1035.5 655 L 1028.5 651 L 1008.5 646 L 1006.5 646 L 994.5 645 L 981.5 642 L 968.5 642 L 966.5 642 L 962.5 643 L 961.5 642 L 952.5 642 L 950.5 642 L 929.5 642 L 921.5 644 L 903.5 645 L 898.5 647 L 896.5 647 L 884.5 649 L 880.5 651 L 878.5 651 L 867 653 Q 868.4 657 861.5 655 L 825.5 668 Q 824 665.5 822.5 669 L 809.5 674 L 773.5 692 L 703.5 732 L 653.5 753 L 609.5 766 L 604.5 766 L 600.5 768 L 589.5 769 L 572.5 773 L 529.5 774 L 528.5 773 L 519.5 773 L 516.5 771 L 511.5 771 L 500.5 768 L 484.5 761 L 476 754.5 Q 476.8 752.3 474.5 753 L 469.5 747 L 467 745.5 L 462 737.5 L 461 730.5 L 458 724.5 L 458 705.5 L 459 702 L 465.5 701 L 485.5 708 L 490.5 711 L 493 710 L 493.5 712 L 495.5 711 L 499.5 713 L 501.5 712 L 507 713 Q 505.9 715.7 508.5 715 L 513.5 714 L 525.5 717 L 529.5 716 L 532.5 717 L 581.5 716 L 610.5 710 L 613 711 L 613.5 709 L 615.5 709 L 641.5 701 L 676.5 685 L 700.5 676 L 720.5 666 L 791.5 640 L 856.5 623 L 874.5 621 L 881.5 619 L 892.5 619 L 899.5 617 Z " /><path fill="rgb(26,63,102)" stroke="rgb(26,63,102)" stroke-width="1" opacity="0.9450980392156862" d="M 1129.5 618 L 1132 624.5 L 1131 624.5 L 1129.5 618 Z " /><path fill="rgb(26,63,102)" stroke="rgb(26,63,102)" stroke-width="1" opacity="0.9450980392156862" d="M 645.5 619 L 648 619.5 L 639.5 623 L 640.5 621 L 645.5 619 Z " /><path fill="rgb(26,63,102)" stroke="rgb(26,63,102)" stroke-width="1" opacity="0.9450980392156862" d="M 1135.5 619 L 1137 622.5 L 1136 622.5 L 1135.5 619 Z " /><path fill="rgb(26,63,102)" stroke="rgb(26,63,102)" stroke-width="1" opacity="0.9450980392156862" d="M 450.5 624 L 471 632.5 L 468.5 633 L 450.5 625 L 450.5 624 Z " /><path fill="rgb(26,63,102)" stroke="rgb(26,63,102)" stroke-width="1" opacity="0.9450980392156862" d="M 1137.5 624 L 1139 627.5 L 1138 627.5 L 1137.5 624 Z " /><path fill="rgb(26,63,102)" stroke="rgb(26,63,102)" stroke-width="1" opacity="0.9450980392156862" d="M 629.5 625 L 631 625.5 L 620.5 630 L 608.5 632 L 608.5 631 L 629.5 625 Z " /><path fill="rgb(26,63,102)" stroke="rgb(26,63,102)" stroke-width="1" opacity="0.9450980392156862" d="M 1093.5 630 L 1095 632.5 L 1093 631.5 L 1093.5 630 Z " /><path fill="rgb(26,63,102)" stroke="rgb(26,63,102)" stroke-width="1" opacity="0.9450980392156862" d="M 472.5 633 L 500.5 639 L 524.5 640 L 527.5 641 L 529.5 641 L 540.5 641 L 541.5 640 L 543.5 641 L 544.5 640 L 568.5 639 L 601.5 633 L 601.5 634 L 589.5 637 L 583.5 637 L 578.5 639 L 572.5 639 L 565.5 641 L 554.5 641 L 553.5 642 L 551.5 642 L 528.5 643 L 525.5 642 Q 515.4 643.6 509.5 641 L 507.5 642 L 478.5 636 L 472.5 634 L 472.5 633 Z " /><path fill="rgb(26,63,102)" stroke="rgb(26,63,102)" stroke-width="1" opacity="0.9450980392156862" d="M 653.5 634 Q 657.3 633 656 636 L 650 635.5 L 653.5 634 Z " /><path fill="rgb(26,63,102)" stroke="rgb(26,63,102)" stroke-width="1" opacity="0.9450980392156862" d="M 1170.5 634 L 1171 638.5 L 1170 638.5 L 1170.5 634 Z " /><path fill="rgb(26,63,102)" stroke="rgb(26,63,102)" stroke-width="1" opacity="0.9450980392156862" d="M 1134.5 635 L 1135 638.5 L 1134 638.5 L 1134.5 635 Z " /><path fill="rgb(26,63,102)" stroke="rgb(26,63,102)" stroke-width="1" opacity="0.9450980392156862" d="M 646.5 636 L 649 636.5 L 628.5 642 L 625 644.5 L 624.5 653 L 624 642.5 L 625.5 641 L 631.5 641 L 646.5 636 Z " /><path fill="rgb(26,63,102)" stroke="rgb(26,63,102)" stroke-width="1" opacity="0.9450980392156862" d="M 1142.5 638 L 1143 640.5 L 1142 640.5 L 1142.5 638 Z " /><path fill="rgb(26,63,102)" stroke="rgb(26,63,102)" stroke-width="1" opacity="0.9450980392156862" d="M 1096.5 639 L 1100 647.5 L 1099 647.5 L 1096.5 639 Z " /><path fill="rgb(26,63,102)" stroke="rgb(26,63,102)" stroke-width="1" opacity="0.9450980392156862" d="M 1135.5 640 L 1136 642.5 L 1135 642.5 L 1135.5 640 Z " /><path fill="rgb(26,63,102)" stroke="rgb(26,63,102)" stroke-width="1" opacity="0.9450980392156862" d="M 458.5 641 L 467.5 645 L 487 648 L 486.5 652 L 484.5 649 L 474.5 648 L 460.5 644 L 459 647.5 L 464 666.5 L 463 666.5 L 463 663.5 L 460 657.5 L 460 653.5 L 457 647.5 L 457 642.5 L 458.5 641 Z " /><path fill="rgb(26,63,102)" stroke="rgb(26,63,102)" stroke-width="1" opacity="0.9450980392156862" d="M 653.5 643 L 654 647.5 L 653 647.5 L 653.5 643 Z " /><path fill="rgb(26,63,102)" stroke="rgb(26,63,102)" stroke-width="1" opacity="0.9450980392156862" d="M 609.5 644 L 611.5 645 L 617 644 L 619 654.5 L 619 664.5 L 618 664.5 L 616 649.5 L 613.5 645 L 591 650 Q 589.7 646.7 594.5 648 L 609.5 644 Z " /><path fill="rgb(26,63,102)" stroke="rgb(26,63,102)" stroke-width="1" opacity="0.9450980392156862" d="M 579.5 649 L 581.5 649 L 584 650.5 L 587 663.5 L 587 670.5 L 586 670.5 L 583 651 L 568.5 652 L 568.5 651 Q 575.9 651.9 579.5 649 Z " /><path fill="rgb(26,63,102)" stroke="rgb(26,63,102)" stroke-width="1" opacity="0.9450980392156862" d="M 1100.5 649 L 1105 657.5 L 1104 657.5 L 1100.5 649 Z " /><path fill="rgb(26,63,102)" stroke="rgb(26,63,102)" stroke-width="1" opacity="0.9450980392156862" d="M 494 650 L 507.5 651 L 508.5 652 L 510.5 652 L 515.5 651 L 518 652 L 519 666.5 L 518 666.5 L 517 656.5 L 514.5 653 L 495 652 L 496 667.5 L 495 667.5 L 494 650 Z " /><path fill="rgb(26,63,102)" stroke="rgb(26,63,102)" stroke-width="1" opacity="0.9450980392156862" d="M 652.5 650 L 653 652.5 L 652 652.5 L 652.5 650 Z " /><path fill="rgb(26,63,102)" stroke="rgb(26,63,102)" stroke-width="1" opacity="0.9450980392156862" d="M 1145.5 650 L 1146 653.5 L 1145 653.5 L 1145.5 650 Z " /><path fill="rgb(26,63,102)" stroke="rgb(26,63,102)" stroke-width="1" opacity="0.9450980392156862" d="M 524 652 L 548.5 652 L 550 653.5 L 551 671.5 L 550 671.5 L 548 654.5 L 546.5 653 L 526.5 653 L 525 654.5 L 524.5 664 L 524 652 Z " /><path fill="rgb(26,63,102)" stroke="rgb(26,63,102)" stroke-width="1" opacity="0.9450980392156862" d="M 556 652 L 567 652.5 L 558 653 L 557 657.5 L 557 659.5 L 556.5 667 L 556 652 Z " /><path fill="rgb(26,63,102)" stroke="rgb(26,63,102)" stroke-width="1" opacity="0.9450980392156862" d="M 1169.5 652 L 1170 655.5 L 1167 666.5 L 1163.5 673 L 1163 671.5 L 1167 663.5 L 1169.5 652 Z " /><path fill="rgb(26,63,102)" stroke="rgb(26,63,102)" stroke-width="1" opacity="0.9450980392156862" d="M 487.5 653 L 490 661.5 L 489 661.5 L 487.5 653 Z " /><path fill="rgb(26,63,102)" stroke="rgb(26,63,102)" stroke-width="1" opacity="0.9450980392156862" d="M 925.5 654 L 944 654.5 L 912.5 657 L 903.5 660 L 887.5 661 L 866.5 666 L 866.5 665 L 888.5 660 L 891.5 658 L 912.5 656 L 913.5 655 L 924.5 655 L 925.5 654 Z " /><path fill="rgb(26,63,102)" stroke="rgb(26,63,102)" stroke-width="1" opacity="0.9450980392156862" d="M 963.5 654 L 980.5 654 L 989.5 656 L 1000.5 656 L 1007.5 658 L 1013.5 658 L 1017.5 660 L 1021.5 660 L 1045.5 667 L 1049.5 667 L 1066 673.5 L 1064.5 674 L 1048.5 668 L 1023.5 662 L 1004.5 660 L 986.5 656 L 963.5 655 L 963.5 654 Z " /><path fill="rgb(26,63,102)" stroke="rgb(26,63,102)" stroke-width="1" opacity="0.9450980392156862" d="M 1146.5 655 L 1147 662.5 L 1146 662.5 L 1146.5 655 Z " /><path fill="rgb(26,63,102)" stroke="rgb(26,63,102)" stroke-width="1" opacity="0.9450980392156862" d="M 1106.5 660 L 1113 670.5 L 1110 668.5 L 1106 661.5 L 1106.5 660 Z " /><path fill="rgb(26,63,102)" stroke="rgb(26,63,102)" stroke-width="1" opacity="0.9450980392156862" d="M 859.5 667 L 862 667.5 L 842.5 674 L 842.5 673 L 859.5 667 Z " /><path fill="rgb(26,63,102)" stroke="rgb(26,63,102)" stroke-width="1" opacity="0.9450980392156862" d="M 1147.5 667 L 1148 681.5 L 1147 681.5 L 1147.5 667 Z " /><path fill="rgb(26,63,102)" stroke="rgb(26,63,102)" stroke-width="1" opacity="0.9450980392156862" d="M 464.5 668 L 466 675.5 L 465 675.5 L 464.5 668 Z " /><path fill="rgb(26,63,102)" stroke="rgb(26,63,102)" stroke-width="1" opacity="0.9450980392156862" d="M 519.5 668 L 521 676.5 L 520 676.5 L 519.5 668 Z " /><path fill="rgb(26,63,102)" stroke="rgb(26,63,102)" stroke-width="1" opacity="0.9450980392156862" d="M 555.5 668 L 556 675.5 L 555 675.5 L 555.5 668 Z " /><path fill="rgb(26,63,102)" stroke="rgb(26,63,102)" stroke-width="1" opacity="0.9450980392156862" d="M 492.5 670 L 494 674.5 L 493 674.5 L 492.5 670 Z " /><path fill="rgb(26,63,102)" stroke="rgb(26,63,102)" stroke-width="1" opacity="0.9450980392156862" d="M 1113.5 672 L 1120 679.5 L 1115 675.5 L 1113.5 672 Z " /><path fill="rgb(26,63,102)" stroke="rgb(26,63,102)" stroke-width="1" opacity="0.9450980392156862" d="M 839.5 674 L 841 674.5 L 835.5 677 L 835.5 676 L 839.5 674 Z " /><path fill="rgb(26,63,102)" stroke="rgb(26,63,102)" stroke-width="1" opacity="0.9450980392156862" d="M 1067.5 674 L 1074 676.5 L 1072.5 677 L 1067.5 675 L 1067.5 674 Z " /><path fill="rgb(26,63,102)" stroke="rgb(26,63,102)" stroke-width="1" opacity="0.9450980392156862" d="M 1161.5 675 L 1162 676.5 L 1158.5 681 L 1159 679.5 L 1161.5 675 Z " /><path fill="rgb(26,63,102)" stroke="rgb(26,63,102)" stroke-width="1" opacity="0.9450980392156862" d="M 830.5 678 L 832 678.5 L 812.5 688 L 813.5 686 L 830.5 678 Z " /><path fill="rgb(26,63,102)" stroke="rgb(26,63,102)" stroke-width="1" opacity="0.9450980392156862" d="M 1077.5 678 Q 1091.7 681.3 1102 688.5 L 1100.5 689 L 1077.5 679 L 1077.5 678 Z " /><path fill="rgb(26,63,102)" stroke="rgb(26,63,102)" stroke-width="1" opacity="0.9450980392156862" d="M 1120.5 681 L 1124.5 686 L 1120.5 681 Z " /><path fill="rgb(26,63,102)" stroke="rgb(26,63,102)" stroke-width="1" opacity="0.9450980392156862" d="M 1157.5 682 L 1155 685.5 L 1150 693 L 1146 694 L 1145 689.5 L 1146.5 683 L 1147 691 L 1151 689.5 Q 1150.3 687.3 1152.5 688 L 1157.5 682 Z " /><path fill="rgb(26,63,102)" stroke="rgb(26,63,102)" stroke-width="1" opacity="0.9450980392156862" d="M 649.5 684 L 650 688.5 L 643.5 692 L 611.5 703 L 598.5 706 L 586.5 707 L 586.5 706 L 616.5 700 L 649 688 L 649.5 684 Z " /><path fill="rgb(26,63,102)" stroke="rgb(26,63,102)" stroke-width="1" opacity="0.9450980392156862" d="M 1126.5 687 L 1135 694 L 1135.5 691 L 1136 694.5 L 1133 696.5 L 1127 689.5 L 1126.5 687 Z " /><path fill="rgb(26,63,102)" stroke="rgb(26,63,102)" stroke-width="1" opacity="0.9450980392156862" d="M 468.5 688 Q 468.3 692.7 471.5 694 L 486.5 700 L 511 705.5 L 507.5 706 L 492.5 703 L 489.5 701 L 477.5 698 L 468 692.5 L 468.5 688 Z " /><path fill="rgb(26,63,102)" stroke="rgb(26,63,102)" stroke-width="1" opacity="0.9450980392156862" d="M 1103.5 689 L 1107 690.5 L 1105.5 691 L 1103.5 689 Z " /><path fill="rgb(26,63,102)" stroke="rgb(26,63,102)" stroke-width="1" opacity="0.9450980392156862" d="M 807.5 690 L 806.5 692 L 807.5 690 Z " /><path fill="rgb(26,63,102)" stroke="rgb(26,63,102)" stroke-width="1" opacity="0.9450980392156862" d="M 804.5 692 L 803.5 694 L 804.5 692 Z " /><path fill="rgb(26,63,102)" stroke="rgb(26,63,102)" stroke-width="1" opacity="0.9450980392156862" d="M 1109.5 692 L 1130 702.5 L 1123.5 705 L 1123.5 704 L 1127 702.5 L 1109.5 693 L 1109.5 692 Z " /><path fill="rgb(26,63,102)" stroke="rgb(26,63,102)" stroke-width="1" opacity="0.9450980392156862" d="M 801.5 694 L 800.5 696 L 796 699.5 L 799 703.5 L 794 699.5 L 801.5 694 Z " /><path fill="rgb(26,63,102)" stroke="rgb(26,63,102)" stroke-width="1" opacity="0.9450980392156862" d="M 800.5 704 L 803.5 708 L 800.5 704 Z " /><path fill="rgb(26,63,102)" stroke="rgb(26,63,102)" stroke-width="1" opacity="0.9450980392156862" d="M 1120.5 705 L 1122 705.5 L 1117.5 707 L 1117.5 706 L 1120.5 705 Z " /><path fill="rgb(26,63,102)" stroke="rgb(26,63,102)" stroke-width="1" opacity="0.9450980392156862" d="M 513.5 706 L 517 706.5 L 513.5 707 L 513.5 706 Z " /><path fill="rgb(26,63,102)" stroke="rgb(26,63,102)" stroke-width="1" opacity="0.9450980392156862" d="M 568.5 708 L 575 708.5 L 568.5 709 L 568.5 708 Z " /><path fill="rgb(26,63,102)" stroke="rgb(26,63,102)" stroke-width="1" opacity="0.9450980392156862" d="M 541.5 709 L 558 709.5 L 541.5 710 L 541.5 709 Z " /><path fill="rgb(26,63,102)" stroke="rgb(26,63,102)" stroke-width="1" opacity="0.9450980392156862" d="M 807.5 710 L 823 721.5 L 821.5 722 L 809.5 713 L 807.5 710 Z " /><path fill="rgb(26,63,102)" stroke="rgb(26,63,102)" stroke-width="1" opacity="0.9450980392156862" d="M 1104.5 710 L 1107 710.5 L 1101.5 712 L 1101.5 711 L 1104.5 710 Z " /><path fill="rgb(26,63,102)" stroke="rgb(26,63,102)" stroke-width="1" opacity="0.9450980392156862" d="M 1096.5 712 L 1100 712.5 L 1078.5 719 L 1071.5 719 L 1060.5 722 L 1050.5 723 L 1050.5 722 L 1069.5 719 L 1096.5 712 Z " /><path fill="rgb(26,63,102)" stroke="rgb(26,63,102)" stroke-width="1" opacity="0.9450980392156862" d="M 910.5 717 L 913 717.5 L 910.5 718 L 910.5 717 Z " /><path fill="rgb(26,63,102)" stroke="rgb(26,63,102)" stroke-width="1" opacity="0.9450980392156862" d="M 914.5 718 L 917 718.5 L 914.5 719 L 914.5 718 Z " /><path fill="rgb(26,63,102)" stroke="rgb(26,63,102)" stroke-width="1" opacity="0.9450980392156862" d="M 919.5 719 L 927 720.5 L 923.5 721 L 919.5 720 L 919.5 719 Z " /><path fill="rgb(26,63,102)" stroke="rgb(26,63,102)" stroke-width="1" opacity="0.9450980392156862" d="M 928.5 721 L 933 721.5 L 928.5 722 L 928.5 721 Z " /><path fill="rgb(26,63,102)" stroke="rgb(26,63,102)" stroke-width="1" opacity="0.9450980392156862" d="M 934.5 722 L 938 722.5 L 934.5 723 L 934.5 722 Z " /><path fill="rgb(26,63,102)" stroke="rgb(26,63,102)" stroke-width="1" opacity="0.9450980392156862" d="M 824.5 723 L 840 734.5 L 837.5 733 L 826.5 726 L 824.5 723 Z " /><path fill="rgb(26,63,102)" stroke="rgb(26,63,102)" stroke-width="1" opacity="0.9450980392156862" d="M 942.5 723 L 963 725.5 L 952.5 726 L 942.5 724 L 942.5 723 Z " /><path fill="rgb(26,63,102)" stroke="rgb(26,63,102)" stroke-width="1" opacity="0.9450980392156862" d="M 1039.5 723 L 1046 723.5 L 1032.5 725 L 1032.5 724 Q 1038 725.5 1039.5 723 Z " /><path fill="rgb(26,63,102)" stroke="rgb(26,63,102)" stroke-width="1" opacity="0.9450980392156862" d="M 1124.5 723 L 1127 724.5 L 1125 728 Q 1122.3 726.9 1123 729.5 L 1110.5 744 Q 1108.3 743.3 1109 745.5 L 1106 747.5 L 1123 726.5 L 1120.5 726 L 1098.5 731 L 1089.5 735 L 1087.5 734 L 1080.5 736 L 1053.5 738 L 1052.5 739 L 1040.5 739 L 1039.5 740 L 1006.5 740 L 1005.5 739 L 985.5 739 L 984.5 738 L 957.5 735 L 933 728.5 L 935.5 728 L 944.5 731 L 951.5 731 L 972.5 736 L 986.5 737 L 987.5 738 L 1049.5 738 L 1050.5 737 L 1074.5 735 L 1078.5 733 Q 1086.2 734.2 1089.5 731 L 1097.5 731 L 1121.5 725 L 1124.5 723 Z " /><path fill="rgb(26,63,102)" stroke="rgb(26,63,102)" stroke-width="1" opacity="0.9450980392156862" d="M 923.5 725 L 928 726.5 L 925.5 727 L 923.5 725 Z " /><path fill="rgb(26,63,102)" stroke="rgb(26,63,102)" stroke-width="1" opacity="0.9450980392156862" d="M 1022.5 725 L 1030 725.5 L 1021.5 727 L 1005.5 727 L 1005.5 726 L 1021.5 726 L 1022.5 725 Z " /><path fill="rgb(26,63,102)" stroke="rgb(26,63,102)" stroke-width="1" opacity="0.9450980392156862" d="M 964.5 726 L 976 726.5 L 964.5 727 L 964.5 726 Z " /><path fill="rgb(26,63,102)" stroke="rgb(26,63,102)" stroke-width="1" opacity="0.9450980392156862" d="M 929.5 727 L 932 727.5 L 929.5 728 L 929.5 727 Z " /><path fill="rgb(26,63,102)" stroke="rgb(26,63,102)" stroke-width="1" opacity="0.9450980392156862" d="M 979.5 727 L 1002 727.5 L 979.5 728 L 979.5 727 Z " /><path fill="rgb(26,63,102)" stroke="rgb(26,63,102)" stroke-width="1" opacity="0.9450980392156862" d="M 841.5 735 L 845 737.5 L 843.5 737 L 841.5 735 Z " /><path fill="rgb(26,63,102)" stroke="rgb(26,63,102)" stroke-width="1" opacity="0.9450980392156862" d="M 846.5 738 L 848.5 741 L 846.5 738 Z " /><path fill="rgb(26,63,102)" stroke="rgb(26,63,102)" stroke-width="1" opacity="0.9450980392156862" d="M 850.5 741 L 856 744.5 L 854.5 744 Q 850.5 743.5 850.5 741 Z " /><path fill="rgb(26,63,102)" stroke="rgb(26,63,102)" stroke-width="1" opacity="0.9450980392156862" d="M 857.5 745 L 858.5 747 L 857.5 745 Z " /><path fill="rgb(26,63,102)" stroke="rgb(26,63,102)" stroke-width="1" opacity="0.9450980392156862" d="M 1104.5 748 L 1104 749.5 L 1103.5 751 L 1103 749.5 L 1104.5 748 Z " /><path fill="rgb(26,63,102)" stroke="rgb(26,63,102)" stroke-width="1" opacity="0.9450980392156862" d="M 863.5 749 L 864.5 751 L 863.5 749 Z " /><path fill="rgb(26,63,102)" stroke="rgb(26,63,102)" stroke-width="1" opacity="0.9450980392156862" d="M 866.5 751 L 874 755.5 L 872.5 755 Q 866.9 754.2 866.5 751 Z " /><path fill="rgb(26,63,102)" stroke="rgb(26,63,102)" stroke-width="1" opacity="0.9450980392156862" d="M 1101.5 751 L 1096.5 757 Q 1085.5 767 1071.5 774 L 1072.5 772 Q 1088.8 763.3 1101.5 751 Z " /><path fill="rgb(26,63,102)" stroke="rgb(26,63,102)" stroke-width="1" opacity="0.9450980392156862" d="M 875.5 756 L 878 757.5 L 876.5 757 L 875.5 756 Z " /><path fill="rgb(26,63,102)" stroke="rgb(26,63,102)" stroke-width="1" opacity="0.9450980392156862" d="M 883.5 760 L 902 769.5 L 900.5 769 L 884.5 762 L 883.5 760 Z " /><path fill="rgb(26,63,102)" stroke="rgb(26,63,102)" stroke-width="1" opacity="0.9450980392156862" d="M 903.5 770 L 907 771.5 L 905.5 772 L 903.5 770 Z " /><path fill="rgb(26,63,102)" stroke="rgb(26,63,102)" stroke-width="1" opacity="0.9450980392156862" d="M 908.5 772 L 913 774.5 L 911.5 774 Q 907.8 773.8 908.5 772 Z " /><path fill="rgb(26,63,102)" stroke="rgb(26,63,102)" stroke-width="1" opacity="0.9450980392156862" d="M 1069.5 774 L 1068.5 776 L 1067 775.5 L 1069.5 774 Z " /><path fill="rgb(26,63,102)" stroke="rgb(26,63,102)" stroke-width="1" opacity="0.9450980392156862" d="M 1065.5 776 L 1064.5 778 L 1057.5 781 L 1058.5 779 L 1065.5 776 Z " /><path fill="rgb(26,63,102)" stroke="rgb(26,63,102)" stroke-width="1" opacity="0.9450980392156862" d="M 920.5 777 L 933 781.5 L 931.5 782 L 921.5 779 L 920.5 777 Z " /><path fill="rgb(26,63,102)" stroke="rgb(26,63,102)" stroke-width="1" opacity="0.9450980392156862" d="M 1053.5 781 L 1055 781.5 L 1051.5 783 L 1051.5 782 L 1053.5 781 Z " /><path fill="rgb(26,63,102)" stroke="rgb(26,63,102)" stroke-width="1" opacity="0.9450980392156862" d="M 940.5 784 L 943 784.5 L 940.5 785 L 940.5 784 Z " /><path fill="rgb(26,63,102)" stroke="rgb(26,63,102)" stroke-width="1" opacity="0.9450980392156862" d="M 944.5 785 L 951 786.5 L 947.5 787 L 944.5 786 L 944.5 785 Z " /><path fill="rgb(26,63,102)" stroke="rgb(26,63,102)" stroke-width="1" opacity="0.9450980392156862" d="M 952.5 787 L 969.5 789 L 976.5 791 L 983.5 791 Q 985.3 788.3 991.5 790 L 991.5 791 L 990 791.5 L 1005.5 792 Q 1007 788.5 1008.5 791 L 1014.5 789 L 1025.5 789 L 1026.5 788 L 1037.5 787 L 1037.5 788 L 1026.5 790 L 1023.5 792 L 1013.5 792 L 1005.5 794 L 984.5 794 L 977.5 792 L 968.5 792 Q 965.6 789.4 959.5 790 L 952.5 788 L 952.5 787 Z " /><path fill="rgb(26,63,102)" stroke="rgb(26,63,102)" stroke-width="1" opacity="0.9450980392156862" d="M 1187.5 838 L 1199.5 838 L 1202.5 840 Q 1204 837.5 1205.5 841 L 1211 845.5 Q 1215.3 849.7 1214 859.5 Q 1212.8 865.3 1208.5 868 Q 1203 874.5 1190.5 874 L 1179 869 L 1176.5 865 Q 1174.3 865.8 1175 863.5 Q 1171.2 860.3 1173 851.5 Q 1175.3 844.8 1180.5 841 L 1183.5 839 L 1185.5 839 L 1187.5 838 Z " /><path fill="rgb(26,63,102)" stroke="rgb(26,63,102)" stroke-width="1" opacity="0.9450980392156862" d="M 871.5 843 Q 875.5 842.5 876 845.5 L 877 847.5 L 877 1026.5 L 876 1029 L 862.5 1028 L 861.5 1029 L 848 1029 Q 848.8 1025.9 846 1026.5 L 846 1017.5 L 846 1015.5 L 845.5 1014 L 831.5 1024 L 812.5 1030 Q 806.3 1028.3 804.5 1031 L 801.5 1030 L 799.5 1030 L 785.5 1029 L 771.5 1024 Q 759.5 1018.5 751 1009.5 L 748 1004 Q 745.3 1005.1 746 1002.5 L 744 997 L 741 995.5 L 740 988 Q 737.3 989.1 738 986.5 L 735 977.5 L 736 973.5 Q 732.1 967.4 734 955.5 L 735 954.5 L 735 944.5 L 739 932.5 Q 745.6 917.6 757.5 908 Q 766.8 900.3 779.5 896 L 792.5 893 L 809.5 893 Q 811 895.5 816.5 894 L 827.5 898 L 842.5 908 L 845 908 L 845 847.5 L 847.5 844 L 870.5 844 L 871.5 843 Z M 803 919 L 793 921 L 782 928 Q 779 927 780 930 L 778 931 L 771 940 L 767 949 L 767 972 L 768 977 L 772 986 L 777 992 L 787 999 L 801 1004 Q 821 1005 831 995 L 841 983 L 846 962 L 846 960 L 841 941 L 837 935 L 826 924 L 819 921 L 808 920 L 807 919 L 805 920 L 803 919 Z " /><path fill="rgb(26,63,102)" stroke="rgb(26,63,102)" stroke-width="1" opacity="0.9450980392156862" d="M 468.5 850 L 493.5 851 L 513.5 856 Q 533.4 863.1 546 877.5 L 546 879.5 L 530.5 895 L 524.5 898 Q 514.8 887.2 499.5 882 L 492.5 881 L 490.5 879 L 469.5 879 L 468.5 878 L 443.5 886 L 430 897.5 L 428.5 900 L 426 901.5 L 418 915.5 Q 417.6 925.1 414 931.5 L 414 950.5 L 419 963.5 L 419 965.5 Q 425 981 437.5 990 L 455.5 1000 L 463.5 1002 L 480.5 1003 L 497.5 1000 L 511 993 L 512 989.5 L 512 940 L 514 939.5 L 513.5 938 L 543 938.5 Q 540.5 940 544 941.5 L 544 992.5 L 545 994.5 L 544 997.5 Q 546.5 999 545 1004.5 L 540.5 1012 L 521.5 1022 L 505.5 1027 L 501.5 1027 L 499.5 1029 L 493.5 1029 L 486.5 1031 L 464.5 1031 L 441.5 1026 L 418.5 1015 L 408 1006.5 L 406.5 1004 Q 404.3 1004.8 405 1002.5 L 392 986.5 L 386 973.5 L 387 971.5 L 386 968 Q 383.3 969.1 384 966.5 L 382 960.5 L 382 951.5 L 381 950.5 L 381 931.5 L 382 930.5 L 382 920.5 L 384 913 Q 386.7 914.1 386 911.5 L 386 909.5 Q 390.7 892.7 401.5 882 Q 403.8 882.8 403 880.5 Q 414.2 866.7 431.5 859 L 452.5 852 L 467.5 851 L 468.5 850 Z " /><path fill="rgb(26,63,102)" stroke="rgb(26,63,102)" stroke-width="1" opacity="0.9450980392156862" d="M 633.5 893 L 654.5 893 Q 657.4 895.6 663.5 895 Q 684.5 901 698 914.5 Q 706.3 923.2 711 935.5 Q 708.5 937 712 938.5 L 715 950.5 L 714 953.5 Q 717 956.5 716 963.5 L 714 970.5 L 714 979.5 L 712 986 L 710 986.5 L 710 988.5 L 710 991.5 L 704 1001.5 L 692.5 1014 L 680.5 1022 L 671.5 1026 L 656.5 1030 L 654.5 1030 L 637.5 1031 L 630.5 1029 L 624.5 1029 L 604.5 1021 L 595.5 1015 L 585 1004.5 Q 587.3 1003.2 584.5 1002 Q 582.3 1002.8 583 1000.5 L 577 990.5 L 572 975.5 L 572 949.5 L 577 933.5 L 581 925.5 L 596.5 908 L 617.5 897 L 633.5 893 Z M 642 919 L 641 920 L 630 921 L 620 927 L 608 941 L 606 950 L 604 952 L 604 973 L 610 986 L 618 994 Q 620 993 619 996 L 631 1002 Q 637 1001 640 1004 L 654 1003 L 668 996 L 678 985 L 682 977 L 683 955 L 683 951 L 679 943 L 679 940 L 674 933 L 658 921 L 642 919 Z " /><path fill="rgb(26,63,102)" stroke="rgb(26,63,102)" stroke-width="1" opacity="0.9450980392156862" d="M 982.5 893 L 984.5 893 Q 993.3 891.3 995 896.5 L 995 921.5 L 993.5 922 L 992.5 923 Q 981 921.5 973.5 924 L 962.5 929 L 960 931.5 Q 960.8 933.8 958.5 933 L 952 941.5 L 952 944.5 L 948 953.5 L 947 1026.5 L 945.5 1028 L 939.5 1029 L 936.5 1028 Q 935.3 1030.3 930.5 1029 L 929.5 1028 L 917.5 1028 L 915 1025.5 L 916 1006.5 L 915 1003.5 L 916 1001.5 L 915 1000.5 L 915 913.5 L 916 910.5 L 916 897.5 L 918.5 895 L 942.5 895 L 945 896 L 946 898.5 L 946 912 Q 948.7 913.1 948 910.5 Q 960.4 896.9 982.5 893 Z " /><path fill="rgb(26,63,102)" stroke="rgb(26,63,102)" stroke-width="1" opacity="0.9450980392156862" d="M 1070.5 893 L 1087.5 893 L 1106.5 898 L 1116.5 903 L 1133 917.5 L 1138 924.5 L 1144 937.5 L 1143 939.5 Q 1149.3 950.3 1147 969.5 Q 1145.3 972.8 1139.5 972 L 1134.5 971 L 1044.5 971 L 1041 972 L 1042 976.5 L 1042 978.5 L 1046 986.5 L 1051.5 993 L 1067.5 1002 L 1075.5 1004 L 1094.5 1004 L 1103.5 1001 L 1115.5 993 L 1118 993 L 1118.5 991 L 1120.5 991 Q 1127.4 992.6 1130 998.5 L 1137 1006.5 L 1136 1008.5 L 1137 1009.5 L 1131.5 1015 L 1116.5 1024 L 1101.5 1029 L 1099.5 1029 L 1088.5 1031 L 1077.5 1031 L 1070.5 1029 L 1063.5 1029 L 1060.5 1027 L 1048.5 1024 L 1031.5 1014 L 1027 1009.5 Q 1027.8 1007.3 1025.5 1008 L 1015 993.5 L 1014 989.5 L 1014 987.5 L 1009 975.5 L 1009 973.5 L 1009 948.5 L 1011 940.5 L 1014 936.5 L 1014 932.5 L 1019 923.5 L 1028.5 912 L 1046.5 900 L 1059.5 895 L 1070.5 893 Z M 1069 919 Q 1060 920 1056 925 L 1046 935 L 1041 944 L 1041 951 L 1116 951 L 1116 948 L 1116 946 L 1107 931 Q 1097 916 1069 919 Z " /><path fill="rgb(26,63,102)" stroke="rgb(26,63,102)" stroke-width="1" opacity="0.9450980392156862" d="M 1180.5 894 L 1181.5 895 L 1206.5 895 L 1209 897.5 L 1209 951.5 L 1210 952.5 L 1210 965.5 L 1209 966.5 L 1209 1042.5 L 1204 1056.5 L 1197.5 1064 Q 1195.3 1063.3 1196 1065.5 L 1180.5 1075 L 1166.5 1078 L 1159.5 1078 L 1158.5 1077 L 1147.5 1076 L 1134 1069.5 L 1134 1067.5 L 1139 1052.5 L 1142.5 1048 L 1146.5 1048 L 1152.5 1051 L 1164.5 1051 L 1173 1044.5 L 1177 1036.5 L 1177 901.5 L 1178 896.5 L 1180.5 894 Z " /></svg>